<?xml version="1.0" encoding="utf-8"?>
<!-- Generator: Adobe Illustrator 18.1.1, SVG Export Plug-In . SVG Version: 6.00 Build 0)  -->
<!DOCTYPE svg PUBLIC "-//W3C//DTD SVG 1.1//EN" "http://www.w3.org/Graphics/SVG/1.1/DTD/svg11.dtd">
<svg version="1.1" id="Layer_1" xmlns="http://www.w3.org/2000/svg" xmlns:xlink="http://www.w3.org/1999/xlink" x="0px" y="0px"
	 width="1600px" height="1250px" viewBox="0 0 1600 1250" enable-background="new 0 0 1600 1250" xml:space="preserve">
<g opacity="0.5">
	<g>
		
			<ellipse transform="matrix(0.9934 0.1149 -0.1149 0.9934 22.2533 -25.1823)" fill="#9E0A0A" cx="229.5" cy="180.4" rx="81.9" ry="93.6"/>
	</g>
	<polygon fill="#9E0A0A" points="220.1,251.6 203.1,285.3 231.3,288.5 	"/>
</g>
<g opacity="0.5">
	<g>
		
			<ellipse transform="matrix(0.9734 -0.2291 0.2291 0.9734 -43.6898 35.015)" fill="#0D8E9B" cx="129" cy="205.7" rx="81.9" ry="93.6"/>
	</g>
	<polygon fill="#0D8E9B" points="144.3,275.8 139.7,313.3 167.4,306.8 	"/>
</g>
<g opacity="0.5">
	<g>
		
			<ellipse transform="matrix(0.9658 0.2595 -0.2595 0.9658 73.9715 -73.824)" fill="#0D8E9B" cx="316.6" cy="243.3" rx="81.9" ry="93.6"/>
	</g>
	<polygon fill="#0D8E9B" points="296.9,312.3 275.1,343.1 302.6,350.5 	"/>
</g>
<g opacity="0.5">
	<g>
		
			<ellipse transform="matrix(0.9823 0.1872 -0.1872 0.9823 80.7167 -53.683)" fill="#9E0A0A" cx="324.5" cy="400.5" rx="81.9" ry="93.6"/>
	</g>
	<polygon fill="#9E0A0A" points="310,470.7 290.5,503.1 318.4,508.4 	"/>
</g>
<g opacity="0.5">
	<g>
		
			<ellipse transform="matrix(0.9 -0.4359 0.4359 0.9 -115.7705 71.6397)" fill="#9E0A0A" cx="98.2" cy="288.1" rx="81.9" ry="93.6"/>
	</g>
	<polygon fill="#9E0A0A" points="128.5,353.2 132.2,390.8 157.8,378.4 	"/>
</g>
<g opacity="0.5">
	<g>
		
			<ellipse transform="matrix(0.9996 -2.656361e-002 2.656361e-002 0.9996 -8.8672 5.7042)" fill="#D3B311" cx="210.3" cy="336.6" rx="81.9" ry="93.6"/>
	</g>
	<polygon fill="#D3B311" points="211,408.4 198.9,444.1 227.3,443.4 	"/>
</g>
<g opacity="0.5">
	<g>
		
			<ellipse transform="matrix(0.9373 -0.3485 0.3485 0.9373 -135.9462 59.792)" fill="#D3B311" cx="98.2" cy="407.8" rx="81.9" ry="93.6"/>
	</g>
	<polygon fill="#D3B311" points="122.2,475.5 122.3,513.2 148.9,503.3 	"/>
</g>
<g opacity="0.5">
	<g>
		
			<ellipse transform="matrix(0.9997 2.493842e-002 -2.493842e-002 0.9997 11.1451 -5.4076)" fill="#0D8E9B" cx="222.4" cy="444.1" rx="81.9" ry="93.6"/>
	</g>
	<polygon fill="#0D8E9B" points="219.4,515.8 205.5,550.9 233.9,551.6 	"/>
</g>
<line fill="none" stroke="#FFFFFF" stroke-miterlimit="10" stroke-dasharray="10" x1="219.7" y1="576.4" x2="219.7" y2="1120.8"/>
<line fill="none" stroke="#FFFFFF" stroke-miterlimit="10" stroke-dasharray="10" x1="139.7" y1="527.8" x2="225.1" y2="1120.8"/>
<line fill="none" stroke="#FFFFFF" stroke-miterlimit="10" stroke-dasharray="10" x1="298.5" y1="527.8" x2="213.1" y2="1120.8"/>
<g>
	<path fill="none" stroke="#FFFFFF" stroke-miterlimit="10" d="M220.3,1077.8c0,0-39.5-28.8-44.1-7.1
		C176.3,1070.7,170.2,1098.3,220.3,1077.8z"/>
	<path fill="none" stroke="#FFFFFF" stroke-miterlimit="10" d="M219.1,1077.8c0,0,39.5-28.8,44.1-7.1
		C263.1,1070.7,269.2,1098.3,219.1,1077.8z"/>
</g>
</svg>
