<?xml version="1.0" encoding="utf-8"?>
<!-- Generator: Adobe Illustrator 18.1.1, SVG Export Plug-In . SVG Version: 6.00 Build 0)  -->
<!DOCTYPE svg PUBLIC "-//W3C//DTD SVG 1.1//EN" "http://www.w3.org/Graphics/SVG/1.1/DTD/svg11.dtd">
<svg version="1.1" id="Layer_1" xmlns="http://www.w3.org/2000/svg" xmlns:xlink="http://www.w3.org/1999/xlink" x="0px" y="0px"
	 width="216.7px" height="264.8px" viewBox="0 0 216.7 264.8" enable-background="new 0 0 216.7 264.8" xml:space="preserve">
<g>
	<path fill="#9E0A0A" d="M69.3,17.7c0,0-73.2,4-59.1,80.9c0,0,8.4,54.2,77.7,116.4h3.9C91.8,215,14.3,28.9,69.3,17.7z"/>
	<path fill="#C6B912" d="M81.8,16.6c0,0-33.6-0.6-53.6,22.2c0,0-56.5,56.7,61.2,176.1h4.8C94.2,215,29,27.6,81.8,16.6z"/>
	<path fill="#9E0A0A" d="M131.3,16.6c0,0,78,3,76.7,74.1c0,0,8.1,42.1-78.4,124.3c-3.7,0-3.7,0-3.7,0S260.1,88.1,131.3,16.6z"/>
	<path fill="#0D8E9B" d="M87,16.6c0,0-19.3-2-35.8,10.4c0,0-72.8,46.4,40.6,188h4.8C96.6,215,72.4,167.2,87,16.6z"/>
	<path fill="#9E0A0A" d="M101.9,16.6H80c0,0-74.6,43.1,16.6,198.4h13.2L101.9,16.6z"/>
	<path fill="#0D8E9B" d="M124.3,16.6c0,0,35.4-1,53.1,16.3c0,0,80.5,56.1-49.9,182.1h-1.7C125.8,215,183.8,96.7,124.3,16.6z"/>
	<path fill="#C6B912" d="M124.3,16.6c0,0,17.8-1.4,29.8,6c0,0,92.9,43.1-28.4,192.3h-4C121.8,215,156.5,26.1,124.3,16.6z"/>
	<path fill="#C6B912" d="M110.3,16.6H95.2c0,0-38.9,16.4,7.6,198.4h10.4L110.3,16.6z"/>
	<path fill="#9E0A0A" d="M121.8,215c0,0,96.8-152.3,9.5-198.4h-15.9c0,0,34.4,48.2-2.2,198.4H121.8z"/>
	<path fill="#0D8E9B" d="M107.6,16.6c0,0,2.3,17.2,2.2,198.4h6c0,0,55.1-163.5,2.6-198.4"/>
	<line fill="none" stroke="#FFFFFF" stroke-miterlimit="10" x1="107.6" y1="235.6" x2="106.4" y2="215"/>
	<line fill="none" stroke="#FFFFFF" stroke-miterlimit="10" x1="114.8" y1="215" x2="110.7" y2="235.6"/>
	<line fill="none" stroke="#FFFFFF" stroke-miterlimit="10" x1="121.8" y1="215" x2="112.6" y2="235.6"/>
	<line fill="none" stroke="#FFFFFF" stroke-miterlimit="10" x1="129.5" y1="215" x2="114.4" y2="235.9"/>
	<line fill="none" stroke="#FFFFFF" stroke-miterlimit="10" x1="98.6" y1="215" x2="104.4" y2="235.6"/>
	<line fill="none" stroke="#FFFFFF" stroke-miterlimit="10" x1="87.9" y1="215" x2="102.4" y2="235.9"/>
	<path fill="#916B3A" d="M112.4,256.1h-7.9c-2,0-3.6-1.6-3.6-3.6v-6c0-2,1.6-3.6,3.6-3.6h7.9c2,0,3.6,1.6,3.6,3.6v6
		C116,254.5,114.4,256.1,112.4,256.1z"/>
	<path fill="none" stroke="#FFFFFF" stroke-width="2" stroke-miterlimit="10" d="M111.9,245H105c-1.7,0-3.2-1.4-3.2-3.2v-2.5
		c0-1.7,1.4-3.2,3.2-3.2h6.9c1.7,0,3.2,1.4,3.2,3.2v2.5C115.1,243.5,113.6,245,111.9,245z"/>
	<path fill="none" stroke="#FFFFFF" stroke-width="2" stroke-miterlimit="10" d="M109.5,245h-1.9c-1.7,0-3.2-1.4-3.2-3.2v-2.5
		c0-1.7,1.4-3.2,3.2-3.2h1.9c1.7,0,3.2,1.4,3.2,3.2v2.5C112.6,243.5,111.2,245,109.5,245z"/>
	<rect x="100.9" y="243" fill="#916B3A" width="15" height="3.6"/>
	<path fill="#845E35" d="M116,243c0,1.1,0,1.1,0,2.4v8.4c0,1.3-1.1,2.4-2.4,2.4h-10.3c-1.2,0-1.7-0.7-1.9-0.9"/>
</g>
<path opacity="8.000000e-002" fill="#FFFFFF" d="M50.1,175.2c0,0,99.7-40.1,141.9-131.8c0,0-15.6-20.6-51.5-26.8l-60.5,0
	c0,0-62.7-0.7-70.6,51.1C9.4,67.7-4.3,103.8,50.1,175.2z"/>
</svg>
