<?xml version="1.0" encoding="utf-8"?>
<!-- Generator: Adobe Illustrator 18.1.1, SVG Export Plug-In . SVG Version: 6.00 Build 0)  -->
<!DOCTYPE svg PUBLIC "-//W3C//DTD SVG 1.1//EN" "http://www.w3.org/Graphics/SVG/1.1/DTD/svg11.dtd">
<svg version="1.1" id="Layer_1" xmlns="http://www.w3.org/2000/svg" xmlns:xlink="http://www.w3.org/1999/xlink" x="0px" y="0px"
	 viewBox="0 0 700 421" enable-background="new 0 0 700 421" xml:space="preserve">
<rect y="-3.4" fill="#0F0E0F" width="700" height="424.4"/>
<g opacity="0.5">
	<g>
		
			<ellipse transform="matrix(0.1149 -0.9934 0.9934 0.1149 -5.6771 196.5906)" fill="#9E0A0A" cx="107.5" cy="101.5" rx="28.2" ry="24.6"/>
	</g>
	<polygon fill="#9E0A0A" points="104.7,122.9 99.5,133.1 108,134 	"/>
</g>
<g opacity="0.5">
	<g>
		
			<ellipse transform="matrix(-0.2291 -0.9734 0.9734 -0.2291 -11.3252 209.2203)" fill="#0D8E9B" cx="77.2" cy="109.1" rx="28.2" ry="24.6"/>
	</g>
	<polygon fill="#0D8E9B" points="81.8,130.2 80.4,141.5 88.8,139.5 	"/>
</g>
<g opacity="0.5">
	<g>
		
			<ellipse transform="matrix(0.2595 -0.9657 0.9657 0.2595 -17.3322 218.3298)" fill="#0D8E9B" cx="133.7" cy="120.5" rx="28.2" ry="24.6"/>
	</g>
	<polygon fill="#0D8E9B" points="127.7,141.2 121.2,150.5 129.5,152.7 	"/>
</g>
<g opacity="0.5">
	<g>
		
			<ellipse transform="matrix(0.1872 -0.9823 0.9823 0.1872 -54.1462 269.9677)" fill="#9E0A0A" cx="136.1" cy="167.7" rx="28.2" ry="24.6"/>
	</g>
	<polygon fill="#9E0A0A" points="131.7,188.9 125.8,198.6 134.3,200.2 	"/>
</g>
<g opacity="0.5">
	<g>
		
			<ellipse transform="matrix(-0.4359 -0.9 0.9 -0.4359 -22.9191 253.4693)" fill="#9E0A0A" cx="68" cy="133.9" rx="28.2" ry="24.6"/>
	</g>
	<polygon fill="#9E0A0A" points="77.1,153.5 78.2,164.8 85.9,161.1 	"/>
</g>
<g opacity="0.5">
	<g>
		
			<ellipse transform="matrix(-2.656486e-002 -0.9996 0.9996 -2.656486e-002 -44.067 254.0536)" fill="#D3B311" cx="101.7" cy="148.5" rx="28.2" ry="24.6"/>
	</g>
	<polygon fill="#D3B311" points="101.9,170.1 98.3,180.9 106.8,180.6 	"/>
</g>
<g opacity="0.5">
	<g>
		
			<ellipse transform="matrix(-0.3485 -0.9373 0.9373 -0.3485 -67.5924 292.829)" fill="#D3B311" cx="68" cy="169.9" rx="28.2" ry="24.6"/>
	</g>
	<polygon fill="#D3B311" points="75.2,190.3 75.2,201.7 83.2,198.7 	"/>
</g>
<g opacity="0.5">
	<g>
		
			<ellipse transform="matrix(2.493810e-002 -0.9997 0.9997 2.493810e-002 -78.1268 281.6587)" fill="#0D8E9B" cx="105.3" cy="180.9" rx="28.2" ry="24.6"/>
	</g>
	<polygon fill="#0D8E9B" points="104.4,202.5 100.2,213 108.8,213.2 	"/>
</g>
<line fill="none" stroke="#FFFFFF" stroke-miterlimit="10" stroke-dasharray="10" x1="104.5" y1="220.7" x2="104.5" y2="384.5"/>
<line fill="none" stroke="#FFFFFF" stroke-miterlimit="10" stroke-dasharray="10" x1="80.4" y1="206.1" x2="106.1" y2="384.5"/>
<line fill="none" stroke="#FFFFFF" stroke-miterlimit="10" stroke-dasharray="10" x1="128.2" y1="206.1" x2="102.5" y2="384.5"/>
<g>
	<path fill="none" stroke="#FFFFFF" stroke-miterlimit="10" d="M104.7,371.6c0,0-11.9-8.7-13.3-2.2
		C91.5,369.5,89.7,377.7,104.7,371.6z"/>
	<path fill="none" stroke="#FFFFFF" stroke-miterlimit="10" d="M104.3,371.6c0,0,11.9-8.7,13.3-2.2
		C117.6,369.5,119.4,377.7,104.3,371.6z"/>
</g>
</svg>
