<?xml version="1.0" encoding="utf-8"?>
<!-- Generator: Adobe Illustrator 18.1.1, SVG Export Plug-In . SVG Version: 6.00 Build 0)  -->
<!DOCTYPE svg PUBLIC "-//W3C//DTD SVG 1.1//EN" "http://www.w3.org/Graphics/SVG/1.1/DTD/svg11.dtd">
<svg version="1.1" id="Layer_1" xmlns="http://www.w3.org/2000/svg" xmlns:xlink="http://www.w3.org/1999/xlink" x="0px" y="0px"
	 width="2481.6px" height="618.2px" viewBox="1207 432.8 2481.6 618.2" enable-background="new 1207 432.8 2481.6 618.2"
	 xml:space="preserve">
<g>
	<g>
		<circle fill="#F4F4F4" cx="1599" cy="1047.1" r="127.9"/>
	</g>
	<path fill="#EAEAEA" d="M1483,1101c0,0,187.1,66.2,226.9-117.9c0,0,31.5,47.7,9,109.1c0,0-14.7,48.6-64.1,70.2
		c0,0-55.5,31.7-117.6-3.3C1537.1,1159.1,1498.4,1139.3,1483,1101z"/>
</g>
<g>
	<circle fill="#F4F4F4" cx="1250.5" cy="1122.7" r="136.5"/>
</g>
<path fill="#EAEAEA" d="M1120.4,1184.2c0,0,199.6,70.6,242-125.7c0,0,33.6,50.9,9.6,116.4c0,0-15.7,51.8-68.4,74.8
	c0,0-59.2,33.8-125.4-3.4C1178.2,1246.2,1136.9,1225.1,1120.4,1184.2z"/>
<g>
	<g>
		<circle fill="#F4F4F4" cx="1380.6" cy="1048.9" r="153.7"/>
	</g>
	<path fill="#EAEAEA" d="M1241.2,1113.6c0,0,224.8,79.5,272.6-141.6c0,0,37.8,57.3,10.8,131.1c0,0-17.7,58.4-77,84.3
		c0,0-66.6,38.1-141.3-3.9C1306.2,1183.4,1259.8,1159.7,1241.2,1113.6z"/>
</g>
<path fill="#EAEAEA" d="M1634.3,1171.6h-345.2c-7,0-12.8-5.8-12.8-12.8v-23.4c0-7,5.8-12.8,12.8-12.8h345.2c7,0,12.8,5.8,12.8,12.8
	v23.4C1647,1165.9,1641.3,1171.6,1634.3,1171.6z"/>
<circle opacity="0.98" fill="#FCFCFC" enable-background="new    " cx="1920.5" cy="1037.2" r="131.4"/>
<g opacity="0.93">
	<path fill="#F2F2F2" d="M2520.9,1225.7h-417.1c-3.9,0-7.1-3.2-7.1-7.1v-79c0-3.9,3.2-7.1,7.1-7.1h417.1c3.9,0,7.1,3.2,7.1,7.1v79
		C2528,1222.5,2524.8,1225.7,2520.9,1225.7z"/>
	<circle fill="#F2F2F2" cx="2118.1" cy="1107.3" r="118.5"/>
	
		<ellipse transform="matrix(-0.9542 0.2991 -0.2991 -0.9542 4732.9961 1370.2634)" fill="#F2F2F2" cx="2261.6" cy="1047.3" rx="143.6" ry="178.4"/>
	
		<ellipse transform="matrix(-0.9827 -0.1853 0.1853 -0.9827 4588.2397 2523.4824)" fill="#F2F2F2" cx="2412" cy="1047.3" rx="127.6" ry="147.7"/>
	<ellipse fill="#F2F2F2" cx="2514.3" cy="1107.9" rx="131.2" ry="118.7"/>
	<path fill="#FFFFFF" d="M2212.3,892.8c0,0-24,17.5-41,41c-11.2,15.3-13.3,32.2-16.2,50.6c0,0-6.9,18.5-18.7,3.2
		c0,0-8.5-10.3,20.7-50.8C2168.8,920.4,2185.8,903.1,2212.3,892.8z"/>
	<path fill="#FFFFFF" d="M2090.4,1012.9c0,0-24,17.5-41,41c-11.2,15.3-13.3,32.2-16.2,50.6c0,0-6.9,18.5-18.7,3.2
		c0,0-8.5-10.3,20.7-50.8C2047,1040.4,2064,1023.1,2090.4,1012.9z"/>
</g>
<circle opacity="0.98" fill="#FCFCFC" enable-background="new    " cx="1780.3" cy="1049.2" r="94.3"/>
<g>
	<g>
		<g>
			<circle fill="#FFFFFF" cx="3059.1" cy="1015.8" r="132.5"/>
		</g>
		<path fill="#E5E5E5" d="M2938.9,1071.6c0,0,193.6,68.5,234.8-122c0,0,32.6,49.3,9.3,112.9c0,0-15.2,50.3-66.3,72.6
			c0,0-57.4,32.8-121.8-3.4C2995,1131.8,2955,1111.2,2938.9,1071.6z"/>
	</g>
	<g>
		<g>
			<circle fill="#FFFFFF" cx="2887.2" cy="951.9" r="196.8"/>
		</g>
		<path fill="#E5E5E5" d="M2708.7,1034.7c0,0,287.9,101.8,349-181.3c0,0,48.5,73.4,13.8,167.8c0,0-22.7,74.7-98.6,107.9
			c0,0-85.3,48.8-180.9-5C2792,1124.1,2732.5,1093.7,2708.7,1034.7z"/>
	</g>
	<g>
		<circle fill="#FFFFFF" cx="2699.9" cy="989.6" r="158.6"/>
	</g>
	<path fill="#E5E5E5" d="M2556,1056.3c0,0,232,82,281.3-146.1c0,0,39.1,59.2,11.1,135.3c0,0-18.3,60.2-79.5,87
		c0,0-68.7,39.4-145.8-4C2623.2,1128.4,2575.2,1103.8,2556,1056.3z"/>
	<path fill="#E5E5E5" d="M3082,1149.4h-405.3c-7,0-12.8-5.8-12.8-12.8v-31.3c0-7,5.8-12.8,12.8-12.8H3082c7,0,12.8,5.8,12.8,12.8
		v31.3C3094.8,1143.6,3089,1149.4,3082,1149.4z"/>
</g>
<path fill="#FFFFFF" d="M1888.7,944.5c0,0,104.1-17.1,145.8,85c0,0,2.6-123.7-146.9-117.5C1887.5,912,1836.8,947.2,1888.7,944.5z"/>
<circle opacity="0.98" fill="#FCFCFC" enable-background="new    " cx="1811.5" cy="951.9" r="96.7"/>
<g opacity="0.93">
	<path fill="#F2F2F2" d="M3193.8,1192.5h417.1c3.9,0,7.1-3.2,7.1-7.1v-79c0-3.9-3.2-7.1-7.1-7.1h-417.1c-3.9,0-7.1,3.2-7.1,7.1v79
		C3186.7,1189.2,3189.9,1192.5,3193.8,1192.5z"/>
	<circle fill="#F2F2F2" cx="3596.7" cy="1073.9" r="118.5"/>
	
		<ellipse transform="matrix(0.9542 0.2991 -0.2991 0.9542 461.3676 -986.4313)" fill="#F2F2F2" cx="3453.1" cy="1014" rx="143.6" ry="178.4"/>
	
		<ellipse transform="matrix(0.9827 -0.1853 0.1853 0.9827 -130.6996 629.5364)" fill="#F2F2F2" cx="3302.7" cy="1014" rx="127.6" ry="147.7"/>
	<ellipse fill="#F2F2F2" cx="3200.4" cy="1074.6" rx="131.2" ry="118.7"/>
	<path fill="#FFFFFF" d="M3502.4,859.5c0,0,24,17.5,41,41c11.2,15.3,13.3,32.2,16.2,50.6c0,0,6.9,18.5,18.7,3.2
		c0,0,8.5-10.3-20.7-50.8C3545.9,887,3529,869.8,3502.4,859.5z"/>
	<path fill="#FFFFFF" d="M3624.3,979.5c0,0,24,17.5,41,41c11.2,15.3,13.3,32.2,16.2,50.6c0,0,6.9,18.5,18.7,3.2
		c0,0,8.5-10.3-20.7-50.8C3667.7,1007,3650.8,989.8,3624.3,979.5z"/>
</g>
</svg>
