<?xml version="1.0" encoding="utf-8"?>
<!-- Generator: Adobe Illustrator 18.1.1, SVG Export Plug-In . SVG Version: 6.00 Build 0)  -->
<!DOCTYPE svg PUBLIC "-//W3C//DTD SVG 1.1//EN" "http://www.w3.org/Graphics/SVG/1.1/DTD/svg11.dtd">
<svg version="1.1" id="Layer_1" xmlns="http://www.w3.org/2000/svg" xmlns:xlink="http://www.w3.org/1999/xlink" x="0px" y="0px"
	 width="4014.3px" height="1000px" viewBox="188.5 51 4014.3 1000" enable-background="new 188.5 51 4014.3 1000"
	 xml:space="preserve">
<g>
	<g>
		<circle fill="#F4F4F4" cx="731.3" cy="927" r="215.2"/>
	</g>
	<path fill="#EAEAEA" d="M536.1,1017.6c0,0,314.7,111.3,381.6-198.3c0,0,53,80.2,15.1,183.5c0,0-24.8,81.7-107.8,118
		c0,0-93.3,53.4-197.8-5.5C627.2,1115.4,562.1,1082.1,536.1,1017.6z"/>
</g>
<g>
	<circle fill="#F4F4F4" cx="145.1" cy="1054.2" r="229.6"/>
</g>
<path fill="#EAEAEA" d="M-73.8,1157.6c0,0,335.7,118.7,407.1-211.5c0,0,56.5,85.6,16.1,195.8c0,0-26.4,87.2-115,125.9
	c0,0-99.5,56.9-211-5.8C23.4,1261.9-46,1226.4-73.8,1157.6z"/>
<g>
	<g>
		<circle fill="#F4F4F4" cx="364" cy="930" r="258.6"/>
	</g>
	<path fill="#EAEAEA" d="M129.4,1038.9c0,0,378.1,133.7,458.5-238.2c0,0,63.6,96.4,18.1,220.5c0,0-29.7,98.2-129.5,141.8
		c0,0-112,64.1-237.7-6.6C238.8,1156.3,160.7,1116.4,129.4,1038.9z"/>
</g>
<path fill="#EAEAEA" d="M790.6,1136.5H210c-11.8,0-21.5-9.7-21.5-21.5v-39.3c0-11.8,9.7-21.5,21.5-21.5h580.6
	c11.8,0,21.5,9.7,21.5,21.5v39.3C812.1,1126.8,802.4,1136.5,790.6,1136.5z"/>
<circle opacity="0.98" fill="#FCFCFC" enable-background="new    " cx="1272" cy="910.4" r="221.1"/>
<g opacity="0.93">
	<path fill="#F2F2F2" d="M2282,1227.5h-701.6c-6.6,0-12-5.4-12-12v-132.9c0-6.6,5.4-12,12-12H2282c6.6,0,12,5.4,12,12v132.9
		C2294,1222.1,2288.6,1227.5,2282,1227.5z"/>
	<circle fill="#F2F2F2" cx="1604.4" cy="1028.2" r="199.4"/>
	
		<ellipse transform="matrix(-0.2991 -0.9542 0.9542 -0.2991 1513.0621 2966.1467)" fill="#F2F2F2" cx="1845.9" cy="927.4" rx="300.1" ry="241.5"/>
	
		<ellipse transform="matrix(0.1853 -0.9827 0.9827 0.1853 798.6061 2818.0444)" fill="#F2F2F2" cx="2098.8" cy="927.4" rx="248.5" ry="214.6"/>
	<ellipse fill="#F2F2F2" cx="2270.9" cy="1029.3" rx="220.7" ry="199.7"/>
	<path fill="#FFFFFF" d="M1762.9,667.4c0,0-40.3,29.4-69,69c-18.8,25.8-22.3,54.1-27.2,85.1c0,0-11.6,31.1-31.5,5.4
		c0,0-14.3-17.3,34.8-85.5C1689.8,713.8,1718.3,684.8,1762.9,667.4z"/>
	<path fill="#FFFFFF" d="M1557.9,869.4c0,0-40.3,29.4-69,69c-18.8,25.8-22.3,54.1-27.2,85.1c0,0-11.6,31.1-31.5,5.4
		c0,0-14.3-17.3,34.8-85.5C1484.9,915.7,1513.4,886.7,1557.9,869.4z"/>
</g>
<circle opacity="0.98" fill="#FCFCFC" enable-background="new    " cx="1036.2" cy="930.5" r="158.6"/>
<g>
	<g>
		<g>
			<circle fill="#FFFFFF" cx="3187.2" cy="874.4" r="222.8"/>
		</g>
		<path fill="#E5E5E5" d="M2985.1,968.2c0,0,325.7,115.2,395-205.2c0,0,54.8,83,15.6,189.9c0,0-25.6,84.6-111.6,122.1
			c0,0-96.5,55.2-204.8-5.7C3079.4,1069.4,3012.1,1034.9,2985.1,968.2z"/>
	</g>
	<g>
		<g>
			<circle fill="#FFFFFF" cx="2898.2" cy="766.8" r="331.1"/>
		</g>
		<path fill="#E5E5E5" d="M2597.8,906.2c0,0,484.2,171.2,587.1-305c0,0,81.5,123.4,23.2,282.3c0,0-38.1,125.7-165.8,181.5
			c0,0-143.5,82.1-304.3-8.4C2738,1056.6,2637.9,1005.4,2597.8,906.2z"/>
	</g>
	<g>
		<circle fill="#FFFFFF" cx="2583.1" cy="830.2" r="266.8"/>
	</g>
	<path fill="#E5E5E5" d="M2341,942.5c0,0,390.2,138,473.2-245.8c0,0,65.7,99.5,18.7,227.5c0,0-30.7,101.3-133.7,146.3
		c0,0-115.6,66.2-245.3-6.8C2454,1063.7,2373.3,1022.4,2341,942.5z"/>
	<path fill="#E5E5E5" d="M3225.8,1099.1H2544c-11.8,0-21.5-9.7-21.5-21.5v-52.7c0-11.8,9.7-21.5,21.5-21.5h681.8
		c11.8,0,21.5,9.7,21.5,21.5v52.7C3247.3,1089.4,3237.6,1099.1,3225.8,1099.1z"/>
</g>
<path fill="#FFFFFF" d="M1218.5,754.4c0,0,175.1-28.7,245.2,142.9c0,0,4.4-208-247.1-197.6C1216.6,699.7,1131.2,759,1218.5,754.4z"
	/>
<circle opacity="0.98" fill="#FCFCFC" enable-background="new    " cx="1088.8" cy="766.8" r="162.7"/>
<g opacity="0.93">
	<path fill="#F2F2F2" d="M3413.9,1171.5h701.6c6.6,0,12-5.4,12-12v-132.9c0-6.6-5.4-12-12-12h-701.6c-6.6,0-12,5.4-12,12v132.9
		C3401.9,1166.1,3407.3,1171.5,3413.9,1171.5z"/>
	<circle fill="#F2F2F2" cx="4091.5" cy="972.1" r="199.4"/>
	
		<ellipse transform="matrix(-0.2991 0.9542 -0.9542 -0.2991 5833.0654 -2541.771)" fill="#F2F2F2" cx="3850" cy="871.4" rx="300.1" ry="241.5"/>
	
		<ellipse transform="matrix(0.1853 0.9827 -0.9827 0.1853 3786.6924 -2824.8772)" fill="#F2F2F2" cx="3597" cy="871.3" rx="248.5" ry="214.6"/>
	<ellipse fill="#F2F2F2" cx="3425" cy="973.2" rx="220.7" ry="199.7"/>
	<path fill="#FFFFFF" d="M3933,611.4c0,0,40.3,29.4,69,69c18.8,25.8,22.3,54.1,27.2,85.1c0,0,11.6,31.1,31.5,5.4
		c0,0,14.3-17.3-34.8-85.5C4006.1,657.7,3977.6,628.7,3933,611.4z"/>
	<path fill="#FFFFFF" d="M4138,813.3c0,0,40.3,29.4,69,69c18.8,25.8,22.3,54.1,27.2,85.1c0,0,11.6,31.1,31.5,5.4
		c0,0,14.3-17.3-34.8-85.5C4211,859.6,4182.5,830.7,4138,813.3z"/>
</g>
</svg>
