<?xml version="1.0" encoding="utf-8"?>
<!-- Generator: Adobe Illustrator 18.1.1, SVG Export Plug-In . SVG Version: 6.00 Build 0)  -->
<!DOCTYPE svg PUBLIC "-//W3C//DTD SVG 1.1//EN" "http://www.w3.org/Graphics/SVG/1.1/DTD/svg11.dtd">
<svg version="1.1" id="Layer_1" xmlns="http://www.w3.org/2000/svg" xmlns:xlink="http://www.w3.org/1999/xlink" x="0px" y="0px"
	 width="3065.8px" height="857.1px" viewBox="0 0 3065.8 857.1" enable-background="new 0 0 3065.8 857.1" xml:space="preserve">
<g opacity="0.42">
	<path fill="#F3F3F3" d="M1120.6,510.6h-110.8c-1,0-1.9-0.9-1.9-1.9v-21c0-1,0.9-1.9,1.9-1.9h110.8c1,0,1.9,0.9,1.9,1.9v21
		C1122.5,509.7,1121.7,510.6,1120.6,510.6z"/>
	<circle fill="#F3F3F3" cx="1013.6" cy="479.1" r="31.5"/>
	
		<ellipse transform="matrix(-0.9542 0.2991 -0.2991 -0.9542 2193.9285 590.591)" fill="#F3F3F3" cx="1051.8" cy="463.2" rx="38.1" ry="47.4"/>
	
		<ellipse transform="matrix(-0.9827 -0.1853 0.1853 -0.9827 2078.6738 1120.6533)" fill="#F3F3F3" cx="1091.7" cy="463.2" rx="33.9" ry="39.2"/>
	<ellipse fill="#F3F3F3" cx="1118.9" cy="479.3" rx="34.8" ry="31.5"/>
	<path fill="#FFFFFF" d="M1038.7,422.1c0,0-6.4,4.6-10.9,10.9c-3,4.1-3.5,8.5-4.3,13.4c0,0-1.8,4.9-5,0.9c0,0-2.3-2.7,5.5-13.5
		C1027.1,429.5,1031.6,424.9,1038.7,422.1z"/>
	<path fill="#FFFFFF" d="M1006.3,454c0,0-6.4,4.6-10.9,10.9c-3,4.1-3.5,8.5-4.3,13.4c0,0-1.8,4.9-5,0.9c0,0-2.3-2.7,5.5-13.5
		C994.8,461.3,999.3,456.8,1006.3,454z"/>
</g>
<g opacity="0.2">
	<path fill="#F3F3F3" d="M1419,151.2h63.6c0.6,0,1.1-0.5,1.1-1.1v-12c0-0.6-0.5-1.1-1.1-1.1H1419c-0.6,0-1.1,0.5-1.1,1.1v12
		C1417.9,150.7,1418.4,151.2,1419,151.2z"/>
	<circle fill="#F3F3F3" cx="1480.3" cy="133.1" r="18.1"/>
	
		<ellipse transform="matrix(0.9542 0.2991 -0.2991 0.9542 103.8544 -430.5618)" fill="#F3F3F3" cx="1458.5" cy="124" rx="21.9" ry="27.2"/>
	
		<ellipse transform="matrix(0.9827 -0.1853 0.1853 0.9827 1.8842 268.1499)" fill="#F3F3F3" cx="1435.5" cy="124" rx="19.4" ry="22.5"/>
	<ellipse fill="#F3F3F3" cx="1420" cy="133.2" rx="20" ry="18.1"/>
	<path fill="#FFFFFF" d="M1466,100.4c0,0,3.7,2.7,6.3,6.3c1.7,2.3,2,4.9,2.5,7.7c0,0,1.1,2.8,2.9,0.5c0,0,1.3-1.6-3.2-7.7
		C1472.6,104.6,1470,102,1466,100.4z"/>
	<path fill="#FFFFFF" d="M1484.6,118.7c0,0,3.7,2.7,6.3,6.3c1.7,2.3,2,4.9,2.5,7.7c0,0,1.1,2.8,2.9,0.5c0,0,1.3-1.6-3.2-7.7
		C1491.2,122.9,1488.6,120.3,1484.6,118.7z"/>
</g>
<g opacity="0.41">
	<path fill="#F3F3F3" d="M1905.6,524.8h159c1.5,0,2.7-1.1,2.7-2.4v-26.8c0-1.3-1.2-2.4-2.7-2.4h-159c-1.5,0-2.7,1.1-2.7,2.4v26.8
		C1902.9,523.7,1904.1,524.8,1905.6,524.8z"/>
	<ellipse fill="#F3F3F3" cx="2059.2" cy="484.5" rx="45.2" ry="40.3"/>
	<path fill="#F3F3F3" d="M2056.7,478.7c-11.2,31.9-43.7,51.3-72.6,43.2c-28.8-8.1-43.1-40.5-31.9-72.4s43.7-51.3,72.6-43.2
		S2067.9,446.8,2056.7,478.7z"/>
	<path fill="#F3F3F3" d="M1994.9,456.1c5.8,27.2-11,52.9-37.4,57.3c-26.4,4.4-52.5-14-58.2-41.3c-5.8-27.2,11-52.9,37.4-57.3
		C1963.1,410.4,1989.1,428.9,1994.9,456.1z"/>
	<ellipse fill="#F3F3F3" cx="1908.2" cy="484.7" rx="50" ry="40.3"/>
	<path fill="#FFFFFF" d="M2023.3,411.7c0,0,9.1,5.9,15.6,13.9c4.3,5.2,5.1,10.9,6.2,17.2c0,0,2.6,6.3,7.1,1.1c0,0,3.2-3.5-7.9-17.3
		C2039.8,421,2033.4,415.2,2023.3,411.7z"/>
	<path fill="#FFFFFF" d="M2069.7,452.4c0,0,9.1,5.9,15.6,13.9c4.3,5.2,5.1,10.9,6.2,17.2c0,0,2.6,6.3,7.1,1.1c0,0,3.2-3.5-7.9-17.3
		C2086.2,461.8,2079.8,455.9,2069.7,452.4z"/>
</g>
<g opacity="0.29">
	<path fill="#F3F3F3" d="M2480.8,337.3h-91.6c-0.9,0-1.6-0.7-1.6-1.6v-17.4c0-0.9,0.7-1.6,1.6-1.6h91.6c0.9,0,1.6,0.7,1.6,1.6v17.4
		C2482.4,336.6,2481.7,337.3,2480.8,337.3z"/>
	<circle fill="#F3F3F3" cx="2392.4" cy="311.3" r="26"/>
	
		<ellipse transform="matrix(-0.9542 0.2991 -0.2991 -0.9542 4825.979 -142.3277)" fill="#F3F3F3" cx="2423.9" cy="298.2" rx="31.5" ry="39.2"/>
	
		<ellipse transform="matrix(-0.9827 -0.1853 0.1853 -0.9827 4816.0288 1046.4141)" fill="#F3F3F3" cx="2456.9" cy="298.2" rx="28" ry="32.4"/>
	<ellipse fill="#F3F3F3" cx="2479.4" cy="311.5" rx="28.8" ry="26.1"/>
	<path fill="#FFFFFF" d="M2413,264.2c0,0-5.3,3.8-9,9c-2.5,3.4-2.9,7.1-3.6,11.1c0,0-1.5,4.1-4.1,0.7c0,0-1.9-2.3,4.5-11.2
		C2403.5,270.3,2407.2,266.5,2413,264.2z"/>
	<path fill="#FFFFFF" d="M2386.3,290.6c0,0-5.3,3.8-9,9c-2.5,3.4-2.9,7.1-3.6,11.1c0,0-1.5,4.1-4.1,0.7c0,0-1.9-2.3,4.5-11.2
		C2376.8,296.6,2380.5,292.8,2386.3,290.6z"/>
</g>
<g opacity="0.22">
	<path fill="#F3F3F3" d="M2932.6,163.2h60.1c0.6,0,1-0.5,1-1.1v-11.9c0-0.6-0.5-1.1-1-1.1h-60.1c-0.6,0-1,0.5-1,1.1v11.9
		C2931.5,162.7,2932,163.2,2932.6,163.2z"/>
	<ellipse fill="#F3F3F3" cx="2990.6" cy="145.3" rx="17.1" ry="17.9"/>
	<path fill="#F3F3F3" d="M2989.7,142.8c-4.2,14.2-16.5,22.8-27.4,19.2s-16.3-18-12.1-32.2s16.5-22.8,27.4-19.2
		C2988.6,114.2,2994,128.6,2989.7,142.8z"/>
	<path fill="#F3F3F3" d="M2966.3,132.7c2.2,12.1-4.1,23.5-14.1,25.5c-10,2-19.8-6.2-22-18.3c-2.2-12.1,4.1-23.5,14.1-25.5
		S2964.2,120.6,2966.3,132.7z"/>
	<ellipse fill="#F3F3F3" cx="2933.5" cy="145.4" rx="18.9" ry="17.9"/>
	<path fill="#FFFFFF" d="M2977.1,113c0,0,3.5,2.6,5.9,6.2c1.6,2.3,1.9,4.9,2.3,7.6c0,0,1,2.8,2.7,0.5c0,0,1.2-1.6-3-7.7
		C2983.3,117.1,2980.9,114.5,2977.1,113z"/>
	<path fill="#FFFFFF" d="M2994.6,131.1c0,0,3.5,2.6,5.9,6.2c1.6,2.3,1.9,4.9,2.3,7.6c0,0,1,2.8,2.7,0.5c0,0,1.2-1.6-3-7.7
		C3000.9,135.2,2998.4,132.6,2994.6,131.1z"/>
</g>
<g opacity="0.26">
	<path fill="#F3F3F3" d="M78.8,317.3h62.8c0.6,0,1.1-0.5,1.1-1.1v-12.5c0-0.6-0.5-1.1-1.1-1.1H78.8c-0.6,0-1.1,0.5-1.1,1.1v12.5
		C77.7,316.8,78.2,317.3,78.8,317.3z"/>
	<ellipse fill="#F3F3F3" cx="139.5" cy="298.6" rx="17.8" ry="18.7"/>
	<path fill="#F3F3F3" d="M138.5,295.9c-4.4,14.8-17.3,23.8-28.7,20.1s-17-18.8-12.6-33.6c4.4-14.8,17.3-23.8,28.7-20.1
		S142.9,281.1,138.5,295.9z"/>
	<path fill="#F3F3F3" d="M114.1,285.4c2.3,12.6-4.3,24.6-14.8,26.6s-20.7-6.5-23-19.2c-2.3-12.6,4.3-24.6,14.8-26.6
		S111.8,272.8,114.1,285.4z"/>
	<ellipse fill="#F3F3F3" cx="79.8" cy="298.7" rx="19.8" ry="18.7"/>
	<path fill="#FFFFFF" d="M125.3,264.8c0,0,3.6,2.8,6.2,6.5c1.7,2.4,2,5.1,2.4,8c0,0,1,2.9,2.8,0.5c0,0,1.3-1.6-3.1-8
		C131.8,269.1,129.3,266.4,125.3,264.8z"/>
	<path fill="#FFFFFF" d="M143.6,283.7c0,0,3.6,2.8,6.2,6.5c1.7,2.4,2,5.1,2.4,8c0,0,1,2.9,2.8,0.5c0,0,1.3-1.6-3.1-8
		C150.2,288,147.6,285.3,143.6,283.7z"/>
</g>
</svg>
