<?xml version="1.0" encoding="utf-8"?>
<!-- Generator: Adobe Illustrator 18.1.1, SVG Export Plug-In . SVG Version: 6.00 Build 0)  -->
<!DOCTYPE svg PUBLIC "-//W3C//DTD SVG 1.1//EN" "http://www.w3.org/Graphics/SVG/1.1/DTD/svg11.dtd">
<svg version="1.1" id="Layer_1" xmlns="http://www.w3.org/2000/svg" xmlns:xlink="http://www.w3.org/1999/xlink" x="0px" y="0px"
	 viewBox="0 0 870 300" enable-background="new 0 0 870 300" xml:space="preserve">
<rect x="0" y="0" fill="#0F0E0F" width="870" height="300"/>
<g>
	<g>
		<line fill="none" stroke="#FFFFFF" stroke-miterlimit="10" x1="1166" y1="368.2" x2="1170.7" y2="371.9"/>
		
			<line fill="none" stroke="#FFFFFF" stroke-miterlimit="10" stroke-dasharray="11.7451,11.7451" x1="1180" y1="379.1" x2="1193.9" y2="389.9"/>
		<line fill="none" stroke="#FFFFFF" stroke-miterlimit="10" x1="1198.6" y1="393.5" x2="1203.3" y2="397.2"/>
	</g>
</g>
<ellipse opacity="0.22" fill="#2B2A27" cx="113.3" cy="189.4" rx="95.7" ry="94.5"/>
<g>
	<rect x="59.2" y="156.7" fill="none" width="108.3" height="24.3"/>
	<path fill="#FFFFFF" d="M64.6,170.7h2v-13.1h-2v-0.8h4.9v0.8h-2v13.1h2v0.8h-4.9V170.7z"/>
	<path fill="#FFFFFF" d="M71.7,170.7h2v-13.1h-2v-0.8h6.2c1.3,0,2.2,0.1,3.2,0.4c2.8,0.9,4.5,3.5,4.5,7c0,3.7-1.8,6.2-4.9,7.1
		c-0.9,0.3-1.8,0.3-2.8,0.3h-6.2V170.7z M77.8,170.7c1,0,1.9-0.1,2.7-0.3c2.5-0.8,4.1-3,4.1-6.2c0-3.1-1.5-5.4-3.9-6.2
		c-0.9-0.3-1.8-0.4-2.9-0.4h-3.1v13.1H77.8z"/>
	<path fill="#FFFFFF" d="M87.9,170.7h2v-13.1h-2v-0.8h10.2v2.8h-0.9v-1.9h-6.4v6.1h5.9v0.8h-5.9v6.2h6.8v-2h0.9v2.9H87.9V170.7z"/>
	<path fill="#FFFFFF" d="M100.9,170.7h2v-13.1h-2v-0.8h2.8l9.2,12.7c0.2,0.3,0.4,0.8,0.4,0.8h0c0,0-0.1-0.6-0.1-0.9v-11.7h-2v-0.8
		h4.9v0.8h-2v14h-0.8l-9.2-12.7c-0.2-0.3-0.4-0.8-0.4-0.8h0c0,0,0.1,0.6,0.1,0.9v11.7h2v0.8h-4.9V170.7z"/>
	<path fill="#FFFFFF" d="M121.6,170.7h2v-13.1h-4.7v2.5H118v-3.3h12.2v3.3h-0.9v-2.5h-4.7v13.1h2v0.8h-4.9V170.7z"/>
	<path fill="#FFFFFF" d="M132,170.7h2v-13.1h-2v-0.8h4.9v0.8h-2v13.1h2v0.8H132V170.7z"/>
	<path fill="#FFFFFF" d="M139.2,170.7h2v-13.1h-2v-0.8h9.7v2.9H148v-2h-5.9v6.2h5.7v0.8h-5.7v6.1h2.1v0.8h-5V170.7z"/>
	<path fill="#FFFFFF" d="M154.1,170.7h2v-5.6l-4.6-7.5H150v-0.8h4.3v0.8h-1.8l3.6,6.1c0.1,0.2,0.3,0.5,0.3,0.5h0
		c0,0,0.1-0.3,0.3-0.5l3.7-6.1h-1.8v-0.8h4.3v0.8h-1.5l-4.6,7.5v5.6h2v0.8h-4.9V170.7z"/>
</g>
<g>
	<rect x="32.1" y="185.5" fill="none" width="162.6" height="71.9"/>
	<path fill="#FFFFFF" d="M95.1,186.4h2.1c1,0,2.5,0.1,3.8,1.2c0.9,0.8,1.8,2.1,1.8,4c0,2.2-1.1,3.3-1.8,4c-0.9,0.8-1.9,1.2-3.8,1.2
		h-2.1V186.4z M96.2,195.7h1c0.8,0,2-0.1,3-0.9c0.8-0.7,1.4-1.7,1.4-3.2c0-2.5-1.7-4.1-4.4-4.1h-1V195.7z"/>
	<path fill="#FFFFFF" d="M110.3,195.1c-0.2,0.4-0.5,0.7-0.8,1c-0.6,0.5-1.3,0.8-2.1,0.8c-1.6,0-3.2-1-3.2-3.4c0-1.9,1.2-3.4,3.1-3.4
		c1.3,0,2.1,0.6,2.4,1.2c0.4,0.6,0.6,1.6,0.6,2.4h-5c0,1.3,0.9,2.2,2.1,2.2c0.5,0,0.9-0.2,1.3-0.5c0.3-0.2,0.5-0.6,0.7-0.9
		L110.3,195.1z M109.2,192.9c-0.2-1-0.9-1.7-1.9-1.7c-0.9,0-1.7,0.7-1.9,1.7H109.2z"/>
	<path fill="#FFFFFF" d="M113.2,191.4v5.4h-1.1v-5.4h-0.6v-1h0.6v-2.4c0-0.7,0-1.2,0.4-1.7c0.3-0.4,0.9-0.9,2.1-0.9
		c0.5,0,1.6,0.1,2.1,0.9c0.4,0.6,0.4,1.2,0.4,1.7v0.3H116v-0.3c0-0.2,0-0.7-0.2-1c-0.2-0.3-0.5-0.5-1.2-0.5c-0.6,0-1,0.2-1.2,0.5
		c-0.2,0.3-0.2,0.7-0.2,1v2.4h1.6v1H113.2z M117.1,190.3v6.4H116v-6.4H117.1z"/>
	<path fill="#FFFFFF" d="M119.2,190.3h1.1v0.7c0.2-0.3,0.8-0.9,1.8-0.9c0.8,0,1.5,0.3,1.8,0.9c0.3,0.5,0.4,1,0.4,1.7v4h-1.1v-4
		c0-0.4,0-0.8-0.3-1.2c-0.2-0.3-0.6-0.5-1.1-0.5c-0.4,0-0.8,0.1-1.1,0.5c-0.4,0.5-0.5,1.3-0.5,1.7v3.4h-1.1V190.3z"/>
	<path fill="#FFFFFF" d="M132.2,195.1c-0.2,0.4-0.5,0.7-0.8,1c-0.6,0.5-1.3,0.8-2.1,0.8c-1.6,0-3.2-1-3.2-3.4c0-1.9,1.2-3.4,3.1-3.4
		c1.3,0,2.1,0.6,2.4,1.2c0.4,0.6,0.6,1.6,0.6,2.4h-5c0,1.3,0.9,2.2,2.1,2.2c0.5,0,0.9-0.2,1.3-0.5c0.3-0.2,0.5-0.6,0.7-0.9
		L132.2,195.1z M131.1,192.9c-0.2-1-0.9-1.7-1.9-1.7c-0.9,0-1.7,0.7-1.9,1.7H131.1z"/>
	<path fill="#FFFFFF" d="M80.9,211.4c0,0.9,0,1.8,0.8,2.5c0.4,0.4,1.1,0.6,1.7,0.6c0.6,0,1.3-0.2,1.7-0.6c0.8-0.7,0.8-1.6,0.8-2.5
		v-6.4h1.1v6.7c0,0.9-0.1,1.7-0.7,2.5c-0.6,0.9-1.7,1.4-3,1.4s-2.4-0.5-3-1.4c-0.6-0.8-0.7-1.6-0.7-2.5v-6.7h1.1V211.4z"/>
	<path fill="#FFFFFF" d="M89.5,209h1.1v0.7c0.2-0.3,0.8-0.9,1.8-0.9c0.8,0,1.5,0.3,1.8,0.9c0.3,0.5,0.4,1,0.4,1.7v4h-1.1v-4
		c0-0.4,0-0.8-0.3-1.2c-0.2-0.3-0.6-0.5-1.1-0.5c-0.4,0-0.8,0.1-1.1,0.5c-0.4,0.5-0.5,1.3-0.5,1.7v3.4h-1.1V209z"/>
	<path fill="#FFFFFF" d="M101.8,204.1h1.1v11.3h-1.1v-0.9c-0.4,0.5-1.1,1.1-2.2,1.1c-1.6,0-3.1-1.1-3.1-3.4c0-2.2,1.5-3.4,3.1-3.4
		c1.2,0,1.9,0.7,2.2,1.1V204.1z M97.6,212.2c0,1.4,0.8,2.4,2.1,2.4c1.4,0,2.1-1.1,2.1-2.4c0-1.7-1.1-2.4-2.1-2.4
		C98.6,209.8,97.6,210.6,97.6,212.2z"/>
	<path fill="#FFFFFF" d="M110.7,213.8c-0.2,0.4-0.5,0.7-0.8,1c-0.6,0.5-1.3,0.8-2.1,0.8c-1.6,0-3.2-1-3.2-3.4c0-1.9,1.2-3.4,3.1-3.4
		c1.3,0,2.1,0.6,2.4,1.2c0.4,0.6,0.6,1.6,0.6,2.4h-5c0,1.3,0.9,2.2,2.1,2.2c0.5,0,0.9-0.2,1.3-0.5c0.3-0.2,0.5-0.6,0.7-0.9
		L110.7,213.8z M109.6,211.5c-0.2-1-0.9-1.7-1.9-1.7c-0.9,0-1.7,0.7-1.9,1.7H109.6z"/>
	<path fill="#FFFFFF" d="M112.5,209h1.1v0.7c0.1-0.2,0.6-0.9,1.5-0.9c0.3,0,0.7,0.1,1,0.3l-0.5,1c-0.2-0.2-0.5-0.2-0.7-0.2
		c-0.5,0-0.7,0.2-0.9,0.4c-0.2,0.2-0.4,0.7-0.4,1.7v3.4h-1.1V209z"/>
	<path fill="#FFFFFF" d="M119.5,210.5c-0.2-0.4-0.5-0.7-0.9-0.7c-0.4,0-0.8,0.2-0.8,0.7c0,0.5,0.3,0.6,1,0.9c0.9,0.4,1.4,0.7,1.6,1
		c0.3,0.3,0.3,0.7,0.3,1c0,1.4-1,2.1-2.2,2.1c-0.3,0-1.7,0-2.3-1.6l1-0.4c0.1,0.3,0.5,1.1,1.3,1.1c0.7,0,1.1-0.5,1.1-1
		c0-0.6-0.4-0.8-1-1.1c-0.8-0.3-1.3-0.6-1.6-0.9c-0.2-0.3-0.3-0.6-0.3-0.9c0-1.1,0.8-1.8,1.9-1.8c0.3,0,1.3,0.1,1.8,1.2L119.5,210.5
		z"/>
	<path fill="#FFFFFF" d="M123.5,210v5.4h-1.1V210h-0.7v-1h0.7v-2.3h1.1v2.3h1.1v1H123.5z"/>
	<path fill="#FFFFFF" d="M130.6,209h1.1v6.4h-1.1v-0.9c-0.4,0.5-1.1,1.1-2.2,1.1c-1.6,0-3.1-1.1-3.1-3.4c0-2.2,1.5-3.4,3.1-3.4
		c1.2,0,1.9,0.7,2.2,1.1V209z M126.4,212.2c0,1.4,0.8,2.4,2.1,2.4c1.4,0,2.1-1.1,2.1-2.4c0-1.7-1.1-2.4-2.1-2.4
		C127.4,209.8,126.4,210.6,126.4,212.2z"/>
	<path fill="#FFFFFF" d="M133.8,209h1.1v0.7c0.2-0.3,0.8-0.9,1.8-0.9c0.8,0,1.5,0.3,1.8,0.9c0.3,0.5,0.4,1,0.4,1.7v4h-1.1v-4
		c0-0.4,0-0.8-0.3-1.2c-0.2-0.3-0.6-0.5-1.1-0.5c-0.4,0-0.8,0.1-1.1,0.5c-0.4,0.5-0.5,1.3-0.5,1.7v3.4h-1.1V209z"/>
	<path fill="#FFFFFF" d="M146.1,204.1h1.1v11.3h-1.1v-0.9c-0.4,0.5-1.1,1.1-2.2,1.1c-1.6,0-3.1-1.1-3.1-3.4c0-2.2,1.5-3.4,3.1-3.4
		c1.2,0,1.9,0.7,2.2,1.1V204.1z M141.9,212.2c0,1.4,0.8,2.4,2.1,2.4c1.4,0,2.1-1.1,2.1-2.4c0-1.7-1.1-2.4-2.1-2.4
		C142.9,209.8,141.9,210.6,141.9,212.2z"/>
	<path fill="#FFFFFF" d="M88.7,224.8h-4.2v3.1h4.1v1.1h-4.1v4h4.2v1.1h-5.4v-10.4h5.4V224.8z"/>
	<path fill="#FFFFFF" d="M90.5,227.6h1.1v0.7c0.4-0.5,0.9-0.8,1.6-0.8c1.2,0,1.6,0.8,1.8,1c0.6-1,1.5-1,1.9-1c1.9,0,2.1,1.6,2.1,2.5
		v4.1h-1.1v-3.9c0-0.7-0.1-1.7-1.1-1.7c-1.3,0-1.4,1.2-1.4,2v3.6h-1.1v-3.8c0-0.5,0-1.8-1.2-1.8c-1.3,0-1.4,1.3-1.4,2.1v3.5h-1.1
		V227.6z"/>
	<path fill="#FFFFFF" d="M102.3,237.6h-1.1v-10h1.1v0.9c0.8-0.9,1.7-1.1,2.2-1.1c2,0,3.1,1.7,3.1,3.4c0,1.8-1.1,3.4-3.1,3.4
		c-1,0-1.8-0.5-2.3-1.1V237.6z M106.5,230.9c0-1.6-1.1-2.4-2.1-2.4c-1,0-2.1,0.9-2.1,2.4c0,1.3,0.8,2.4,2.2,2.4
		C105.7,233.2,106.5,232.2,106.5,230.9z"/>
	<path fill="#FFFFFF" d="M114.2,227.6h1.1v6.4h-1.1v-0.9c-0.4,0.5-1.1,1.1-2.2,1.1c-1.6,0-3.1-1.1-3.1-3.4c0-2.2,1.5-3.4,3.1-3.4
		c1.2,0,1.9,0.7,2.2,1.1V227.6z M110.1,230.8c0,1.4,0.8,2.4,2.1,2.4c1.4,0,2.1-1.1,2.1-2.4c0-1.7-1.1-2.4-2.1-2.4
		C111.1,228.4,110.1,229.3,110.1,230.8z"/>
	<path fill="#FFFFFF" d="M118.6,228.6v5.4h-1.1v-5.4h-0.7v-1h0.7v-2.3h1.1v2.3h1.1v1H118.6z"/>
	<path fill="#FFFFFF" d="M120.8,222.7h1.1v5.6c0.2-0.3,0.8-0.9,1.8-0.9c0.8,0,1.5,0.3,1.8,0.9c0.3,0.5,0.4,1,0.4,1.7v4h-1.1v-4
		c0-0.4,0-0.8-0.3-1.2c-0.2-0.3-0.6-0.5-1.1-0.5c-0.4,0-0.8,0.1-1.1,0.5c-0.4,0.5-0.5,1.3-0.5,1.7v3.4h-1.1V222.7z"/>
	<path fill="#FFFFFF" d="M128.7,224.4c0.4,0,0.8,0.4,0.8,0.8c0,0.4-0.4,0.8-0.8,0.8c-0.4,0-0.8-0.4-0.8-0.8
		C127.9,224.7,128.2,224.4,128.7,224.4z M129.2,227.6v6.4h-1.1v-6.4H129.2z"/>
	<path fill="#FFFFFF" d="M132.6,233h4.5v1h-6.7l4.7-5.4h-3.8v-1h6L132.6,233z"/>
	<path fill="#FFFFFF" d="M144,232.4c-0.2,0.4-0.5,0.7-0.8,1c-0.6,0.5-1.3,0.8-2.1,0.8c-1.6,0-3.2-1-3.2-3.4c0-1.9,1.2-3.4,3.1-3.4
		c1.3,0,2.1,0.6,2.4,1.2c0.4,0.6,0.6,1.6,0.6,2.4h-5c0,1.3,0.9,2.2,2.1,2.2c0.5,0,0.9-0.2,1.3-0.5c0.3-0.2,0.5-0.6,0.7-0.9
		L144,232.4z M142.9,230.1c-0.2-1-0.9-1.7-1.9-1.7c-0.9,0-1.7,0.7-1.9,1.7H142.9z"/>
</g>
<ellipse opacity="0.22" fill="#2B2A27" cx="274.1" cy="190.3" rx="95.7" ry="94.5"/>
<g>
	<rect x="220" y="156.7" fill="none" width="108.3" height="24.3"/>
	<path fill="#FFFFFF" d="M236.8,170.7h2v-13.1h-2v-0.8h4.9v0.8h-2v13.1h2v0.8h-4.9V170.7z"/>
	<path fill="#FFFFFF" d="M244,170.7h2v-13.1h-2v-0.8h6.2c1.3,0,2.2,0.1,3.2,0.4c2.8,0.9,4.5,3.5,4.5,7c0,3.7-1.8,6.2-4.9,7.1
		c-0.9,0.3-1.8,0.3-2.8,0.3H244V170.7z M250,170.7c1,0,1.9-0.1,2.7-0.3c2.5-0.8,4.1-3,4.1-6.2c0-3.1-1.5-5.4-3.9-6.2
		c-0.9-0.3-1.8-0.4-2.9-0.4h-3.1v13.1H250z"/>
	<path fill="#FFFFFF" d="M260.2,170.7h2v-13.1h-2v-0.8h10.2v2.8h-0.9v-1.9h-6.4v6.1h5.9v0.8h-5.9v6.2h6.8v-2h0.9v2.9h-10.7V170.7z"
		/>
	<path fill="#FFFFFF" d="M272.3,170.7h1.6l5.2-14h1l5.2,14h1.6v0.8h-4.4v-0.8h1.8l-1.6-4.3h-6.3l-1.6,4.3h1.8v0.8h-4.4V170.7z
		 M282.4,165.6l-2.6-6.9c-0.1-0.4-0.2-0.8-0.2-0.8h0c0,0-0.1,0.4-0.2,0.8l-2.6,6.9H282.4z"/>
	<path fill="#FFFFFF" d="M290.3,170.7h2v-13.1h-4.7v2.5h-0.9v-3.3h12.2v3.3h-0.9v-2.5h-4.7v13.1h2v0.8h-4.9V170.7z"/>
	<path fill="#FFFFFF" d="M300.7,170.7h2v-13.1h-2v-0.8h10.2v2.8H310v-1.9h-6.4v6.1h5.9v0.8h-5.9v6.2h6.8v-2h0.9v2.9h-10.7V170.7z"/>
</g>
<g>
	<rect x="193.6" y="188.3" fill="none" width="162.6" height="71.9"/>
	<path fill="#FFFFFF" d="M250.6,189.3c0.7,0,1.7,0,2.5,0.6c0.6,0.4,1.1,1.2,1.1,2.3c0,1.6-1,2.8-2.6,2.9l3.3,4.6h-1.4l-3.2-4.5h-0.3
		v4.5H249v-10.4H250.6z M250.1,194.1h0.7c1.4,0,2.3-0.7,2.3-1.9c0-0.6-0.2-1.1-0.8-1.5c-0.5-0.3-1-0.3-1.5-0.3h-0.7V194.1z"/>
	<path fill="#FFFFFF" d="M261.9,198c-0.2,0.4-0.5,0.7-0.8,1c-0.6,0.5-1.3,0.8-2.1,0.8c-1.6,0-3.2-1-3.2-3.4c0-1.9,1.2-3.4,3.1-3.4
		c1.3,0,2.1,0.6,2.4,1.2c0.4,0.6,0.6,1.6,0.6,2.4h-5c0,1.3,0.9,2.2,2.1,2.2c0.5,0,0.9-0.2,1.3-0.5c0.3-0.2,0.5-0.6,0.7-0.9
		L261.9,198z M260.8,195.7c-0.2-1-0.9-1.7-1.9-1.7c-0.9,0-1.7,0.7-1.9,1.7H260.8z"/>
	<path fill="#FFFFFF" d="M266.3,194.7c-0.2-0.4-0.5-0.7-0.9-0.7c-0.4,0-0.8,0.2-0.8,0.7c0,0.5,0.3,0.6,1,0.9c0.9,0.4,1.4,0.7,1.6,1
		c0.3,0.3,0.3,0.7,0.3,1c0,1.4-1,2.1-2.2,2.1c-0.3,0-1.7,0-2.3-1.6l1-0.4c0.1,0.3,0.5,1.1,1.3,1.1c0.7,0,1.1-0.5,1.1-1
		c0-0.6-0.4-0.8-1-1.1c-0.8-0.3-1.3-0.6-1.6-0.9c-0.2-0.3-0.3-0.6-0.3-0.9c0-1.1,0.8-1.8,1.9-1.8c0.3,0,1.3,0.1,1.8,1.2L266.3,194.7
		z"/>
	<path fill="#FFFFFF" d="M274.8,198c-0.2,0.4-0.5,0.7-0.8,1c-0.6,0.5-1.3,0.8-2.1,0.8c-1.6,0-3.2-1-3.2-3.4c0-1.9,1.2-3.4,3.1-3.4
		c1.3,0,2.1,0.6,2.4,1.2c0.4,0.6,0.6,1.6,0.6,2.4h-5c0,1.3,0.9,2.2,2.1,2.2c0.5,0,0.9-0.2,1.3-0.5c0.3-0.2,0.5-0.6,0.7-0.9
		L274.8,198z M273.7,195.7c-0.2-1-0.9-1.7-1.9-1.7c-0.9,0-1.7,0.7-1.9,1.7H273.7z"/>
	<path fill="#FFFFFF" d="M281.5,193.2h1.1v6.4h-1.1v-0.9c-0.4,0.5-1.1,1.1-2.2,1.1c-1.6,0-3.1-1.1-3.1-3.4c0-2.2,1.5-3.4,3.1-3.4
		c1.2,0,1.9,0.7,2.2,1.1V193.2z M277.3,196.4c0,1.4,0.8,2.4,2.1,2.4c1.4,0,2.1-1.1,2.1-2.4c0-1.7-1.1-2.4-2.1-2.4
		C278.3,194,277.3,194.8,277.3,196.4z"/>
	<path fill="#FFFFFF" d="M284.8,193.2h1.1v0.7c0.1-0.2,0.6-0.9,1.5-0.9c0.3,0,0.7,0.1,1,0.3l-0.5,1c-0.2-0.2-0.5-0.2-0.7-0.2
		c-0.5,0-0.7,0.2-0.9,0.4c-0.2,0.2-0.4,0.7-0.4,1.7v3.4h-1.1V193.2z"/>
	<path fill="#FFFFFF" d="M294,195c-0.6-0.7-1.4-1-2-1c-1.2,0-2.3,0.8-2.3,2.4c0,1.6,1.1,2.4,2.3,2.4c0.7,0,1.5-0.3,2.1-1v1.3
		c-0.7,0.5-1.4,0.7-2.1,0.7c-2,0-3.4-1.4-3.4-3.4c0-2,1.5-3.4,3.4-3.4c1,0,1.7,0.4,2,0.6V195z"/>
	<path fill="#FFFFFF" d="M295.8,188.3h1.1v5.6c0.2-0.3,0.8-0.9,1.8-0.9c0.8,0,1.5,0.3,1.8,0.9c0.3,0.5,0.4,1,0.4,1.7v4h-1.1v-4
		c0-0.4,0-0.8-0.3-1.2c-0.2-0.3-0.6-0.5-1.1-0.5c-0.4,0-0.8,0.1-1.1,0.5c-0.4,0.5-0.5,1.3-0.5,1.7v3.4h-1.1V188.3z"/>
	<path fill="#FFFFFF" d="M246.4,207.9c0.6,0,1.6,0,2.4,0.7c0.3,0.2,0.9,0.9,0.9,2.1c0,0.5-0.1,1.4-1,2c1.4,0.4,2,1.6,2,2.6
		s-0.5,1.8-1.1,2.2c-0.8,0.7-1.8,0.7-2.5,0.7h-2.6v-10.4H246.4z M245.6,212.5h0.9c0.6,0,2-0.1,2-1.7c0-1.7-1.7-1.7-2-1.7h-0.9V212.5
		z M245.6,217.2h1.3c0.7,0,1.3,0,1.8-0.4c0.4-0.3,0.7-0.8,0.7-1.4c0-0.8-0.5-1.3-0.9-1.5c-0.4-0.2-0.9-0.3-1.8-0.3h-1.2V217.2z"/>
	<path fill="#FFFFFF" d="M252.4,211.8h1.1v0.7c0.1-0.2,0.6-0.9,1.5-0.9c0.3,0,0.7,0.1,1,0.3l-0.5,1c-0.2-0.2-0.5-0.2-0.7-0.2
		c-0.5,0-0.7,0.2-0.9,0.4c-0.2,0.2-0.4,0.7-0.4,1.7v3.4h-1.1V211.8z"/>
	<path fill="#FFFFFF" d="M261.7,211.8h1.1v6.4h-1.1v-0.9c-0.4,0.5-1.1,1.1-2.2,1.1c-1.6,0-3.1-1.1-3.1-3.4c0-2.2,1.5-3.4,3.1-3.4
		c1.2,0,1.9,0.7,2.2,1.1V211.8z M257.5,215c0,1.4,0.8,2.4,2.1,2.4c1.4,0,2.1-1.1,2.1-2.4c0-1.7-1.1-2.4-2.1-2.4
		C258.5,212.7,257.5,213.5,257.5,215z"/>
	<path fill="#FFFFFF" d="M265.4,208.6c0.4,0,0.8,0.4,0.8,0.8c0,0.4-0.4,0.8-0.8,0.8c-0.4,0-0.8-0.4-0.8-0.8
		C264.7,209,265,208.6,265.4,208.6z M266,211.8v6.4h-1.1v-6.4H266z"/>
	<path fill="#FFFFFF" d="M268.1,211.8h1.1v0.7c0.2-0.3,0.8-0.9,1.8-0.9c0.8,0,1.5,0.3,1.8,0.9c0.3,0.5,0.4,1,0.4,1.7v4h-1.1v-4
		c0-0.4,0-0.8-0.3-1.2c-0.2-0.3-0.6-0.5-1.1-0.5c-0.4,0-0.8,0.1-1.1,0.5c-0.4,0.5-0.5,1.3-0.5,1.7v3.4h-1.1V211.8z"/>
	<path fill="#FFFFFF" d="M278.1,213.3c-0.2-0.4-0.5-0.7-0.9-0.7c-0.4,0-0.8,0.2-0.8,0.7c0,0.5,0.3,0.6,1,0.9c0.9,0.4,1.4,0.7,1.6,1
		c0.3,0.3,0.3,0.7,0.3,1c0,1.4-1,2.1-2.2,2.1c-0.3,0-1.7,0-2.3-1.6l1-0.4c0.1,0.3,0.5,1.1,1.3,1.1c0.7,0,1.1-0.5,1.1-1
		c0-0.6-0.4-0.8-1-1.1c-0.8-0.3-1.3-0.6-1.6-0.9c-0.2-0.3-0.3-0.6-0.3-0.9c0-1.1,0.8-1.8,1.9-1.8c0.3,0,1.3,0.1,1.8,1.2L278.1,213.3
		z"/>
	<path fill="#FFFFFF" d="M282,212.9v5.4h-1.1v-5.4h-0.7v-1h0.7v-2.3h1.1v2.3h1.1v1H282z"/>
	<path fill="#FFFFFF" d="M283.8,215.1c0-2,1.4-3.4,3.4-3.4s3.4,1.4,3.4,3.4s-1.5,3.4-3.4,3.4S283.8,217,283.8,215.1z M284.9,215.1
		c0,1.6,1.1,2.4,2.3,2.4c1.2,0,2.3-0.8,2.3-2.4c0-1.6-1.1-2.4-2.3-2.4S284.9,213.5,284.9,215.1z"/>
	<path fill="#FFFFFF" d="M292.3,211.8h1.1v0.7c0.1-0.2,0.6-0.9,1.5-0.9c0.3,0,0.7,0.1,1,0.3l-0.5,1c-0.2-0.2-0.5-0.2-0.7-0.2
		c-0.5,0-0.7,0.2-0.9,0.4c-0.2,0.2-0.4,0.7-0.4,1.7v3.4h-1.1V211.8z"/>
	<path fill="#FFFFFF" d="M296.9,211.8h1.1v0.7c0.4-0.5,0.9-0.8,1.6-0.8c1.2,0,1.6,0.8,1.8,1c0.6-1,1.5-1,1.9-1
		c1.9,0,2.1,1.6,2.1,2.5v4.1h-1.1v-3.9c0-0.7-0.1-1.7-1.1-1.7c-1.3,0-1.4,1.2-1.4,2v3.6h-1.1v-3.8c0-0.5,0-1.8-1.2-1.8
		c-1.3,0-1.4,1.3-1.4,2.1v3.5h-1.1V211.8z"/>
	<path fill="#FFFFFF" d="M261.1,228.6c-0.1-0.3-0.4-0.6-0.6-0.8c-0.2-0.2-0.6-0.4-1.2-0.4c-1,0-1.7,0.6-1.7,1.6
		c0,0.4,0.1,0.6,0.4,0.9c0.3,0.3,0.7,0.5,1.1,0.7l1,0.4c0.6,0.3,1.2,0.5,1.6,1c0.5,0.5,0.7,1.1,0.7,1.9c0,1.9-1.4,3.2-3.3,3.2
		c-0.7,0-1.5-0.1-2.3-0.8c-0.5-0.5-0.8-1.2-1-1.8l1.1-0.3c0.1,0.5,0.3,1,0.6,1.3c0.5,0.5,1,0.6,1.5,0.6c1.4,0,2.1-1,2.1-2
		c0-0.5-0.1-0.9-0.5-1.2c-0.3-0.3-0.7-0.5-1.2-0.7l-0.9-0.4c-0.4-0.2-0.9-0.4-1.4-0.9c-0.5-0.4-0.7-0.9-0.7-1.7
		c0-1.6,1.2-2.7,2.9-2.7c0.6,0,1.1,0.1,1.7,0.5c0.4,0.3,0.8,0.7,1,1.1L261.1,228.6z"/>
	<path fill="#FFFFFF" d="M265.4,225.6v7.3l2.4-2.4h1.5l-2.8,2.8l3.3,3.7h-1.5l-2.6-2.9l-0.3,0.3v2.7h-1.1v-11.3H265.4z"/>
	<path fill="#FFFFFF" d="M276.4,235.3c-0.2,0.4-0.5,0.7-0.8,1c-0.6,0.5-1.3,0.8-2.1,0.8c-1.6,0-3.2-1-3.2-3.4c0-1.9,1.2-3.4,3.1-3.4
		c1.3,0,2.1,0.6,2.4,1.2c0.4,0.6,0.6,1.6,0.6,2.4h-5c0,1.3,0.9,2.2,2.1,2.2c0.5,0,0.9-0.2,1.3-0.5c0.3-0.2,0.5-0.6,0.7-0.9
		L276.4,235.3z M275.3,233c-0.2-1-0.9-1.7-1.9-1.7c-0.9,0-1.7,0.7-1.9,1.7H275.3z"/>
	<path fill="#FFFFFF" d="M279.3,231.5v5.4h-1.1v-5.4h-0.7v-1h0.7v-2.3h1.1v2.3h1.1v1H279.3z"/>
	<path fill="#FFFFFF" d="M286.5,232.3c-0.6-0.7-1.4-1-2-1c-1.2,0-2.3,0.8-2.3,2.4c0,1.6,1.1,2.4,2.3,2.4c0.7,0,1.5-0.3,2.1-1v1.3
		c-0.7,0.5-1.4,0.7-2.1,0.7c-2,0-3.4-1.4-3.4-3.4c0-2,1.5-3.4,3.4-3.4c1,0,1.7,0.4,2,0.6V232.3z"/>
	<path fill="#FFFFFF" d="M288.3,225.6h1.1v5.6c0.2-0.3,0.8-0.9,1.8-0.9c0.8,0,1.5,0.3,1.8,0.9c0.3,0.5,0.4,1,0.4,1.7v4h-1.1v-4
		c0-0.4,0-0.8-0.3-1.2c-0.2-0.3-0.6-0.5-1.1-0.5c-0.4,0-0.8,0.1-1.1,0.5c-0.4,0.5-0.5,1.3-0.5,1.7v3.4h-1.1V225.6z"/>
</g>
<ellipse opacity="0.22" fill="#2B2A27" cx="431.3" cy="191.1" rx="95.7" ry="94.5"/>
<g>
	<rect x="377.5" y="156.7" fill="none" width="108.3" height="24.3"/>
	<path fill="#FFFFFF" d="M391.9,170.7h2v-13.1h-2v-0.8h6.2c1.3,0,2.2,0.1,3.2,0.4c2.8,0.9,4.5,3.5,4.5,7c0,3.7-1.8,6.2-4.9,7.1
		c-0.9,0.3-1.8,0.3-2.8,0.3h-6.2V170.7z M398,170.7c1,0,1.9-0.1,2.7-0.3c2.5-0.8,4.1-3,4.1-6.2c0-3.1-1.5-5.4-3.9-6.2
		c-0.9-0.3-1.8-0.4-2.9-0.4h-3.1v13.1H398z"/>
	<path fill="#FFFFFF" d="M408.1,170.7h2v-13.1h-2v-0.8h10.2v2.8h-0.9v-1.9H411v6.1h5.9v0.8H411v6.2h6.8v-2h0.9v2.9h-10.7V170.7z"/>
	<path fill="#FFFFFF" d="M422.3,167.7v1.1c0,1.4,1.7,2.2,3.5,2.2c2.1,0,3.6-1.1,3.6-3c0-2.2-1.8-2.9-3.8-3.7c-1.9-0.7-4-1.4-4-4
		c0-2.4,1.9-3.7,4.3-3.7c2,0,4.1,0.8,4.1,2.2v1.4h-0.9V159c0-1-1.7-1.6-3.2-1.6c-1.9,0-3.3,1-3.3,2.8c0,2,1.7,2.6,3.6,3.3
		c2.1,0.8,4.2,1.6,4.2,4.3c0,2.4-1.9,4-4.6,4c-2,0-4.5-0.9-4.5-2.8v-1.3H422.3z"/>
	<path fill="#FFFFFF" d="M432.8,170.7h2v-13.1h-2v-0.8h4.9v0.8h-2v13.1h2v0.8h-4.9V170.7z"/>
	<path fill="#FFFFFF" d="M447.7,156.5c2.5,0,5.5,1.1,5.5,2.9v1.4h-0.9v-1.1c0-1.6-2.6-2.4-4.6-2.4c-4,0-6.7,3-6.7,6.8
		c0,3.9,2.7,6.8,6.6,6.8c1.6,0,5-0.5,5-2.4v-2.6h-3.3V165h4.2v3.6c0,2.3-3.6,3.2-5.8,3.2c-4.6,0-7.6-3.3-7.6-7.7
		C440,159.8,443,156.5,447.7,156.5z"/>
	<path fill="#FFFFFF" d="M456.1,170.7h2v-13.1h-2v-0.8h2.8l9.2,12.7c0.2,0.3,0.4,0.8,0.4,0.8h0c0,0-0.1-0.6-0.1-0.9v-11.7h-2v-0.8
		h4.9v0.8h-2v14h-0.8l-9.2-12.7c-0.2-0.3-0.4-0.8-0.4-0.8h0c0,0,0.1,0.6,0.1,0.9v11.7h2v0.8h-4.9V170.7z"/>
</g>
<g>
	<rect x="350.3" y="188.5" fill="none" width="162.6" height="71.9"/>
	<path fill="#FFFFFF" d="M388.9,195.8c0,0.9,0,1.8,0.8,2.5c0.4,0.4,1.1,0.6,1.7,0.6c0.6,0,1.3-0.2,1.7-0.6c0.8-0.7,0.8-1.6,0.8-2.5
		v-6.4h1.1v6.7c0,0.9-0.1,1.7-0.7,2.5c-0.6,0.9-1.7,1.4-3,1.4s-2.4-0.5-3-1.4c-0.6-0.8-0.7-1.6-0.7-2.5v-6.7h1.1V195.8z"/>
	<path fill="#FFFFFF" d="M400.2,194.8c-0.2-0.4-0.5-0.7-0.9-0.7c-0.4,0-0.8,0.2-0.8,0.7c0,0.5,0.3,0.6,1,0.9c0.9,0.4,1.4,0.7,1.6,1
		c0.3,0.3,0.3,0.7,0.3,1c0,1.4-1,2.1-2.2,2.1c-0.3,0-1.7,0-2.3-1.6l1-0.4c0.1,0.3,0.5,1.1,1.3,1.1c0.7,0,1.1-0.5,1.1-1
		c0-0.6-0.4-0.8-1-1.1c-0.8-0.3-1.3-0.6-1.6-0.9c-0.2-0.3-0.3-0.6-0.3-0.9c0-1.1,0.8-1.8,1.9-1.8c0.3,0,1.3,0.1,1.8,1.2L400.2,194.8
		z"/>
	<path fill="#FFFFFF" d="M408.7,198.1c-0.2,0.4-0.5,0.7-0.8,1c-0.6,0.5-1.3,0.8-2.1,0.8c-1.6,0-3.2-1-3.2-3.4c0-1.9,1.2-3.4,3.1-3.4
		c1.3,0,2.1,0.6,2.4,1.2c0.4,0.6,0.6,1.6,0.6,2.4h-5c0,1.3,0.9,2.2,2,2.2c0.5,0,0.9-0.2,1.3-0.5c0.3-0.2,0.5-0.6,0.7-0.9
		L408.7,198.1z M407.6,195.9c-0.2-1-0.9-1.7-1.9-1.7s-1.7,0.7-1.9,1.7H407.6z"/>
	<path fill="#FFFFFF" d="M410.4,193.3h1.1v0.7c0.1-0.2,0.6-0.9,1.5-0.9c0.3,0,0.7,0.1,1,0.3l-0.5,1c-0.2-0.2-0.5-0.2-0.7-0.2
		c-0.5,0-0.7,0.2-0.9,0.4c-0.2,0.2-0.4,0.7-0.4,1.7v3.4h-1.1V193.3z"/>
	<path fill="#FFFFFF" d="M423.6,191.5c-0.1-0.3-0.4-0.6-0.6-0.8c-0.2-0.2-0.6-0.4-1.2-0.4c-1,0-1.7,0.6-1.7,1.6
		c0,0.4,0.1,0.6,0.4,0.9c0.3,0.3,0.7,0.5,1.1,0.7l1,0.4c0.6,0.3,1.2,0.5,1.6,1c0.5,0.5,0.7,1.1,0.7,1.9c0,1.9-1.4,3.2-3.3,3.2
		c-0.7,0-1.5-0.1-2.3-0.8c-0.5-0.5-0.8-1.2-1-1.8l1.1-0.3c0.1,0.5,0.3,1,0.6,1.3c0.5,0.5,1,0.6,1.5,0.6c1.4,0,2.1-1,2.1-2
		c0-0.5-0.1-0.9-0.5-1.2c-0.3-0.3-0.7-0.5-1.2-0.7l-0.9-0.4c-0.4-0.2-0.9-0.4-1.4-0.9c-0.5-0.4-0.7-0.9-0.7-1.7
		c0-1.6,1.2-2.7,2.9-2.7c0.6,0,1.1,0.1,1.7,0.5c0.4,0.3,0.8,0.7,1,1.1L423.6,191.5z"/>
	<path fill="#FFFFFF" d="M431.7,195.1c-0.6-0.7-1.4-1-2-1c-1.2,0-2.3,0.8-2.3,2.4c0,1.6,1.1,2.4,2.3,2.4c0.7,0,1.5-0.3,2.1-1v1.3
		c-0.7,0.5-1.4,0.7-2.1,0.7c-2,0-3.4-1.4-3.4-3.4c0-2,1.5-3.4,3.4-3.4c1,0,1.7,0.4,2,0.6V195.1z"/>
	<path fill="#FFFFFF" d="M439.2,198.1c-0.2,0.4-0.5,0.7-0.8,1c-0.6,0.5-1.3,0.8-2.1,0.8c-1.6,0-3.2-1-3.2-3.4c0-1.9,1.2-3.4,3.1-3.4
		c1.3,0,2.1,0.6,2.4,1.2c0.4,0.6,0.6,1.6,0.6,2.4h-5c0,1.3,0.9,2.2,2,2.2c0.5,0,0.9-0.2,1.3-0.5c0.3-0.2,0.5-0.6,0.7-0.9
		L439.2,198.1z M438.1,195.9c-0.2-1-0.9-1.7-1.9-1.7s-1.7,0.7-1.9,1.7H438.1z"/>
	<path fill="#FFFFFF" d="M441,193.3h1.1v0.7c0.2-0.3,0.8-0.9,1.8-0.9c0.8,0,1.5,0.3,1.8,0.9c0.3,0.5,0.4,1,0.4,1.7v4H445v-4
		c0-0.4,0-0.8-0.3-1.2c-0.2-0.3-0.6-0.5-1.1-0.5c-0.4,0-0.8,0.1-1.1,0.5c-0.4,0.5-0.5,1.3-0.5,1.7v3.4H441V193.3z"/>
	<path fill="#FFFFFF" d="M453.2,193.3h1.1v6.4h-1.1v-0.9c-0.4,0.5-1.1,1.1-2.2,1.1c-1.6,0-3.1-1.1-3.1-3.4c0-2.2,1.5-3.4,3.1-3.4
		c1.2,0,1.9,0.7,2.2,1.1V193.3z M449,196.6c0,1.4,0.8,2.4,2.1,2.4c1.4,0,2.1-1.1,2.1-2.4c0-1.7-1.1-2.4-2.1-2.4
		C450,194.2,449,195,449,196.6z"/>
	<path fill="#FFFFFF" d="M456.4,193.3h1.1v0.7c0.1-0.2,0.6-0.9,1.5-0.9c0.3,0,0.7,0.1,1,0.3l-0.5,1c-0.2-0.2-0.5-0.2-0.7-0.2
		c-0.5,0-0.7,0.2-0.9,0.4c-0.2,0.2-0.4,0.7-0.4,1.7v3.4h-1.1V193.3z"/>
	<path fill="#FFFFFF" d="M461.6,190.1c0.4,0,0.8,0.4,0.8,0.8c0,0.4-0.4,0.8-0.8,0.8s-0.8-0.4-0.8-0.8
		C460.8,190.5,461.1,190.1,461.6,190.1z M462.1,193.3v6.4H461v-6.4H462.1z"/>
	<path fill="#FFFFFF" d="M463.8,196.6c0-2,1.4-3.4,3.4-3.4s3.4,1.4,3.4,3.4s-1.5,3.4-3.4,3.4C465.3,200,463.8,198.5,463.8,196.6z
		 M465,196.6c0,1.6,1.1,2.4,2.3,2.4c1.2,0,2.3-0.8,2.3-2.4c0-1.6-1.1-2.4-2.3-2.4S465,195,465,196.6z"/>
	<path fill="#FFFFFF" d="M475,194.8c-0.2-0.4-0.5-0.7-0.9-0.7c-0.4,0-0.8,0.2-0.8,0.7c0,0.5,0.3,0.6,1,0.9c0.9,0.4,1.4,0.7,1.6,1
		c0.3,0.3,0.3,0.7,0.3,1c0,1.4-1,2.1-2.2,2.1c-0.3,0-1.7,0-2.3-1.6l1-0.4c0.1,0.3,0.5,1.1,1.3,1.1c0.7,0,1.1-0.5,1.1-1
		c0-0.6-0.4-0.8-1-1.1c-0.8-0.3-1.3-0.6-1.6-0.9c-0.2-0.3-0.3-0.6-0.3-0.9c0-1.1,0.8-1.8,1.9-1.8c0.3,0,1.3,0.1,1.8,1.2L475,194.8z"
		/>
	<path fill="#FFFFFF" d="M398.2,208.1l2.7,7.8l3.2-8.3l3.1,8.3l3-7.8h1.3l-4.3,10.9l-3-8.3l-3.3,8.3l-4-10.9H398.2z"/>
	<path fill="#FFFFFF" d="M413.3,208.7c0.4,0,0.8,0.4,0.8,0.8c0,0.4-0.4,0.8-0.8,0.8c-0.4,0-0.8-0.4-0.8-0.8
		C412.5,209.1,412.9,208.7,413.3,208.7z M413.9,212v6.4h-1.1V212H413.9z"/>
	<path fill="#FFFFFF" d="M416,212h1.1v0.7c0.1-0.2,0.6-0.9,1.5-0.9c0.3,0,0.7,0.1,1,0.3l-0.5,1c-0.2-0.2-0.5-0.2-0.7-0.2
		c-0.5,0-0.7,0.2-0.9,0.4c-0.2,0.2-0.4,0.7-0.4,1.7v3.4H416V212z"/>
	<path fill="#FFFFFF" d="M425.9,216.8c-0.2,0.4-0.5,0.7-0.8,1c-0.6,0.5-1.3,0.8-2.1,0.8c-1.6,0-3.2-1-3.2-3.4c0-1.9,1.2-3.4,3.1-3.4
		c1.3,0,2.1,0.6,2.4,1.2c0.4,0.6,0.6,1.6,0.6,2.4h-5c0,1.3,0.9,2.2,2.1,2.2c0.5,0,0.9-0.2,1.3-0.5c0.3-0.2,0.5-0.6,0.7-0.9
		L425.9,216.8z M424.8,214.5c-0.2-1-0.9-1.7-1.9-1.7c-0.9,0-1.7,0.7-1.9,1.7H424.8z"/>
	<path fill="#FFFFFF" d="M428.8,213v5.4h-1.1V213h-0.6v-1h0.6v-2.8c0-0.6,0-1.3,0.6-1.8c0.3-0.3,0.8-0.4,1.3-0.4
		c0.4,0,0.7,0.1,0.8,0.1v1.1c-0.2-0.1-0.5-0.1-0.7-0.1c-0.2,0-0.5,0.1-0.7,0.3c-0.1,0.2-0.1,0.6-0.1,0.9v2.7h1.6v1H428.8z"/>
	<path fill="#FFFFFF" d="M431.4,212h1.1v0.7c0.1-0.2,0.6-0.9,1.5-0.9c0.3,0,0.7,0.1,1,0.3l-0.5,1c-0.2-0.2-0.5-0.2-0.7-0.2
		c-0.5,0-0.7,0.2-0.9,0.4c-0.2,0.2-0.4,0.7-0.4,1.7v3.4h-1.1V212z"/>
	<path fill="#FFFFFF" d="M440.6,212h1.1v6.4h-1.1v-0.9c-0.4,0.5-1.1,1.1-2.2,1.1c-1.6,0-3.1-1.1-3.1-3.4c0-2.2,1.5-3.4,3.1-3.4
		c1.2,0,1.9,0.7,2.2,1.1V212z M436.4,215.2c0,1.4,0.8,2.4,2.1,2.4c1.4,0,2.1-1.1,2.1-2.4c0-1.7-1.1-2.4-2.1-2.4
		C437.4,212.8,436.4,213.6,436.4,215.2z"/>
	<path fill="#FFFFFF" d="M443.9,212h1.1v0.7c0.4-0.5,0.9-0.8,1.6-0.8c1.2,0,1.6,0.8,1.8,1c0.6-1,1.5-1,1.9-1c1.9,0,2.1,1.6,2.1,2.5
		v4.1h-1.1v-3.9c0-0.7-0.1-1.7-1.1-1.7c-1.3,0-1.4,1.2-1.4,2v3.6h-1.1v-3.8c0-0.5,0-1.8-1.2-1.8c-1.3,0-1.4,1.3-1.4,2.1v3.5h-1.1
		V212z"/>
	<path fill="#FFFFFF" d="M460.2,216.8c-0.2,0.4-0.5,0.7-0.8,1c-0.6,0.5-1.3,0.8-2.1,0.8c-1.6,0-3.2-1-3.2-3.4c0-1.9,1.2-3.4,3.1-3.4
		c1.3,0,2.1,0.6,2.4,1.2c0.4,0.6,0.6,1.6,0.6,2.4h-5c0,1.3,0.9,2.2,2.1,2.2c0.5,0,0.9-0.2,1.3-0.5c0.3-0.2,0.5-0.6,0.7-0.9
		L460.2,216.8z M459.1,214.5c-0.2-1-0.9-1.7-1.9-1.7c-0.9,0-1.7,0.7-1.9,1.7H459.1z"/>
	<path fill="#FFFFFF" d="M464.6,213.5c-0.2-0.4-0.5-0.7-0.9-0.7c-0.4,0-0.8,0.2-0.8,0.7c0,0.5,0.3,0.6,1,0.9c0.9,0.4,1.4,0.7,1.6,1
		c0.3,0.3,0.3,0.7,0.3,1c0,1.4-1,2.1-2.2,2.1c-0.3,0-1.7,0-2.3-1.6l1-0.4c0.1,0.3,0.5,1.1,1.3,1.1c0.7,0,1.1-0.5,1.1-1
		c0-0.6-0.4-0.8-1-1.1c-0.8-0.3-1.3-0.6-1.6-0.9c-0.2-0.3-0.3-0.6-0.3-0.9c0-1.1,0.8-1.8,1.9-1.8c0.3,0,1.3,0.1,1.8,1.2L464.6,213.5
		z"/>
	<path fill="#FFFFFF" d="M403.3,226.7c1,0,1.9,0.1,2.6,0.7c0.8,0.7,0.9,1.6,0.9,2.2c0,1.5-0.9,2.9-3.3,2.9h-1v4.5h-1.1v-10.4H403.3z
		 M402.6,231.5h0.9c1.4,0,2.2-0.7,2.2-1.9c0-1.6-1.5-1.8-2.3-1.8h-0.9V231.5z"/>
	<path fill="#FFFFFF" d="M408.3,230.6h1.1v0.7c0.1-0.2,0.6-0.9,1.5-0.9c0.3,0,0.7,0.1,1,0.3l-0.5,1c-0.2-0.2-0.5-0.2-0.7-0.2
		c-0.5,0-0.7,0.2-0.9,0.4c-0.2,0.2-0.4,0.7-0.4,1.7v3.4h-1.1V230.6z"/>
	<path fill="#FFFFFF" d="M412.1,233.9c0-2,1.4-3.4,3.4-3.4s3.4,1.4,3.4,3.4c0,2-1.5,3.4-3.4,3.4
		C413.5,237.2,412.1,235.8,412.1,233.9z M413.2,233.9c0,1.6,1.1,2.4,2.3,2.4c1.2,0,2.3-0.8,2.3-2.4c0-1.6-1.1-2.4-2.3-2.4
		S413.2,232.3,413.2,233.9z"/>
	<path fill="#FFFFFF" d="M421.8,231.6v5.4h-1.1v-5.4H420v-1h0.7v-2.3h1.1v2.3h1.1v1H421.8z"/>
	<path fill="#FFFFFF" d="M423.5,233.9c0-2,1.4-3.4,3.4-3.4s3.4,1.4,3.4,3.4c0,2-1.5,3.4-3.4,3.4S423.5,235.8,423.5,233.9z
		 M424.7,233.9c0,1.6,1.1,2.4,2.3,2.4c1.2,0,2.3-0.8,2.3-2.4c0-1.6-1.1-2.4-2.3-2.4S424.7,232.3,424.7,233.9z"/>
	<path fill="#FFFFFF" d="M433.2,231.6v5.4h-1.1v-5.4h-0.7v-1h0.7v-2.3h1.1v2.3h1.1v1H433.2z"/>
	<path fill="#FFFFFF" d="M437.9,236.4l-3-5.8h1.3l2.3,4.6l2.1-4.6h1.2l-4.7,10h-1.2L437.9,236.4z"/>
	<path fill="#FFFFFF" d="M444.1,240.6H443v-10h1.1v0.9c0.8-0.9,1.7-1.1,2.2-1.1c2,0,3.1,1.7,3.1,3.4c0,1.8-1.1,3.4-3.1,3.4
		c-1,0-1.8-0.5-2.3-1.1V240.6z M448.3,233.9c0-1.6-1.1-2.4-2.1-2.4c-1,0-2.1,0.9-2.1,2.4c0,1.3,0.8,2.4,2.2,2.4
		C447.5,236.2,448.3,235.2,448.3,233.9z"/>
	<path fill="#FFFFFF" d="M456.9,235.4c-0.2,0.4-0.5,0.7-0.8,1c-0.6,0.5-1.3,0.8-2.1,0.8c-1.6,0-3.2-1-3.2-3.4c0-1.9,1.2-3.4,3.1-3.4
		c1.3,0,2.1,0.6,2.4,1.2c0.4,0.6,0.6,1.6,0.6,2.4h-5c0,1.3,0.9,2.2,2,2.2c0.5,0,0.9-0.2,1.3-0.5c0.3-0.2,0.5-0.6,0.7-0.9
		L456.9,235.4z M455.8,233.1c-0.2-1-0.9-1.7-1.9-1.7s-1.7,0.7-1.9,1.7H455.8z"/>
	<path fill="#FFFFFF" d="M461.3,232.1c-0.2-0.4-0.5-0.7-0.9-0.7c-0.4,0-0.8,0.2-0.8,0.7c0,0.5,0.3,0.6,1,0.9c0.9,0.4,1.4,0.7,1.6,1
		c0.3,0.3,0.3,0.7,0.3,1c0,1.4-1,2.1-2.2,2.1c-0.3,0-1.7,0-2.3-1.6l1-0.4c0.1,0.3,0.5,1.1,1.3,1.1c0.7,0,1.1-0.5,1.1-1
		c0-0.6-0.4-0.8-1-1.1c-0.8-0.3-1.3-0.6-1.6-0.9c-0.2-0.3-0.3-0.6-0.3-0.9c0-1.1,0.8-1.8,1.9-1.8c0.3,0,1.3,0.1,1.8,1.2L461.3,232.1
		z"/>
</g>
<ellipse opacity="0.22" fill="#2B2A27" cx="589.7" cy="185.7" rx="95.7" ry="94.5"/>
<g>
	<rect x="535.6" y="156.7" fill="none" width="108.3" height="24.3"/>
	<path fill="#FFFFFF" d="M568.1,170.7h2v-13.1h-4.7v2.5h-0.9v-3.3h12.2v3.3h-0.9v-2.5H571v13.1h2v0.8h-4.9V170.7z"/>
	<path fill="#FFFFFF" d="M578.5,170.7h2v-13.1h-2v-0.8h10.2v2.8h-0.9v-1.9h-6.4v6.1h5.9v0.8h-5.9v6.2h6.8v-2h0.9v2.9h-10.7V170.7z"
		/>
	<path fill="#FFFFFF" d="M592.7,167.7v1.1c0,1.4,1.7,2.2,3.5,2.2c2.1,0,3.6-1.1,3.6-3c0-2.2-1.8-2.9-3.8-3.7c-1.9-0.7-4-1.4-4-4
		c0-2.4,1.9-3.7,4.3-3.7c2,0,4.1,0.8,4.1,2.2v1.4h-0.9V159c0-1-1.7-1.6-3.2-1.6c-1.9,0-3.3,1-3.3,2.8c0,2,1.7,2.6,3.6,3.3
		c2.1,0.8,4.2,1.6,4.2,4.3c0,2.4-1.9,4-4.6,4c-2,0-4.5-0.9-4.5-2.8v-1.3H592.7z"/>
	<path fill="#FFFFFF" d="M606.4,170.7h2v-13.1h-4.7v2.5h-0.9v-3.3H615v3.3h-0.9v-2.5h-4.7v13.1h2v0.8h-4.9V170.7z"/>
</g>
<g>
	<rect x="508.4" y="187.8" fill="none" width="162.6" height="71.9"/>
	<path fill="#FFFFFF" d="M534,189.8v9.3h-1.1v-9.3h-2.5v-1.1h6.2v1.1H534z"/>
	<path fill="#FFFFFF" d="M542.2,197.5c-0.2,0.4-0.5,0.7-0.8,1c-0.6,0.5-1.3,0.8-2.1,0.8c-1.6,0-3.2-1-3.2-3.4c0-1.9,1.2-3.4,3.1-3.4
		c1.3,0,2.1,0.6,2.4,1.2c0.4,0.6,0.6,1.6,0.6,2.4h-5c0,1.3,0.9,2.2,2.1,2.2c0.5,0,0.9-0.2,1.3-0.5c0.3-0.2,0.5-0.6,0.7-0.9
		L542.2,197.5z M541.1,195.2c-0.2-1-0.9-1.7-1.9-1.7c-0.9,0-1.7,0.7-1.9,1.7H541.1z"/>
	<path fill="#FFFFFF" d="M546.6,194.2c-0.2-0.4-0.5-0.7-0.9-0.7c-0.4,0-0.8,0.2-0.8,0.7c0,0.5,0.3,0.6,1,0.9c0.9,0.4,1.4,0.7,1.6,1
		c0.3,0.3,0.3,0.7,0.3,1c0,1.4-1,2.1-2.2,2.1c-0.3,0-1.7,0-2.3-1.6l1-0.4c0.1,0.3,0.5,1.1,1.3,1.1c0.7,0,1.1-0.5,1.1-1
		c0-0.6-0.4-0.8-1-1.1c-0.8-0.3-1.3-0.6-1.6-0.9c-0.2-0.3-0.3-0.6-0.3-0.9c0-1.1,0.8-1.8,1.9-1.8c0.3,0,1.3,0.1,1.8,1.2L546.6,194.2
		z"/>
	<path fill="#FFFFFF" d="M550.6,193.7v5.4h-1.1v-5.4h-0.7v-1h0.7v-2.3h1.1v2.3h1.1v1H550.6z"/>
	<path fill="#FFFFFF" d="M557.5,193.7v5.4h-1.1v-5.4h-0.7v-1h0.7v-2.3h1.1v2.3h1.1v1H557.5z"/>
	<path fill="#FFFFFF" d="M564.7,192.7h1.1v6.4h-1.1v-0.9c-0.4,0.5-1.1,1.1-2.2,1.1c-1.6,0-3.1-1.1-3.1-3.4c0-2.2,1.5-3.4,3.1-3.4
		c1.2,0,1.9,0.7,2.2,1.1V192.7z M560.5,195.9c0,1.4,0.8,2.4,2.1,2.4c1.4,0,2.1-1.1,2.1-2.4c0-1.7-1.1-2.4-2.1-2.4
		C561.5,193.5,560.5,194.3,560.5,195.9z"/>
	<path fill="#FFFFFF" d="M567.9,192.7h1.1v0.7c0.1-0.2,0.6-0.9,1.5-0.9c0.3,0,0.7,0.1,1,0.3l-0.5,1c-0.2-0.2-0.5-0.2-0.7-0.2
		c-0.5,0-0.7,0.2-0.9,0.4c-0.2,0.2-0.4,0.7-0.4,1.7v3.4h-1.1V192.7z"/>
	<path fill="#FFFFFF" d="M577,192.7h1.1v6.3c0,0.7,0,1.7-0.6,2.5c-0.5,0.7-1.4,1.2-2.6,1.2c-1.1,0-1.9-0.4-2.3-0.9
		c-0.4-0.4-0.8-1.1-0.8-2.1h1.1c0,0.5,0.2,1,0.5,1.3c0.5,0.5,1.1,0.6,1.6,0.6c0.8,0,1.3-0.3,1.7-0.9c0.3-0.5,0.4-1.1,0.4-1.6v-0.9
		c-0.4,0.5-1.1,1.1-2.2,1.1c-0.9,0-1.7-0.4-2.2-0.9c-0.4-0.4-0.9-1.2-0.9-2.5c0-1.3,0.5-2,0.9-2.5c0.5-0.5,1.3-0.9,2.2-0.9
		c0.9,0,1.7,0.4,2.2,1.1V192.7z M573.5,194.1c-0.5,0.6-0.7,1.2-0.7,1.8c0,0.6,0.1,1.3,0.7,1.9c0.4,0.3,0.8,0.5,1.4,0.5
		c0.6,0,1.1-0.2,1.4-0.5c0.4-0.4,0.7-1.1,0.7-1.9c0-0.8-0.3-1.4-0.7-1.8c-0.4-0.4-0.9-0.6-1.5-0.6
		C574.3,193.5,573.8,193.8,573.5,194.1z"/>
	<path fill="#FFFFFF" d="M586,197.5c-0.2,0.4-0.5,0.7-0.8,1c-0.6,0.5-1.3,0.8-2.1,0.8c-1.6,0-3.2-1-3.2-3.4c0-1.9,1.2-3.4,3.1-3.4
		c1.3,0,2.1,0.6,2.4,1.2c0.4,0.6,0.6,1.6,0.6,2.4h-5c0,1.3,0.9,2.2,2,2.2c0.5,0,0.9-0.2,1.3-0.5c0.3-0.2,0.5-0.6,0.7-0.9L586,197.5z
		 M584.9,195.2c-0.2-1-0.9-1.7-1.9-1.7s-1.7,0.7-1.9,1.7H584.9z"/>
	<path fill="#FFFFFF" d="M588.9,193.7v5.4h-1.1v-5.4h-0.7v-1h0.7v-2.3h1.1v2.3h1.1v1H588.9z"/>
	<path fill="#FFFFFF" d="M599.6,192.7h1.1v6.4h-1.1v-0.9c-0.4,0.5-1.1,1.1-2.2,1.1c-1.6,0-3.1-1.1-3.1-3.4c0-2.2,1.5-3.4,3.1-3.4
		c1.2,0,1.9,0.7,2.2,1.1V192.7z M595.4,195.9c0,1.4,0.8,2.4,2.1,2.4c1.4,0,2.1-1.1,2.1-2.4c0-1.7-1.1-2.4-2.1-2.4
		C596.4,193.5,595.4,194.3,595.4,195.9z"/>
	<path fill="#FFFFFF" d="M604,196.4c0,0.5,0,1,0.3,1.4c0.2,0.2,0.5,0.5,1.1,0.5c0.6,0,1-0.3,1.1-0.5c0.3-0.4,0.3-0.9,0.3-1.4v-3.8
		h1.1v3.9c0,0.8-0.1,1.4-0.6,1.9c-0.6,0.6-1.3,0.8-2,0.8c-0.6,0-1.4-0.2-2-0.8c-0.5-0.6-0.6-1.1-0.6-1.9v-3.9h1.1V196.4z"/>
	<path fill="#FFFFFF" d="M615,187.8h1.1v11.3H615v-0.9c-0.4,0.5-1.1,1.1-2.2,1.1c-1.6,0-3.1-1.1-3.1-3.4c0-2.2,1.5-3.4,3.1-3.4
		c1.2,0,1.9,0.7,2.2,1.1V187.8z M610.8,195.9c0,1.4,0.8,2.4,2.1,2.4c1.4,0,2.1-1.1,2.1-2.4c0-1.7-1.1-2.4-2.1-2.4
		C611.8,193.5,610.8,194.3,610.8,195.9z"/>
	<path fill="#FFFFFF" d="M618.7,189.4c0.4,0,0.8,0.4,0.8,0.8c0,0.4-0.4,0.8-0.8,0.8c-0.4,0-0.8-0.4-0.8-0.8
		C617.9,189.8,618.2,189.4,618.7,189.4z M619.2,192.7v6.4h-1.1v-6.4H619.2z"/>
	<path fill="#FFFFFF" d="M627,197.5c-0.2,0.4-0.5,0.7-0.8,1c-0.6,0.5-1.3,0.8-2.1,0.8c-1.6,0-3.2-1-3.2-3.4c0-1.9,1.2-3.4,3.1-3.4
		c1.3,0,2.1,0.6,2.4,1.2c0.4,0.6,0.6,1.6,0.6,2.4h-5c0,1.3,0.9,2.2,2.1,2.2c0.5,0,0.9-0.2,1.3-0.5c0.3-0.2,0.5-0.6,0.7-0.9
		L627,197.5z M625.9,195.2c-0.2-1-0.9-1.7-1.9-1.7c-0.9,0-1.7,0.7-1.9,1.7H625.9z"/>
	<path fill="#FFFFFF" d="M628.8,192.7h1.1v0.7c0.2-0.3,0.8-0.9,1.8-0.9c0.8,0,1.5,0.3,1.8,0.9c0.3,0.5,0.4,1,0.4,1.7v4h-1.1v-4
		c0-0.4,0-0.8-0.3-1.2c-0.2-0.3-0.6-0.5-1.1-0.5c-0.4,0-0.8,0.1-1.1,0.5c-0.4,0.5-0.5,1.3-0.5,1.7v3.4h-1.1V192.7z"/>
	<path fill="#FFFFFF" d="M641.1,194.5c-0.6-0.7-1.4-1-2-1c-1.2,0-2.3,0.8-2.3,2.4c0,1.6,1.1,2.4,2.3,2.4c0.7,0,1.5-0.3,2.1-1v1.3
		c-0.7,0.5-1.4,0.7-2.1,0.7c-2,0-3.4-1.4-3.4-3.4c0-2,1.5-3.4,3.4-3.4c1,0,1.7,0.4,2,0.6V194.5z"/>
	<path fill="#FFFFFF" d="M648.6,197.5c-0.2,0.4-0.5,0.7-0.8,1c-0.6,0.5-1.3,0.8-2.1,0.8c-1.6,0-3.2-1-3.2-3.4c0-1.9,1.2-3.4,3.1-3.4
		c1.3,0,2.1,0.6,2.4,1.2c0.4,0.6,0.6,1.6,0.6,2.4h-5c0,1.3,0.9,2.2,2.1,2.2c0.5,0,0.9-0.2,1.3-0.5c0.3-0.2,0.5-0.6,0.7-0.9
		L648.6,197.5z M647.5,195.2c-0.2-1-0.9-1.7-1.9-1.7c-0.9,0-1.7,0.7-1.9,1.7H647.5z"/>
	<path fill="#FFFFFF" d="M566.3,208.5h-3.6v3.1h3.4v1.1h-3.4v5.1h-1.1v-10.4h4.7V208.5z"/>
	<path fill="#FFFFFF" d="M573.1,216.1c-0.2,0.4-0.5,0.7-0.8,1c-0.6,0.5-1.3,0.8-2.1,0.8c-1.6,0-3.2-1-3.2-3.4c0-1.9,1.2-3.4,3.1-3.4
		c1.3,0,2.1,0.6,2.4,1.2c0.4,0.6,0.6,1.6,0.6,2.4h-5c0,1.3,0.9,2.2,2.1,2.2c0.5,0,0.9-0.2,1.3-0.5c0.3-0.2,0.5-0.6,0.7-0.9
		L573.1,216.1z M572,213.8c-0.2-1-0.9-1.7-1.9-1.7c-0.9,0-1.7,0.7-1.9,1.7H572z"/>
	<path fill="#FFFFFF" d="M580.6,216.1c-0.2,0.4-0.5,0.7-0.8,1c-0.6,0.5-1.3,0.8-2.1,0.8c-1.6,0-3.2-1-3.2-3.4c0-1.9,1.2-3.4,3.1-3.4
		c1.3,0,2.1,0.6,2.4,1.2c0.4,0.6,0.6,1.6,0.6,2.4h-5c0,1.3,0.9,2.2,2.1,2.2c0.5,0,0.9-0.2,1.3-0.5c0.3-0.2,0.5-0.6,0.7-0.9
		L580.6,216.1z M579.5,213.8c-0.2-1-0.9-1.7-1.9-1.7c-0.9,0-1.7,0.7-1.9,1.7H579.5z"/>
	<path fill="#FFFFFF" d="M587.3,206.4h1.1v11.3h-1.1v-0.9c-0.4,0.5-1.1,1.1-2.2,1.1c-1.6,0-3.1-1.1-3.1-3.4c0-2.2,1.5-3.4,3.1-3.4
		c1.2,0,1.9,0.7,2.2,1.1V206.4z M583.1,214.5c0,1.4,0.8,2.4,2.1,2.4c1.4,0,2.1-1.1,2.1-2.4c0-1.7-1.1-2.4-2.1-2.4
		C584.1,212.1,583.1,212.9,583.1,214.5z"/>
	<path fill="#FFFFFF" d="M591.7,217.7h-1.1v-11.3h1.1v5.8c0.8-0.9,1.7-1.1,2.2-1.1c2,0,3.1,1.7,3.1,3.4c0,1.8-1.1,3.4-3.1,3.4
		c-1,0-1.8-0.5-2.3-1.1V217.7z M595.8,214.6c0-1.6-1.1-2.4-2.1-2.4s-2.1,0.9-2.1,2.4c0,1.3,0.8,2.4,2.2,2.4
		C595.1,216.9,595.8,215.8,595.8,214.6z"/>
	<path fill="#FFFFFF" d="M603.6,211.3h1.1v6.4h-1.1v-0.9c-0.4,0.5-1.1,1.1-2.2,1.1c-1.6,0-3.1-1.1-3.1-3.4c0-2.2,1.5-3.4,3.1-3.4
		c1.2,0,1.9,0.7,2.2,1.1V211.3z M599.4,214.5c0,1.4,0.8,2.4,2.1,2.4c1.4,0,2.1-1.1,2.1-2.4c0-1.7-1.1-2.4-2.1-2.4
		C600.5,212.1,599.4,212.9,599.4,214.5z"/>
	<path fill="#FFFFFF" d="M611.9,213.1c-0.6-0.7-1.4-1-2-1c-1.2,0-2.3,0.8-2.3,2.4c0,1.6,1.1,2.4,2.3,2.4c0.7,0,1.5-0.3,2.1-1v1.3
		c-0.7,0.5-1.4,0.7-2.1,0.7c-2,0-3.4-1.4-3.4-3.4c0-2,1.5-3.4,3.4-3.4c1,0,1.7,0.4,2,0.6V213.1z"/>
	<path fill="#FFFFFF" d="M614.8,206.4v7.3l2.4-2.4h1.5l-2.8,2.8l3.3,3.7h-1.5l-2.6-2.9l-0.3,0.3v2.7h-1.1v-11.3H614.8z"/>
	<path fill="#FFFFFF" d="M572,233.5h-4.4l-1.2,2.9h-1.3l4.8-10.9l4.6,10.9h-1.3L572,233.5z M571.6,232.4l-1.7-4.1l-1.8,4.1H571.6z"
		/>
	<path fill="#FFFFFF" d="M575.7,229.9h1.1v0.7c0.2-0.3,0.8-0.9,1.8-0.9c0.8,0,1.5,0.3,1.8,0.9c0.3,0.5,0.4,1,0.4,1.7v4h-1.1v-4
		c0-0.4,0-0.8-0.3-1.2c-0.2-0.3-0.6-0.5-1.1-0.5c-0.4,0-0.8,0.1-1.1,0.5c-0.4,0.5-0.5,1.3-0.5,1.7v3.4h-1.1V229.9z"/>
	<path fill="#FFFFFF" d="M587.9,229.9h1.1v6.4h-1.1v-0.9c-0.4,0.5-1.1,1.1-2.2,1.1c-1.6,0-3.1-1.1-3.1-3.4c0-2.2,1.5-3.4,3.1-3.4
		c1.2,0,1.9,0.7,2.2,1.1V229.9z M583.7,233.1c0,1.4,0.8,2.4,2.1,2.4c1.4,0,2.1-1.1,2.1-2.4c0-1.7-1.1-2.4-2.1-2.4
		C584.7,230.8,583.7,231.6,583.7,233.1z"/>
	<path fill="#FFFFFF" d="M592.3,225v11.3h-1.1V225H592.3z"/>
	<path fill="#FFFFFF" d="M596.4,235.8l-3-5.8h1.3l2.3,4.6l2.1-4.6h1.2l-4.7,10h-1.2L596.4,235.8z"/>
	<path fill="#FFFFFF" d="M604,231.4c-0.2-0.4-0.5-0.7-0.9-0.7c-0.4,0-0.8,0.2-0.8,0.7c0,0.5,0.3,0.6,1,0.9c0.9,0.4,1.4,0.7,1.6,1
		c0.3,0.3,0.3,0.7,0.3,1c0,1.4-1,2.1-2.2,2.1c-0.3,0-1.7,0-2.3-1.6l1-0.4c0.1,0.3,0.5,1.1,1.3,1.1c0.7,0,1.1-0.5,1.1-1
		c0-0.6-0.4-0.8-1-1.1c-0.8-0.3-1.3-0.6-1.6-0.9c-0.2-0.3-0.3-0.6-0.3-0.9c0-1.1,0.8-1.8,1.9-1.8c0.3,0,1.3,0.1,1.8,1.2L604,231.4z"
		/>
	<path fill="#FFFFFF" d="M607.4,226.7c0.4,0,0.8,0.4,0.8,0.8c0,0.4-0.4,0.8-0.8,0.8c-0.4,0-0.8-0.4-0.8-0.8
		C606.6,227.1,607,226.7,607.4,226.7z M608,229.9v6.4h-1.1v-6.4H608z"/>
	<path fill="#FFFFFF" d="M612.7,231.4c-0.2-0.4-0.5-0.7-0.9-0.7c-0.4,0-0.8,0.2-0.8,0.7c0,0.5,0.3,0.6,1,0.9c0.9,0.4,1.4,0.7,1.6,1
		c0.3,0.3,0.3,0.7,0.3,1c0,1.4-1,2.1-2.2,2.1c-0.3,0-1.7,0-2.3-1.6l1-0.4c0.1,0.3,0.5,1.1,1.3,1.1c0.7,0,1.1-0.5,1.1-1
		c0-0.6-0.4-0.8-1-1.1c-0.8-0.3-1.3-0.6-1.6-0.9c-0.2-0.3-0.3-0.6-0.3-0.9c0-1.1,0.8-1.8,1.9-1.8c0.3,0,1.3,0.1,1.8,1.2L612.7,231.4
		z"/>
</g>
<ellipse opacity="0.22" fill="#2B2A27" cx="751" cy="189.5" rx="95.7" ry="94.5"/>
<g>
	<rect x="696.9" y="156.7" fill="none" width="108.3" height="24.3"/>
	<path fill="#FFFFFF" d="M707.9,170.7h2v-13.1h-2v-0.8h4.9v0.8h-2v13.1h2v0.8h-4.9V170.7z"/>
	<path fill="#FFFFFF" d="M718.3,170.7h2v-13.1h-4.7v2.5h-0.9v-3.3h12.2v3.3h-0.9v-2.5h-4.7v13.1h2v0.8h-4.9V170.7z"/>
	<path fill="#FFFFFF" d="M728.7,170.7h2v-13.1h-2v-0.8h10.2v2.8H738v-1.9h-6.4v6.1h5.9v0.8h-5.9v6.2h6.8v-2h0.9v2.9h-10.7V170.7z"/>
	<path fill="#FFFFFF" d="M741.7,170.7h2v-13.1h-2v-0.8h6.2c1,0,1.7,0.1,2.5,0.3c1.4,0.5,2.3,1.7,2.3,3.6c0,2.3-1.4,4-3.5,4.2v0
		c0,0,0.2,0.2,0.4,0.5l2.8,4.7c0.3,0.4,0.5,0.5,1.1,0.5h0.4v0.8h-0.4c-1.3,0-1.5-0.2-2-1.1l-2.6-4.5c-0.4-0.8-0.7-1-1.8-1h-2.5v5.7
		h2v0.8h-4.9V170.7z M748.6,164.1c1.9,0,3.3-1.4,3.3-3.4c0-1.5-0.7-2.4-1.8-2.8c-0.6-0.2-1.3-0.3-2.1-0.3h-3.3v6.6H748.6z"/>
	<path fill="#FFFFFF" d="M755,170.7h1.6l5.2-14h1l5.2,14h1.6v0.8h-4.4v-0.8h1.8l-1.6-4.3h-6.3l-1.6,4.3h1.8v0.8H755V170.7z
		 M765.1,165.6l-2.6-6.9c-0.1-0.4-0.2-0.8-0.2-0.8h0c0,0-0.1,0.4-0.2,0.8l-2.6,6.9H765.1z"/>
	<path fill="#FFFFFF" d="M772.9,170.7h2v-13.1h-4.7v2.5h-0.9v-3.3h12.2v3.3h-0.9v-2.5h-4.7v13.1h2v0.8h-4.9V170.7z"/>
	<path fill="#FFFFFF" d="M783.3,170.7h2v-13.1h-2v-0.8h10.2v2.8h-0.9v-1.9h-6.4v6.1h5.9v0.8h-5.9v6.2h6.8v-2h0.9v2.9h-10.7V170.7z"
		/>
</g>
<g>
	<rect x="669.7" y="189.7" fill="none" width="162.6" height="71.9"/>
	<path fill="#FFFFFF" d="M730,201l1.7-10.9l4,8.7l4.1-8.8l1.6,11h-1.2l-1-7.2l-3.5,7.6l-3.5-7.6l-1,7.2H730z"/>
	<path fill="#FFFFFF" d="M743.1,197.8c0-2,1.4-3.4,3.4-3.4s3.4,1.4,3.4,3.4s-1.5,3.4-3.4,3.4S743.1,199.8,743.1,197.8z M744.2,197.8
		c0,1.6,1.1,2.4,2.3,2.4c1.2,0,2.3-0.8,2.3-2.4c0-1.6-1.1-2.4-2.3-2.4S744.2,196.2,744.2,197.8z"/>
	<path fill="#FFFFFF" d="M756.6,189.7h1.1V201h-1.1v-0.9c-0.4,0.5-1.1,1.1-2.2,1.1c-1.6,0-3.1-1.1-3.1-3.4c0-2.2,1.5-3.4,3.1-3.4
		c1.2,0,1.9,0.7,2.2,1.1V189.7z M752.4,197.8c0,1.4,0.8,2.4,2.1,2.4c1.4,0,2.1-1.1,2.1-2.4c0-1.7-1.1-2.4-2.1-2.4
		C753.4,195.4,752.4,196.2,752.4,197.8z"/>
	<path fill="#FFFFFF" d="M760.2,191.3c0.4,0,0.8,0.4,0.8,0.8c0,0.4-0.4,0.8-0.8,0.8c-0.4,0-0.8-0.4-0.8-0.8
		C759.4,191.7,759.8,191.3,760.2,191.3z M760.8,194.6v6.4h-1.1v-6.4H760.8z"/>
	<path fill="#FFFFFF" d="M764,195.6v5.4h-1.1v-5.4h-0.6v-1h0.6v-2.8c0-0.6,0-1.3,0.6-1.8c0.3-0.3,0.8-0.4,1.3-0.4
		c0.4,0,0.7,0.1,0.8,0.1v1.1c-0.2-0.1-0.5-0.1-0.7-0.1c-0.2,0-0.5,0.1-0.7,0.3c-0.1,0.2-0.1,0.6-0.1,0.9v2.7h1.6v1H764z"/>
	<path fill="#FFFFFF" d="M768.9,200.4l-3-5.8h1.3l2.3,4.6l2.1-4.6h1.2l-4.7,10h-1.2L768.9,200.4z"/>
	<path fill="#FFFFFF" d="M724.1,214.5c0-3.1,2.4-5.4,5.4-5.4s5.4,2.3,5.4,5.4c0,3.1-2.4,5.4-5.4,5.4
		C726.5,219.8,724.1,217.5,724.1,214.5z M725.3,214.5c0,2.4,1.9,4.3,4.2,4.3c2.3,0,4.2-1.9,4.2-4.3c0-2.4-1.9-4.3-4.2-4.3
		C727.2,210.2,725.3,212.1,725.3,214.5z"/>
	<path fill="#FFFFFF" d="M737.8,223.2h-1.1v-10h1.1v0.9c0.8-0.9,1.7-1.1,2.2-1.1c2,0,3.1,1.7,3.1,3.4c0,1.8-1.1,3.4-3.1,3.4
		c-1,0-1.8-0.5-2.3-1.1V223.2z M742,216.5c0-1.6-1.1-2.4-2.1-2.4s-2.1,0.9-2.1,2.4c0,1.3,0.8,2.4,2.2,2.4
		C741.2,218.8,742,217.7,742,216.5z"/>
	<path fill="#FFFFFF" d="M746,214.2v5.4h-1.1v-5.4h-0.7v-1h0.7v-2.3h1.1v2.3h1.1v1H746z"/>
	<path fill="#FFFFFF" d="M748.8,210c0.4,0,0.8,0.4,0.8,0.8c0,0.4-0.4,0.8-0.8,0.8s-0.8-0.4-0.8-0.8C748,210.3,748.3,210,748.8,210z
		 M749.3,213.2v6.4h-1.1v-6.4H749.3z"/>
	<path fill="#FFFFFF" d="M751.4,213.2h1.1v0.7c0.4-0.5,0.9-0.8,1.6-0.8c1.2,0,1.6,0.8,1.8,1c0.6-1,1.5-1,1.9-1
		c1.9,0,2.1,1.6,2.1,2.5v4.1h-1.1v-3.9c0-0.7-0.1-1.7-1.1-1.7c-1.3,0-1.4,1.2-1.4,2v3.6h-1.1v-3.8c0-0.5,0-1.8-1.2-1.8
		c-1.3,0-1.4,1.3-1.4,2.1v3.5h-1.1V213.2z"/>
	<path fill="#FFFFFF" d="M762.6,210c0.4,0,0.8,0.4,0.8,0.8c0,0.4-0.4,0.8-0.8,0.8s-0.8-0.4-0.8-0.8C761.8,210.3,762.2,210,762.6,210
		z M763.2,213.2v6.4h-1.1v-6.4H763.2z"/>
	<path fill="#FFFFFF" d="M766.6,218.6h4.5v1h-6.7l4.7-5.4h-3.8v-1h6L766.6,218.6z"/>
	<path fill="#FFFFFF" d="M778,218c-0.2,0.4-0.5,0.7-0.8,1c-0.6,0.5-1.3,0.8-2.1,0.8c-1.6,0-3.2-1-3.2-3.4c0-1.9,1.2-3.4,3.1-3.4
		c1.3,0,2.1,0.6,2.4,1.2c0.4,0.6,0.6,1.6,0.6,2.4h-5c0,1.3,0.9,2.2,2.1,2.2c0.5,0,0.9-0.2,1.3-0.5c0.3-0.2,0.5-0.6,0.7-0.9L778,218z
		 M776.9,215.7c-0.2-1-0.9-1.7-1.9-1.7s-1.7,0.7-1.9,1.7H776.9z"/>
	<path fill="#FFFFFF" d="M730.4,227.9h2.1c1,0,2.5,0.1,3.8,1.2c0.9,0.8,1.8,2.1,1.8,4c0,2.2-1.1,3.3-1.8,4c-0.9,0.8-1.9,1.2-3.8,1.2
		h-2.1V227.9z M731.5,237.2h1c0.8,0,2-0.1,3-0.9c0.8-0.7,1.4-1.7,1.4-3.2c0-2.5-1.7-4.1-4.4-4.1h-1V237.2z"/>
	<path fill="#FFFFFF" d="M745.6,236.6c-0.2,0.4-0.5,0.7-0.8,1c-0.6,0.5-1.3,0.8-2.1,0.8c-1.6,0-3.2-1-3.2-3.4c0-1.9,1.2-3.4,3.1-3.4
		c1.3,0,2.1,0.6,2.4,1.2c0.4,0.6,0.6,1.6,0.6,2.4h-5c0,1.3,0.9,2.2,2.1,2.2c0.5,0,0.9-0.2,1.3-0.5c0.3-0.2,0.5-0.6,0.7-0.9
		L745.6,236.6z M744.5,234.3c-0.2-1-0.9-1.7-1.9-1.7c-0.9,0-1.7,0.7-1.9,1.7H744.5z"/>
	<path fill="#FFFFFF" d="M748.5,241.8h-1.1v-10h1.1v0.9c0.8-0.9,1.7-1.1,2.2-1.1c2,0,3.1,1.7,3.1,3.4c0,1.8-1.1,3.4-3.1,3.4
		c-1,0-1.8-0.5-2.3-1.1V241.8z M752.7,235.1c0-1.6-1.1-2.4-2.1-2.4c-1,0-2.1,0.9-2.1,2.4c0,1.3,0.8,2.4,2.2,2.4
		C751.9,237.5,752.7,236.4,752.7,235.1z"/>
	<path fill="#FFFFFF" d="M756.7,226.9v11.3h-1.1v-11.3H756.7z"/>
	<path fill="#FFFFFF" d="M758.4,235.1c0-2,1.4-3.4,3.4-3.4s3.4,1.4,3.4,3.4c0,2-1.5,3.4-3.4,3.4S758.4,237,758.4,235.1z
		 M759.5,235.1c0,1.6,1.1,2.4,2.3,2.4c1.2,0,2.3-0.8,2.3-2.4c0-1.6-1.1-2.4-2.3-2.4S759.5,233.5,759.5,235.1z"/>
	<path fill="#FFFFFF" d="M768.9,237.7l-3-5.8h1.3l2.3,4.6l2.1-4.6h1.2l-4.7,10h-1.2L768.9,237.7z"/>
</g>
<g>
	<circle fill="#9E0A0A" cx="113.3" cy="104.3" r="31.9"/>
	<path opacity="0.45" fill="#2B2A27" d="M112.4,136.2c18.1,0,32.1-12.8,32.8-30.9c0.7-18.2-13.8-33.8-32.8-32.8"/>
	<circle fill="#9E0A0A" cx="113.3" cy="104.3" r="20.4"/>
	<g>
		<rect x="97.9" y="94.9" fill="none" width="28.9" height="34.2"/>
		<path fill="#FFFFFF" d="M111.8,98.8l-3.2,0l1.1-2h4.3l0,19.3h-2.1L111.8,98.8z"/>
	</g>
</g>
<g>
	<circle fill="#0D8E9B" cx="277" cy="104.3" r="31.9"/>
	<path opacity="0.45" fill="#2B2A27" d="M276,72.4c19.1-1,33.6,14.6,32.8,32.8c-0.7,18.1-14.7,30.9-32.8,30.9"/>
	<circle fill="#0D8E9B" cx="277" cy="104.3" r="20.4"/>
	<g>
		<rect x="262.2" y="95" fill="none" width="28.9" height="34.2"/>
		<path fill="#FFFFFF" d="M269.9,116.1l7-8.1c0.5-0.6,1.8-2.1,2.3-2.8c0.9-1.2,1.1-2.2,1.1-3c0-2.2-1.6-3.8-3.9-3.8
			c-1.4,0-2.5,0.6-3.2,1.7c-0.4,0.6-0.6,1.3-0.6,2.3h-2.1c0.1-1.9,0.7-3.1,1.4-4c0.8-0.9,2.2-2,4.6-2c3.4,0,6,2.4,6,5.8
			c0,1.3-0.4,2.5-1.5,4.1c-0.8,1.1-1.9,2.3-2.6,3.2l-4,4.5h8.2v2L269.9,116.1z"/>
	</g>
</g>
<g>
	<circle fill="#D3B311" cx="431.6" cy="104.3" r="31.9"/>
	<path opacity="0.45" fill="#2B2A27" d="M430.6,72.5c19.1-1,33.6,14.6,32.8,32.8c-0.7,18.1-14.7,30.9-32.8,30.9"/>
	<circle fill="#D3B311" cx="431.6" cy="104.3" r="20.4"/>
	<g>
		<rect x="416.9" y="95" fill="none" width="28.9" height="34.2"/>
		<path fill="#FFFFFF" d="M425.6,101.6c0.1-1.1,0.4-2.1,0.9-2.8c1.3-2,3.3-2.3,4.5-2.3c3.6,0,5.4,2.5,5.4,5.2c0,1.4-0.5,3.3-2.5,4.3
			c0.7,0.3,2.8,1.3,2.8,4.7c0,3.6-2.6,5.8-5.9,5.8c-2,0-4.3-0.8-5.4-3.3c-0.3-0.7-0.4-1.3-0.4-2h2.1c0.1,0.7,0.3,1.4,0.7,1.9
			c0.6,0.9,1.8,1.4,3,1.4c2.1,0,3.8-1.8,3.8-3.9c0-1.1-0.4-2.6-1.9-3.2c-0.6-0.3-1.4-0.4-2.2-0.4l0-1.9c0.8,0.1,1.6-0.1,2.2-0.4
			c0.6-0.3,1.6-1.1,1.6-2.9c0-1.7-0.9-3.3-3.3-3.3c-0.8,0-1.7,0.1-2.5,1.1c-0.4,0.5-0.7,1.2-0.8,2H425.6z"/>
	</g>
</g>
<g>
	<circle fill="#9E0A0A" cx="589.7" cy="104.3" r="31.9"/>
	<path opacity="0.45" fill="#2B2A27" d="M588.8,72.5c19.1-1,33.6,14.6,32.8,32.8c-0.7,18.1-14.7,30.9-32.8,30.9"/>
	<circle fill="#9E0A0A" cx="589.7" cy="104.3" r="20.4"/>
	<g>
		<rect x="572.5" y="95" fill="none" width="28.9" height="34.2"/>
		<path fill="#FFFFFF" d="M591.3,110.5h2.4v2h-2.4v3.6h-2.1v-3.6l-9.9,0l12-16.7V110.5z M589.2,110.5l0-8.5l-6.1,8.5L589.2,110.5z"
			/>
	</g>
</g>
<g>
	<circle fill="#0D8E9B" cx="751" cy="104.3" r="31.9"/>
	<path opacity="0.45" fill="#2B2A27" d="M750,72.5c19.1-1,33.6,14.6,32.8,32.8c-0.7,18.1-14.7,30.9-32.8,30.9"/>
	<circle fill="#0D8E9B" cx="751" cy="104.3" r="20.4"/>
	<g>
		<rect x="736.3" y="95" fill="none" width="28.9" height="34.2"/>
		<path fill="#FFFFFF" d="M756.4,98.8h-6.2l-1.2,4.2c0.4-0.1,0.8-0.1,1.2-0.1c3.9,0,6.4,2.9,6.4,6.7c0,4.3-3.2,6.9-7,6.9
			c-1.6,0-3-0.4-4.3-1.5c-0.6-0.5-1.2-1.2-1.7-2l1.7-1.2c0.3,0.6,0.7,1.1,1.3,1.6c0.8,0.7,1.8,1.2,3.1,1.2c2.7,0,4.7-2.2,4.7-4.9
			c0-2.8-2-4.7-4.7-4.7c-0.7,0-2,0.1-3.7,1.3l2.8-9.3h7.7V98.8z"/>
	</g>
</g>
<g>
	<path fill="none" stroke="#FFFFFF" stroke-miterlimit="10" stroke-dasharray="12" d="M714.2,56.9c-69.9-64.1-145.7,0-145.7,0
		c-69.6-61.8-142,0-142,0c-65.5-61-138.9,0-138.9,0c-81.9-60.4-147,0-147,0"/>
	<polyline fill="none" stroke="#FFFFFF" stroke-miterlimit="10" points="711.3,62.6 720.6,64.4 720.6,56.9 	"/>
</g>
<g>
</g>
<g>
</g>
<g>
</g>
<g>
</g>
<g>
</g>
<g>
</g>
</svg>
