<?xml version="1.0" encoding="utf-8"?>
<!-- Generator: Adobe Illustrator 18.1.1, SVG Export Plug-In . SVG Version: 6.00 Build 0)  -->
<!DOCTYPE svg PUBLIC "-//W3C//DTD SVG 1.1//EN" "http://www.w3.org/Graphics/SVG/1.1/DTD/svg11.dtd">
<svg version="1.1" id="Layer_1" xmlns="http://www.w3.org/2000/svg" xmlns:xlink="http://www.w3.org/1999/xlink" x="0px" y="0px"
	 viewBox="0 0 338.3 700" enable-background="new 0 0 338.3 700" xml:space="preserve">
<g>
	<path fill="#FFFFFF" d="M-591.2-63.3h4.1V-90h-4.1v-1.7h12.6c2.6,0,4.4,0.2,6.5,0.8c5.6,1.9,9.1,7.1,9.1,14.3
		c0,7.5-3.7,12.6-9.8,14.4c-1.8,0.5-3.6,0.6-5.7,0.6h-12.6V-63.3z M-578.9-63.3c2.1,0,3.8-0.2,5.5-0.7c5.1-1.5,8.4-6,8.4-12.6
		c0-6.4-3-10.9-8-12.6c-1.9-0.6-3.7-0.7-6-0.7h-6.3v26.7H-578.9z"/>
	<path fill="#FFFFFF" d="M-558.3-63.3h4.1V-90h-4.1v-1.7h20.8v5.6h-1.8V-90h-13v12.3h12v1.7h-12v12.6h13.9v-4.1h1.8v5.8h-21.6V-63.3
		z"/>
	<path fill="#FFFFFF" d="M-529.5-69.4v2.2c0,2.8,3.4,4.4,7.2,4.4c4.3,0,7.4-2.2,7.4-6.2c0-4.4-3.7-5.9-7.8-7.4
		c-3.9-1.5-8.1-2.9-8.1-8.1c0-4.9,3.9-7.6,8.7-7.6c4.1,0,8.3,1.6,8.3,4.4v2.9h-1.9v-2.3c0-2.1-3.5-3.3-6.4-3.3c-3.8,0-6.8,2-6.8,5.6
		c0,4,3.4,5.2,7.3,6.8c4.3,1.7,8.6,3.3,8.6,8.8c0,4.9-3.8,8.2-9.3,8.2c-4,0-9.1-1.8-9.1-5.7v-2.6H-529.5z"/>
	<path fill="#FFFFFF" d="M-508.1-63.3h4.1V-90h-4.1v-1.7h10v1.7h-4.1v26.7h4.1v1.7h-10V-63.3z"/>
	<path fill="#FFFFFF" d="M-478-92.2c5.1,0,11.1,2.1,11.1,5.9v2.9h-1.9v-2.3c0-3.2-5.2-4.8-9.3-4.8c-8.2,0-13.5,6-13.5,13.8
		c0,7.9,5.5,13.8,13.4,13.8c3.2,0,10.2-1.1,10.2-4.9v-5.4h-6.7v-1.7h8.5v7.3c0,4.7-7.3,6.5-11.9,6.5c-9.2,0-15.5-6.8-15.5-15.6
		C-493.5-85.4-487.4-92.2-478-92.2z"/>
	<path fill="#FFFFFF" d="M-460.9-63.3h4.1V-90h-4.1v-1.7h5.8l18.7,25.7c0.4,0.6,0.8,1.5,0.8,1.5h0.1c0,0-0.2-1.1-0.1-1.8V-90h-4.1
		v-1.7h10v1.7h-4.1v28.4h-1.7l-18.7-25.8c-0.4-0.6-0.8-1.5-0.8-1.5h-0.1c0,0,0.2,1.1,0.1,1.8v23.8h4.1v1.7h-10V-63.3z"/>
	<path fill="#FFFFFF" d="M-414.7-63.3h4.1V-90h-4.1v-1.7h13.3c1.9,0,3.8,0.2,5.2,0.9c2.8,1.3,4.6,4.2,4.6,7.9c0,4-2.1,7.1-5.4,8.3
		c-1.4,0.5-2.8,0.6-4.4,0.6h-7.4v10.8h4.1v1.7h-10V-63.3z M-401.5-75.8c1.5,0,2.8-0.2,3.9-0.6c2.5-0.9,4-3.3,4-6.6
		c0-3.1-1.3-5.2-3.6-6.3c-1.1-0.5-2.7-0.8-4.4-0.8h-7.3v14.2H-401.5z"/>
	<path fill="#FFFFFF" d="M-387.6-63.3h4.1V-90h-4.1v-1.7h12.7c2,0,3.5,0.1,5.2,0.7c2.8,1.1,4.6,3.4,4.6,7.3c0,4.6-2.8,8.1-7.2,8.6
		v0.1c0,0,0.4,0.3,0.9,1.1l5.7,9.6c0.5,0.9,1,1,2.2,1h0.8v1.7h-0.8c-2.6,0-3-0.3-4.1-2.3l-5.4-9.1c-0.9-1.5-1.5-2-3.6-2h-5v11.6h4.1
		v1.7h-10V-63.3z M-373.8-76.6c4,0,6.7-2.8,6.7-7c0-3.1-1.4-4.9-3.7-5.8c-1.2-0.4-2.7-0.6-4.3-0.6h-6.7v13.3H-373.8z"/>
	<path fill="#FFFFFF" d="M-343.7-92.2c8.4,0,15.2,6.7,15.2,15.4c0,8.9-6.8,15.8-15.2,15.8s-15.2-6.9-15.2-15.8
		C-358.9-85.5-352.1-92.2-343.7-92.2z M-343.7-62.8c7.4,0,13.3-6.1,13.3-14c0-7.7-5.9-13.6-13.3-13.6S-357-84.5-357-76.8
		C-357-68.9-351-62.8-343.7-62.8z"/>
	<path fill="#FFFFFF" d="M-308.3-92.2c3.6,0,11,1.4,11,6v2.8h-1.9v-2.4c0-3.3-5.7-4.6-9-4.6c-7.5,0-13.2,5.8-13.2,13.6
		c0,7.8,5.7,14,13.4,14c2.7,0,9.4-1.1,9.4-4.6v-2.4h1.9v2.8c0,4.3-7.1,5.9-11.3,5.9c-8.9,0-15.3-7.1-15.3-15.8
		C-323.4-85.6-316.9-92.2-308.3-92.2z"/>
	<path fill="#FFFFFF" d="M-291.8-63.3h4.1V-90h-4.1v-1.7h20.8v5.6h-1.8V-90h-13v12.3h12v1.7h-12v12.6h13.9v-4.1h1.8v5.8h-21.6V-63.3
		z"/>
	<path fill="#FFFFFF" d="M-263-69.4v2.2c0,2.8,3.4,4.4,7.2,4.4c4.3,0,7.4-2.2,7.4-6.2c0-4.4-3.7-5.9-7.8-7.4
		c-3.9-1.5-8.1-2.9-8.1-8.1c0-4.9,3.9-7.6,8.7-7.6c4.1,0,8.3,1.6,8.3,4.4v2.9h-1.9v-2.3c0-2.1-3.5-3.3-6.4-3.3c-3.8,0-6.8,2-6.8,5.6
		c0,4,3.4,5.2,7.3,6.8c4.3,1.7,8.6,3.3,8.6,8.8c0,4.9-3.8,8.2-9.3,8.2c-4,0-9.1-1.8-9.1-5.7v-2.6H-263z"/>
	<path fill="#FFFFFF" d="M-239.2-69.4v2.2c0,2.8,3.4,4.4,7.2,4.4c4.3,0,7.4-2.2,7.4-6.2c0-4.4-3.7-5.9-7.8-7.4
		c-3.9-1.5-8.1-2.9-8.1-8.1c0-4.9,3.9-7.6,8.7-7.6c4.1,0,8.3,1.6,8.3,4.4v2.9h-1.9v-2.3c0-2.1-3.5-3.3-6.4-3.3c-3.8,0-6.8,2-6.8,5.6
		c0,4,3.4,5.2,7.3,6.8c4.3,1.7,8.6,3.3,8.6,8.8c0,4.9-3.8,8.2-9.3,8.2c-4,0-9.1-1.8-9.1-5.7v-2.6H-239.2z"/>
</g>
<ellipse opacity="0.22" fill="#2B2A27" cx="206.3" cy="245.6" rx="112.8" ry="101"/>
<ellipse opacity="0.22" fill="#2B2A27" cx="207" cy="359.5" rx="112.8" ry="101"/>
<ellipse opacity="0.22" fill="#2B2A27" cx="207" cy="472.6" rx="112.8" ry="101"/>
<ellipse opacity="0.22" fill="#2B2A27" cx="207" cy="592.6" rx="112.8" ry="101"/>
<ellipse opacity="0.22" fill="#2B2A27" cx="206.3" cy="117.8" rx="112.8" ry="101"/>
<g>
	<rect x="150.3" y="204.2" fill="none" width="108.3" height="24.3"/>
	<path fill="#FFFFFF" d="M167.1,218.2h2v-13.1h-2v-0.8h4.9v0.8h-2v13.1h2v0.8h-4.9V218.2z"/>
	<path fill="#FFFFFF" d="M174.3,218.2h2v-13.1h-2v-0.8h6.2c1.3,0,2.2,0.1,3.2,0.4c2.8,0.9,4.5,3.5,4.5,7c0,3.7-1.8,6.2-4.9,7.1
		c-0.9,0.3-1.8,0.3-2.8,0.3h-6.2V218.2z M180.3,218.2c1,0,1.9-0.1,2.7-0.3c2.5-0.8,4.1-3,4.1-6.2c0-3.1-1.5-5.4-3.9-6.2
		c-0.9-0.3-1.8-0.4-2.9-0.4h-3.1v13.1H180.3z"/>
	<path fill="#FFFFFF" d="M190.5,218.2h2v-13.1h-2v-0.8h10.2v2.8h-0.9v-1.9h-6.4v6.1h5.9v0.8h-5.9v6.2h6.8v-2h0.9v2.9h-10.7V218.2z"
		/>
	<path fill="#FFFFFF" d="M202.6,218.2h1.6l5.2-14h1l5.2,14h1.6v0.8h-4.4v-0.8h1.8l-1.6-4.3h-6.3l-1.6,4.3h1.8v0.8h-4.4V218.2z
		 M212.7,213.1l-2.6-6.9c-0.1-0.4-0.2-0.8-0.2-0.8h0c0,0-0.1,0.4-0.2,0.8l-2.6,6.9H212.7z"/>
	<path fill="#FFFFFF" d="M220.6,218.2h2v-13.1h-4.7v2.5h-0.9v-3.3h12.2v3.3h-0.9v-2.5h-4.7v13.1h2v0.8h-4.9V218.2z"/>
	<path fill="#FFFFFF" d="M231,218.2h2v-13.1h-2v-0.8h10.2v2.8h-0.9v-1.9h-6.4v6.1h5.9v0.8h-5.9v6.2h6.8v-2h0.9v2.9H231V218.2z"/>
</g>
<g>
	<rect x="150.3" y="316.8" fill="none" width="108.3" height="24.3"/>
	<path fill="#FFFFFF" d="M164.8,330.8h2v-13.1h-2v-0.8h6.2c1.3,0,2.2,0.1,3.2,0.4c2.8,0.9,4.5,3.5,4.5,7c0,3.7-1.8,6.2-4.9,7.1
		c-0.9,0.3-1.8,0.3-2.8,0.3h-6.2V330.8z M170.8,330.8c1,0,1.9-0.1,2.7-0.3c2.5-0.8,4.1-3,4.1-6.2c0-3.1-1.5-5.4-3.9-6.2
		c-0.9-0.3-1.8-0.4-2.9-0.4h-3.1v13.1H170.8z"/>
	<path fill="#FFFFFF" d="M180.9,330.8h2v-13.1h-2v-0.8h10.2v2.8h-0.9v-1.9h-6.4v6.1h5.9v0.8h-5.9v6.2h6.8v-2h0.9v2.9h-10.7V330.8z"
		/>
	<path fill="#FFFFFF" d="M195.1,327.8v1.1c0,1.4,1.7,2.2,3.5,2.2c2.1,0,3.6-1.1,3.6-3c0-2.2-1.8-2.9-3.8-3.7c-1.9-0.7-4-1.4-4-4
		c0-2.4,1.9-3.7,4.3-3.7c2,0,4.1,0.8,4.1,2.2v1.4h-0.9v-1.1c0-1-1.7-1.6-3.2-1.6c-1.9,0-3.3,1-3.3,2.8c0,2,1.7,2.6,3.6,3.3
		c2.1,0.8,4.2,1.6,4.2,4.3c0,2.4-1.9,4-4.6,4c-2,0-4.5-0.9-4.5-2.8v-1.3H195.1z"/>
	<path fill="#FFFFFF" d="M205.7,330.8h2v-13.1h-2v-0.8h4.9v0.8h-2v13.1h2v0.8h-4.9V330.8z"/>
	<path fill="#FFFFFF" d="M220.5,316.6c2.5,0,5.5,1.1,5.5,2.9v1.4h-0.9v-1.1c0-1.6-2.6-2.4-4.6-2.4c-4,0-6.7,3-6.7,6.8
		c0,3.9,2.7,6.8,6.6,6.8c1.6,0,5-0.5,5-2.4V326h-3.3v-0.8h4.2v3.6c0,2.3-3.6,3.2-5.8,3.2c-4.6,0-7.6-3.3-7.6-7.7
		C212.9,319.9,215.9,316.6,220.5,316.6z"/>
	<path fill="#FFFFFF" d="M228.9,330.8h2v-13.1h-2v-0.8h2.8l9.2,12.7c0.2,0.3,0.4,0.8,0.4,0.8h0c0,0-0.1-0.6-0.1-0.9v-11.7h-2v-0.8
		h4.9v0.8h-2v14h-0.8l-9.2-12.7c-0.2-0.3-0.4-0.8-0.4-0.8h0c0,0,0.1,0.6,0.1,0.9v11.7h2v0.8h-4.9V330.8z"/>
</g>
<g>
	<rect x="150.3" y="434.9" fill="none" width="108.3" height="24.3"/>
	<path fill="#FFFFFF" d="M182.8,448.9h2v-13.1h-4.7v2.5h-0.9v-3.3h12.2v3.3h-0.9v-2.5h-4.7v13.1h2v0.8h-4.9V448.9z"/>
	<path fill="#FFFFFF" d="M193.2,448.9h2v-13.1h-2v-0.8h10.2v2.8h-0.9v-1.9h-6.4v6.1h5.9v0.8h-5.9v6.2h6.8v-2h0.9v2.9h-10.7V448.9z"
		/>
	<path fill="#FFFFFF" d="M207.4,445.9v1.1c0,1.4,1.7,2.2,3.5,2.2c2.1,0,3.6-1.1,3.6-3c0-2.2-1.8-2.9-3.8-3.7c-1.9-0.7-4-1.4-4-4
		c0-2.4,1.9-3.7,4.3-3.7c2,0,4.1,0.8,4.1,2.2v1.4h-0.9v-1.1c0-1-1.7-1.6-3.2-1.6c-1.9,0-3.3,1-3.3,2.8c0,2,1.7,2.6,3.6,3.3
		c2.1,0.8,4.2,1.6,4.2,4.3c0,2.4-1.9,4-4.6,4c-2,0-4.5-0.9-4.5-2.8v-1.3H207.4z"/>
	<path fill="#FFFFFF" d="M221.2,448.9h2v-13.1h-4.7v2.5h-0.9v-3.3h12.2v3.3h-0.9v-2.5h-4.7v13.1h2v0.8h-4.9V448.9z"/>
</g>
<g>
	<rect x="150.3" y="549.1" fill="none" width="108.3" height="24.3"/>
	<path fill="#FFFFFF" d="M161.3,563h2v-13.1h-2V549h4.9v0.8h-2V563h2v0.8h-4.9V563z"/>
	<path fill="#FFFFFF" d="M171.7,563h2v-13.1H169v2.5h-0.9V549h12.2v3.3h-0.9v-2.5h-4.7V563h2v0.8h-4.9V563z"/>
	<path fill="#FFFFFF" d="M182.1,563h2v-13.1h-2V549h10.2v2.8h-0.9v-1.9H185v6.1h5.9v0.8H185v6.2h6.8v-2h0.9v2.9h-10.7V563z"/>
	<path fill="#FFFFFF" d="M195.1,563h2v-13.1h-2V549h6.2c1,0,1.7,0.1,2.5,0.3c1.4,0.5,2.3,1.7,2.3,3.6c0,2.3-1.4,4-3.5,4.2v0
		c0,0,0.2,0.2,0.4,0.5l2.8,4.7c0.3,0.4,0.5,0.5,1.1,0.5h0.4v0.8H207c-1.3,0-1.5-0.2-2-1.1l-2.6-4.5c-0.4-0.8-0.7-1-1.8-1h-2.5v5.7h2
		v0.8h-4.9V563z M202,556.5c1.9,0,3.3-1.4,3.3-3.4c0-1.5-0.7-2.4-1.8-2.8c-0.6-0.2-1.3-0.3-2.1-0.3h-3.3v6.6H202z"/>
	<path fill="#FFFFFF" d="M208.4,563h1.6l5.2-14h1l5.2,14h1.6v0.8h-4.4V563h1.8l-1.6-4.3h-6.3L211,563h1.8v0.8h-4.4V563z
		 M218.5,557.9l-2.6-6.9c-0.1-0.4-0.2-0.8-0.2-0.8h0c0,0-0.1,0.4-0.2,0.8l-2.6,6.9H218.5z"/>
	<path fill="#FFFFFF" d="M226.4,563h2v-13.1h-4.7v2.5h-0.9V549h12.2v3.3H234v-2.5h-4.7V563h2v0.8h-4.9V563z"/>
	<path fill="#FFFFFF" d="M236.8,563h2v-13.1h-2V549H247v2.8h-0.9v-1.9h-6.4v6.1h5.9v0.8h-5.9v6.2h6.8v-2h0.9v2.9h-10.7V563z"/>
</g>
<g>
	<rect x="150.3" y="86.9" fill="none" width="108.3" height="24.3"/>
	<path fill="#FFFFFF" d="M155.7,100.9h2V87.8h-2v-0.8h4.9v0.8h-2v13.1h2v0.8h-4.9V100.9z"/>
	<path fill="#FFFFFF" d="M162.8,100.9h2V87.8h-2v-0.8h6.2c1.3,0,2.2,0.1,3.2,0.4c2.8,0.9,4.5,3.5,4.5,7c0,3.7-1.8,6.2-4.9,7.1
		c-0.9,0.3-1.8,0.3-2.8,0.3h-6.2V100.9z M168.9,100.9c1,0,1.9-0.1,2.7-0.3c2.5-0.8,4.1-3,4.1-6.2c0-3.1-1.5-5.4-3.9-6.2
		c-0.9-0.3-1.8-0.4-2.9-0.4h-3.1v13.1H168.9z"/>
	<path fill="#FFFFFF" d="M179,100.9h2V87.8h-2v-0.8h10.2v2.8h-0.9v-1.9h-6.4v6.1h5.9v0.8h-5.9v6.2h6.8v-2h0.9v2.9H179V100.9z"/>
	<path fill="#FFFFFF" d="M192,100.9h2V87.8h-2v-0.8h2.8l9.2,12.7c0.2,0.3,0.4,0.8,0.4,0.8h0c0,0-0.1-0.6-0.1-0.9V87.8h-2v-0.8h4.9
		v0.8h-2v14h-0.8l-9.2-12.7c-0.2-0.3-0.4-0.8-0.4-0.8h0c0,0,0.1,0.6,0.1,0.9v11.7h2v0.8H192V100.9z"/>
	<path fill="#FFFFFF" d="M212.7,100.9h2V87.8H210v2.5h-0.9v-3.3h12.2v3.3h-0.9v-2.5h-4.7v13.1h2v0.8h-4.9V100.9z"/>
	<path fill="#FFFFFF" d="M223.1,100.9h2V87.8h-2v-0.8h4.9v0.8h-2v13.1h2v0.8h-4.9V100.9z"/>
	<path fill="#FFFFFF" d="M230.3,100.9h2V87.8h-2v-0.8h9.7v2.9h-0.9v-2h-5.9V94h5.7v0.8h-5.7v6.1h2.1v0.8h-5V100.9z"/>
	<path fill="#FFFFFF" d="M245.1,100.9h2v-5.6l-4.6-7.5h-1.5v-0.8h4.3v0.8h-1.8l3.6,6.1c0.1,0.2,0.3,0.5,0.3,0.5h0
		c0,0,0.1-0.3,0.3-0.5l3.7-6.1h-1.8v-0.8h4.3v0.8h-1.5l-4.6,7.5v5.6h2v0.8h-4.9V100.9z"/>
</g>
<g>
	<rect x="123.2" y="115.7" fill="none" width="162.6" height="71.9"/>
	<path fill="#FFFFFF" d="M186.2,116.6h2.1c1,0,2.5,0.1,3.8,1.2c0.9,0.8,1.8,2.1,1.8,4c0,2.2-1.1,3.3-1.8,4c-0.9,0.8-1.9,1.2-3.8,1.2
		h-2.1V116.6z M187.3,125.9h1c0.8,0,2-0.1,3-0.9c0.8-0.7,1.4-1.7,1.4-3.2c0-2.5-1.7-4.1-4.4-4.1h-1V125.9z"/>
	<path fill="#FFFFFF" d="M201.4,125.3c-0.2,0.4-0.5,0.7-0.8,1c-0.6,0.5-1.3,0.8-2.1,0.8c-1.6,0-3.2-1-3.2-3.4c0-1.9,1.2-3.4,3.1-3.4
		c1.3,0,2.1,0.6,2.4,1.2c0.4,0.6,0.6,1.6,0.6,2.4h-5c0,1.3,0.9,2.2,2.1,2.2c0.5,0,0.9-0.2,1.3-0.5c0.3-0.2,0.5-0.6,0.7-0.9
		L201.4,125.3z M200.3,123.1c-0.2-1-0.9-1.7-1.9-1.7c-0.9,0-1.7,0.7-1.9,1.7H200.3z"/>
	<path fill="#FFFFFF" d="M204.3,121.6v5.4h-1.1v-5.4h-0.6v-1h0.6v-2.4c0-0.7,0-1.2,0.4-1.7c0.3-0.4,0.9-0.9,2.1-0.9
		c0.5,0,1.6,0.1,2.1,0.9c0.4,0.6,0.4,1.2,0.4,1.7v0.3h-1.1v-0.3c0-0.2,0-0.7-0.2-1c-0.2-0.3-0.5-0.5-1.2-0.5c-0.6,0-1,0.2-1.2,0.5
		c-0.2,0.3-0.2,0.7-0.2,1v2.4h1.6v1H204.3z M208.2,120.5v6.4h-1.1v-6.4H208.2z"/>
	<path fill="#FFFFFF" d="M210.3,120.5h1.1v0.7c0.2-0.3,0.8-0.9,1.8-0.9c0.8,0,1.5,0.3,1.8,0.9c0.3,0.5,0.4,1,0.4,1.7v4h-1.1v-4
		c0-0.4,0-0.8-0.3-1.2c-0.2-0.3-0.6-0.5-1.1-0.5c-0.4,0-0.8,0.1-1.1,0.5c-0.4,0.5-0.5,1.3-0.5,1.7v3.4h-1.1V120.5z"/>
	<path fill="#FFFFFF" d="M223.3,125.3c-0.2,0.4-0.5,0.7-0.8,1c-0.6,0.5-1.3,0.8-2.1,0.8c-1.6,0-3.2-1-3.2-3.4c0-1.9,1.2-3.4,3.1-3.4
		c1.3,0,2.1,0.6,2.4,1.2c0.4,0.6,0.6,1.6,0.6,2.4h-5c0,1.3,0.9,2.2,2.1,2.2c0.5,0,0.9-0.2,1.3-0.5c0.3-0.2,0.5-0.6,0.7-0.9
		L223.3,125.3z M222.2,123.1c-0.2-1-0.9-1.7-1.9-1.7c-0.9,0-1.7,0.7-1.9,1.7H222.2z"/>
	<path fill="#FFFFFF" d="M172,141.6c0,0.9,0,1.8,0.8,2.5c0.4,0.4,1.1,0.6,1.7,0.6c0.6,0,1.3-0.2,1.7-0.6c0.8-0.7,0.8-1.6,0.8-2.5
		v-6.4h1.1v6.7c0,0.9-0.1,1.7-0.7,2.5c-0.6,0.9-1.7,1.4-3,1.4s-2.4-0.5-3-1.4c-0.6-0.8-0.7-1.6-0.7-2.5v-6.7h1.1V141.6z"/>
	<path fill="#FFFFFF" d="M180.6,139.2h1.1v0.7c0.2-0.3,0.8-0.9,1.8-0.9c0.8,0,1.5,0.3,1.8,0.9c0.3,0.5,0.4,1,0.4,1.7v4h-1.1v-4
		c0-0.4,0-0.8-0.3-1.2c-0.2-0.3-0.6-0.5-1.1-0.5c-0.4,0-0.8,0.1-1.1,0.5c-0.4,0.5-0.5,1.3-0.5,1.7v3.4h-1.1V139.2z"/>
	<path fill="#FFFFFF" d="M192.9,134.3h1.1v11.3h-1.1v-0.9c-0.4,0.5-1.1,1.1-2.2,1.1c-1.6,0-3.1-1.1-3.1-3.4c0-2.2,1.5-3.4,3.1-3.4
		c1.2,0,1.9,0.7,2.2,1.1V134.3z M188.7,142.4c0,1.4,0.8,2.4,2.1,2.4c1.4,0,2.1-1.1,2.1-2.4c0-1.7-1.1-2.4-2.1-2.4
		C189.7,140,188.7,140.8,188.7,142.4z"/>
	<path fill="#FFFFFF" d="M201.8,144c-0.2,0.4-0.5,0.7-0.8,1c-0.6,0.5-1.3,0.8-2.1,0.8c-1.6,0-3.2-1-3.2-3.4c0-1.9,1.2-3.4,3.1-3.4
		c1.3,0,2.1,0.6,2.4,1.2c0.4,0.6,0.6,1.6,0.6,2.4h-5c0,1.3,0.9,2.2,2.1,2.2c0.5,0,0.9-0.2,1.3-0.5c0.3-0.2,0.5-0.6,0.7-0.9
		L201.8,144z M200.7,141.7c-0.2-1-0.9-1.7-1.9-1.7c-0.9,0-1.7,0.7-1.9,1.7H200.7z"/>
	<path fill="#FFFFFF" d="M203.6,139.2h1.1v0.7c0.1-0.2,0.6-0.9,1.5-0.9c0.3,0,0.7,0.1,1,0.3l-0.5,1c-0.2-0.2-0.5-0.2-0.7-0.2
		c-0.5,0-0.7,0.2-0.9,0.4c-0.2,0.2-0.4,0.7-0.4,1.7v3.4h-1.1V139.2z"/>
	<path fill="#FFFFFF" d="M210.6,140.7c-0.2-0.4-0.5-0.7-0.9-0.7c-0.4,0-0.8,0.2-0.8,0.7c0,0.5,0.3,0.6,1,0.9c0.9,0.4,1.4,0.7,1.6,1
		c0.3,0.3,0.3,0.7,0.3,1c0,1.4-1,2.1-2.2,2.1c-0.3,0-1.7,0-2.3-1.6l1-0.4c0.1,0.3,0.5,1.1,1.3,1.1c0.7,0,1.1-0.5,1.1-1
		c0-0.6-0.4-0.8-1-1.1c-0.8-0.3-1.3-0.6-1.6-0.9c-0.2-0.3-0.3-0.6-0.3-0.9c0-1.1,0.8-1.8,1.9-1.8c0.3,0,1.3,0.1,1.8,1.2L210.6,140.7
		z"/>
	<path fill="#FFFFFF" d="M214.6,140.2v5.4h-1.1v-5.4h-0.7v-1h0.7v-2.3h1.1v2.3h1.1v1H214.6z"/>
	<path fill="#FFFFFF" d="M221.7,139.2h1.1v6.4h-1.1v-0.9c-0.4,0.5-1.1,1.1-2.2,1.1c-1.6,0-3.1-1.1-3.1-3.4c0-2.2,1.5-3.4,3.1-3.4
		c1.2,0,1.9,0.7,2.2,1.1V139.2z M217.5,142.4c0,1.4,0.8,2.4,2.1,2.4c1.4,0,2.1-1.1,2.1-2.4c0-1.7-1.1-2.4-2.1-2.4
		C218.5,140,217.5,140.8,217.5,142.4z"/>
	<path fill="#FFFFFF" d="M224.9,139.2h1.1v0.7c0.2-0.3,0.8-0.9,1.8-0.9c0.8,0,1.5,0.3,1.8,0.9c0.3,0.5,0.4,1,0.4,1.7v4H229v-4
		c0-0.4,0-0.8-0.3-1.2c-0.2-0.3-0.6-0.5-1.1-0.5c-0.4,0-0.8,0.1-1.1,0.5c-0.4,0.5-0.5,1.3-0.5,1.7v3.4h-1.1V139.2z"/>
	<path fill="#FFFFFF" d="M237.2,134.3h1.1v11.3h-1.1v-0.9c-0.4,0.5-1.1,1.1-2.2,1.1c-1.6,0-3.1-1.1-3.1-3.4c0-2.2,1.5-3.4,3.1-3.4
		c1.2,0,1.9,0.7,2.2,1.1V134.3z M233,142.4c0,1.4,0.8,2.4,2.1,2.4c1.4,0,2.1-1.1,2.1-2.4c0-1.7-1.1-2.4-2.1-2.4
		C234,140,233,140.8,233,142.4z"/>
	<path fill="#FFFFFF" d="M179.8,155h-4.2v3.1h4.1v1.1h-4.1v4h4.2v1.1h-5.4v-10.4h5.4V155z"/>
	<path fill="#FFFFFF" d="M181.6,157.8h1.1v0.7c0.4-0.5,0.9-0.8,1.6-0.8c1.2,0,1.6,0.8,1.8,1c0.6-1,1.5-1,1.9-1
		c1.9,0,2.1,1.6,2.1,2.5v4.1H189v-3.9c0-0.7-0.1-1.7-1.1-1.7c-1.3,0-1.4,1.2-1.4,2v3.6h-1.1v-3.8c0-0.5,0-1.8-1.2-1.8
		c-1.3,0-1.4,1.3-1.4,2.1v3.5h-1.1V157.8z"/>
	<path fill="#FFFFFF" d="M193.4,167.8h-1.1v-10h1.1v0.9c0.8-0.9,1.7-1.1,2.2-1.1c2,0,3.1,1.7,3.1,3.4c0,1.8-1.1,3.4-3.1,3.4
		c-1,0-1.8-0.5-2.3-1.1V167.8z M197.5,161.1c0-1.6-1.1-2.4-2.1-2.4c-1,0-2.1,0.9-2.1,2.4c0,1.3,0.8,2.4,2.2,2.4
		C196.8,163.5,197.5,162.4,197.5,161.1z"/>
	<path fill="#FFFFFF" d="M205.3,157.8h1.1v6.4h-1.1v-0.9c-0.4,0.5-1.1,1.1-2.2,1.1c-1.6,0-3.1-1.1-3.1-3.4c0-2.2,1.5-3.4,3.1-3.4
		c1.2,0,1.9,0.7,2.2,1.1V157.8z M201.1,161c0,1.4,0.8,2.4,2.1,2.4c1.4,0,2.1-1.1,2.1-2.4c0-1.7-1.1-2.4-2.1-2.4
		C202.2,158.7,201.1,159.5,201.1,161z"/>
	<path fill="#FFFFFF" d="M209.7,158.8v5.4h-1.1v-5.4h-0.7v-1h0.7v-2.3h1.1v2.3h1.1v1H209.7z"/>
	<path fill="#FFFFFF" d="M211.9,152.9h1.1v5.6c0.2-0.3,0.8-0.9,1.8-0.9c0.8,0,1.5,0.3,1.8,0.9c0.3,0.5,0.4,1,0.4,1.7v4H216v-4
		c0-0.4,0-0.8-0.3-1.2c-0.2-0.3-0.6-0.5-1.1-0.5c-0.4,0-0.8,0.1-1.1,0.5c-0.4,0.5-0.5,1.3-0.5,1.7v3.4h-1.1V152.9z"/>
	<path fill="#FFFFFF" d="M219.7,154.6c0.4,0,0.8,0.4,0.8,0.8c0,0.4-0.4,0.8-0.8,0.8c-0.4,0-0.8-0.4-0.8-0.8
		C219,154.9,219.3,154.6,219.7,154.6z M220.3,157.8v6.4h-1.1v-6.4H220.3z"/>
	<path fill="#FFFFFF" d="M223.7,163.2h4.5v1h-6.7l4.7-5.4h-3.8v-1h6L223.7,163.2z"/>
	<path fill="#FFFFFF" d="M235.1,162.6c-0.2,0.4-0.5,0.7-0.8,1c-0.6,0.5-1.3,0.8-2.1,0.8c-1.6,0-3.2-1-3.2-3.4c0-1.9,1.2-3.4,3.1-3.4
		c1.3,0,2.1,0.6,2.4,1.2c0.4,0.6,0.6,1.6,0.6,2.4h-5c0,1.3,0.9,2.2,2.1,2.2c0.5,0,0.9-0.2,1.3-0.5c0.3-0.2,0.5-0.6,0.7-0.9
		L235.1,162.6z M234,160.3c-0.2-1-0.9-1.7-1.9-1.7c-0.9,0-1.7,0.7-1.9,1.7H234z"/>
</g>
<g>
	<rect x="123.2" y="235.8" fill="none" width="162.6" height="71.9"/>
	<path fill="#FFFFFF" d="M180.2,236.8c0.7,0,1.7,0,2.5,0.6c0.6,0.4,1.1,1.2,1.1,2.3c0,1.6-1,2.8-2.6,2.9l3.3,4.6h-1.4l-3.2-4.5h-0.3
		v4.5h-1.1v-10.4H180.2z M179.7,241.6h0.7c1.4,0,2.3-0.7,2.3-1.9c0-0.6-0.2-1.1-0.8-1.5c-0.5-0.3-1-0.3-1.5-0.3h-0.7V241.6z"/>
	<path fill="#FFFFFF" d="M191.5,245.5c-0.2,0.4-0.5,0.7-0.8,1c-0.6,0.5-1.3,0.8-2.1,0.8c-1.6,0-3.2-1-3.2-3.4c0-1.9,1.2-3.4,3.1-3.4
		c1.3,0,2.1,0.6,2.4,1.2c0.4,0.6,0.6,1.6,0.6,2.4h-5c0,1.3,0.9,2.2,2.1,2.2c0.5,0,0.9-0.2,1.3-0.5c0.3-0.2,0.5-0.6,0.7-0.9
		L191.5,245.5z M190.4,243.2c-0.2-1-0.9-1.7-1.9-1.7c-0.9,0-1.7,0.7-1.9,1.7H190.4z"/>
	<path fill="#FFFFFF" d="M195.9,242.2c-0.2-0.4-0.5-0.7-0.9-0.7c-0.4,0-0.8,0.2-0.8,0.7c0,0.5,0.3,0.6,1,0.9c0.9,0.4,1.4,0.7,1.6,1
		c0.3,0.3,0.3,0.7,0.3,1c0,1.4-1,2.1-2.2,2.1c-0.3,0-1.7,0-2.3-1.6l1-0.4c0.1,0.3,0.5,1.1,1.3,1.1c0.7,0,1.1-0.5,1.1-1
		c0-0.6-0.4-0.8-1-1.1c-0.8-0.3-1.3-0.6-1.6-0.9c-0.2-0.3-0.3-0.6-0.3-0.9c0-1.1,0.8-1.8,1.9-1.8c0.3,0,1.3,0.1,1.8,1.2L195.9,242.2
		z"/>
	<path fill="#FFFFFF" d="M204.4,245.5c-0.2,0.4-0.5,0.7-0.8,1c-0.6,0.5-1.3,0.8-2.1,0.8c-1.6,0-3.2-1-3.2-3.4c0-1.9,1.2-3.4,3.1-3.4
		c1.3,0,2.1,0.6,2.4,1.2c0.4,0.6,0.6,1.6,0.6,2.4h-5c0,1.3,0.9,2.2,2.1,2.2c0.5,0,0.9-0.2,1.3-0.5c0.3-0.2,0.5-0.6,0.7-0.9
		L204.4,245.5z M203.3,243.2c-0.2-1-0.9-1.7-1.9-1.7c-0.9,0-1.7,0.7-1.9,1.7H203.3z"/>
	<path fill="#FFFFFF" d="M211.1,240.7h1.1v6.4h-1.1v-0.9c-0.4,0.5-1.1,1.1-2.2,1.1c-1.6,0-3.1-1.1-3.1-3.4c0-2.2,1.5-3.4,3.1-3.4
		c1.2,0,1.9,0.7,2.2,1.1V240.7z M206.9,243.9c0,1.4,0.8,2.4,2.1,2.4c1.4,0,2.1-1.1,2.1-2.4c0-1.7-1.1-2.4-2.1-2.4
		C207.9,241.5,206.9,242.3,206.9,243.9z"/>
	<path fill="#FFFFFF" d="M214.4,240.7h1.1v0.7c0.1-0.2,0.6-0.9,1.5-0.9c0.3,0,0.7,0.1,1,0.3l-0.5,1c-0.2-0.2-0.5-0.2-0.7-0.2
		c-0.5,0-0.7,0.2-0.9,0.4c-0.2,0.2-0.4,0.7-0.4,1.7v3.4h-1.1V240.7z"/>
	<path fill="#FFFFFF" d="M223.6,242.5c-0.6-0.7-1.4-1-2-1c-1.2,0-2.3,0.8-2.3,2.4c0,1.6,1.1,2.4,2.3,2.4c0.7,0,1.5-0.3,2.1-1v1.3
		c-0.7,0.5-1.4,0.7-2.1,0.7c-2,0-3.4-1.4-3.4-3.4c0-2,1.5-3.4,3.4-3.4c1,0,1.7,0.4,2,0.6V242.5z"/>
	<path fill="#FFFFFF" d="M225.4,235.8h1.1v5.6c0.2-0.3,0.8-0.9,1.8-0.9c0.8,0,1.5,0.3,1.8,0.9c0.3,0.5,0.4,1,0.4,1.7v4h-1.1v-4
		c0-0.4,0-0.8-0.3-1.2c-0.2-0.3-0.6-0.5-1.1-0.5c-0.4,0-0.8,0.1-1.1,0.5c-0.4,0.5-0.5,1.3-0.5,1.7v3.4h-1.1V235.8z"/>
	<path fill="#FFFFFF" d="M176,255.4c0.6,0,1.6,0,2.4,0.7c0.3,0.2,0.9,0.9,0.9,2.1c0,0.5-0.1,1.4-1,2c1.4,0.4,2,1.6,2,2.6
		s-0.5,1.8-1.1,2.2c-0.8,0.7-1.8,0.7-2.5,0.7h-2.6v-10.4H176z M175.2,260h0.9c0.6,0,2-0.1,2-1.7c0-1.7-1.7-1.7-2-1.7h-0.9V260z
		 M175.2,264.7h1.3c0.7,0,1.3,0,1.8-0.4c0.4-0.3,0.7-0.8,0.7-1.4c0-0.8-0.5-1.3-0.9-1.5c-0.4-0.2-0.9-0.3-1.8-0.3h-1.2V264.7z"/>
	<path fill="#FFFFFF" d="M182,259.3h1.1v0.7c0.1-0.2,0.6-0.9,1.5-0.9c0.3,0,0.7,0.1,1,0.3l-0.5,1c-0.2-0.2-0.5-0.2-0.7-0.2
		c-0.5,0-0.7,0.2-0.9,0.4c-0.2,0.2-0.4,0.7-0.4,1.7v3.4H182V259.3z"/>
	<path fill="#FFFFFF" d="M191.3,259.3h1.1v6.4h-1.1v-0.9c-0.4,0.5-1.1,1.1-2.2,1.1c-1.6,0-3.1-1.1-3.1-3.4c0-2.2,1.5-3.4,3.1-3.4
		c1.2,0,1.9,0.7,2.2,1.1V259.3z M187.1,262.5c0,1.4,0.8,2.4,2.1,2.4c1.4,0,2.1-1.1,2.1-2.4c0-1.7-1.1-2.4-2.1-2.4
		C188.1,260.2,187.1,261,187.1,262.5z"/>
	<path fill="#FFFFFF" d="M195,256.1c0.4,0,0.8,0.4,0.8,0.8c0,0.4-0.4,0.8-0.8,0.8c-0.4,0-0.8-0.4-0.8-0.8
		C194.3,256.5,194.6,256.1,195,256.1z M195.6,259.3v6.4h-1.1v-6.4H195.6z"/>
	<path fill="#FFFFFF" d="M197.7,259.3h1.1v0.7c0.2-0.3,0.8-0.9,1.8-0.9c0.8,0,1.5,0.3,1.8,0.9c0.3,0.5,0.4,1,0.4,1.7v4h-1.1v-4
		c0-0.4,0-0.8-0.3-1.2c-0.2-0.3-0.6-0.5-1.1-0.5c-0.4,0-0.8,0.1-1.1,0.5c-0.4,0.5-0.5,1.3-0.5,1.7v3.4h-1.1V259.3z"/>
	<path fill="#FFFFFF" d="M207.7,260.8c-0.2-0.4-0.5-0.7-0.9-0.7c-0.4,0-0.8,0.2-0.8,0.7c0,0.5,0.3,0.6,1,0.9c0.9,0.4,1.4,0.7,1.6,1
		c0.3,0.3,0.3,0.7,0.3,1c0,1.4-1,2.1-2.2,2.1c-0.3,0-1.7,0-2.3-1.6l1-0.4c0.1,0.3,0.5,1.1,1.3,1.1c0.7,0,1.1-0.5,1.1-1
		c0-0.6-0.4-0.8-1-1.1c-0.8-0.3-1.3-0.6-1.6-0.9c-0.2-0.3-0.3-0.6-0.3-0.9c0-1.1,0.8-1.8,1.9-1.8c0.3,0,1.3,0.1,1.8,1.2L207.7,260.8
		z"/>
	<path fill="#FFFFFF" d="M211.6,260.4v5.4h-1.1v-5.4h-0.7v-1h0.7V257h1.1v2.3h1.1v1H211.6z"/>
	<path fill="#FFFFFF" d="M213.4,262.6c0-2,1.4-3.4,3.4-3.4s3.4,1.4,3.4,3.4s-1.5,3.4-3.4,3.4S213.4,264.5,213.4,262.6z M214.5,262.6
		c0,1.6,1.1,2.4,2.3,2.4c1.2,0,2.3-0.8,2.3-2.4c0-1.6-1.1-2.4-2.3-2.4S214.5,261,214.5,262.6z"/>
	<path fill="#FFFFFF" d="M221.9,259.3h1.1v0.7c0.1-0.2,0.6-0.9,1.5-0.9c0.3,0,0.7,0.1,1,0.3l-0.5,1c-0.2-0.2-0.5-0.2-0.7-0.2
		c-0.5,0-0.7,0.2-0.9,0.4c-0.2,0.2-0.4,0.7-0.4,1.7v3.4h-1.1V259.3z"/>
	<path fill="#FFFFFF" d="M226.5,259.3h1.1v0.7c0.4-0.5,0.9-0.8,1.6-0.8c1.2,0,1.6,0.8,1.8,1c0.6-1,1.5-1,1.9-1
		c1.9,0,2.1,1.6,2.1,2.5v4.1h-1.1v-3.9c0-0.7-0.1-1.7-1.1-1.7c-1.3,0-1.4,1.2-1.4,2v3.6h-1.1V262c0-0.5,0-1.8-1.2-1.8
		c-1.3,0-1.4,1.3-1.4,2.1v3.5h-1.1V259.3z"/>
	<path fill="#FFFFFF" d="M190.7,276.1c-0.1-0.3-0.4-0.6-0.6-0.8c-0.2-0.2-0.6-0.4-1.2-0.4c-1,0-1.7,0.6-1.7,1.6
		c0,0.4,0.1,0.6,0.4,0.9c0.3,0.3,0.7,0.5,1.1,0.7l1,0.4c0.6,0.3,1.2,0.5,1.6,1c0.5,0.5,0.7,1.1,0.7,1.9c0,1.9-1.4,3.2-3.3,3.2
		c-0.7,0-1.5-0.1-2.3-0.8c-0.5-0.5-0.8-1.2-1-1.8l1.1-0.3c0.1,0.5,0.3,1,0.6,1.3c0.5,0.5,1,0.6,1.5,0.6c1.4,0,2.1-1,2.1-2
		c0-0.5-0.1-0.9-0.5-1.2c-0.3-0.3-0.7-0.5-1.2-0.7l-0.9-0.4c-0.4-0.2-0.9-0.4-1.4-0.9c-0.5-0.4-0.7-0.9-0.7-1.7
		c0-1.6,1.2-2.7,2.9-2.7c0.6,0,1.1,0.1,1.7,0.5c0.4,0.3,0.8,0.7,1,1.1L190.7,276.1z"/>
	<path fill="#FFFFFF" d="M195,273.1v7.3l2.4-2.4h1.5l-2.8,2.8l3.3,3.7h-1.5l-2.6-2.9l-0.3,0.3v2.7h-1.1v-11.3H195z"/>
	<path fill="#FFFFFF" d="M206,282.8c-0.2,0.4-0.5,0.7-0.8,1c-0.6,0.5-1.3,0.8-2.1,0.8c-1.6,0-3.2-1-3.2-3.4c0-1.9,1.2-3.4,3.1-3.4
		c1.3,0,2.1,0.6,2.4,1.2c0.4,0.6,0.6,1.6,0.6,2.4h-5c0,1.3,0.9,2.2,2.1,2.2c0.5,0,0.9-0.2,1.3-0.5c0.3-0.2,0.5-0.6,0.7-0.9
		L206,282.8z M204.9,280.5c-0.2-1-0.9-1.7-1.9-1.7c-0.9,0-1.7,0.7-1.9,1.7H204.9z"/>
	<path fill="#FFFFFF" d="M208.9,279v5.4h-1.1V279h-0.7v-1h0.7v-2.3h1.1v2.3h1.1v1H208.9z"/>
	<path fill="#FFFFFF" d="M216.1,279.8c-0.6-0.7-1.4-1-2-1c-1.2,0-2.3,0.8-2.3,2.4c0,1.6,1.1,2.4,2.3,2.4c0.7,0,1.5-0.3,2.1-1v1.3
		c-0.7,0.5-1.4,0.7-2.1,0.7c-2,0-3.4-1.4-3.4-3.4c0-2,1.5-3.4,3.4-3.4c1,0,1.7,0.4,2,0.6V279.8z"/>
	<path fill="#FFFFFF" d="M217.9,273.1h1.1v5.6c0.2-0.3,0.8-0.9,1.8-0.9c0.8,0,1.5,0.3,1.8,0.9c0.3,0.5,0.4,1,0.4,1.7v4h-1.1v-4
		c0-0.4,0-0.8-0.3-1.2c-0.2-0.3-0.6-0.5-1.1-0.5c-0.4,0-0.8,0.1-1.1,0.5c-0.4,0.5-0.5,1.3-0.5,1.7v3.4h-1.1V273.1z"/>
</g>
<g>
	<rect x="123.2" y="348.6" fill="none" width="162.6" height="71.9"/>
	<path fill="#FFFFFF" d="M161.7,355.9c0,0.9,0,1.8,0.8,2.5c0.4,0.4,1.1,0.6,1.7,0.6c0.6,0,1.3-0.2,1.7-0.6c0.8-0.7,0.8-1.6,0.8-2.5
		v-6.4h1.1v6.7c0,0.9-0.1,1.7-0.7,2.5c-0.6,0.9-1.7,1.4-3,1.4s-2.4-0.5-3-1.4c-0.6-0.8-0.7-1.6-0.7-2.5v-6.7h1.1V355.9z"/>
	<path fill="#FFFFFF" d="M173,354.9c-0.2-0.4-0.5-0.7-0.9-0.7c-0.4,0-0.8,0.2-0.8,0.7c0,0.5,0.3,0.6,1,0.9c0.9,0.4,1.4,0.7,1.6,1
		c0.3,0.3,0.3,0.7,0.3,1c0,1.4-1,2.1-2.2,2.1c-0.3,0-1.7,0-2.3-1.6l1-0.4c0.1,0.3,0.5,1.1,1.3,1.1c0.7,0,1.1-0.5,1.1-1
		c0-0.6-0.4-0.8-1-1.1c-0.8-0.3-1.3-0.6-1.6-0.9c-0.2-0.3-0.3-0.6-0.3-0.9c0-1.1,0.8-1.8,1.9-1.8c0.3,0,1.3,0.1,1.8,1.2L173,354.9z"
		/>
	<path fill="#FFFFFF" d="M181.5,358.3c-0.2,0.4-0.5,0.7-0.8,1c-0.6,0.5-1.3,0.8-2.1,0.8c-1.6,0-3.2-1-3.2-3.4c0-1.9,1.2-3.4,3.1-3.4
		c1.3,0,2.1,0.6,2.4,1.2c0.4,0.6,0.6,1.6,0.6,2.4h-5c0,1.3,0.9,2.2,2.1,2.2c0.5,0,0.9-0.2,1.3-0.5c0.3-0.2,0.5-0.6,0.7-0.9
		L181.5,358.3z M180.4,356c-0.2-1-0.9-1.7-1.9-1.7c-0.9,0-1.7,0.7-1.9,1.7H180.4z"/>
	<path fill="#FFFFFF" d="M183.3,353.5h1.1v0.7c0.1-0.2,0.6-0.9,1.5-0.9c0.3,0,0.7,0.1,1,0.3l-0.5,1c-0.2-0.2-0.5-0.2-0.7-0.2
		c-0.5,0-0.7,0.2-0.9,0.4c-0.2,0.2-0.4,0.7-0.4,1.7v3.4h-1.1V353.5z"/>
	<path fill="#FFFFFF" d="M196.4,351.6c-0.1-0.3-0.4-0.6-0.6-0.8c-0.2-0.2-0.6-0.4-1.2-0.4c-1,0-1.7,0.6-1.7,1.6
		c0,0.4,0.1,0.6,0.4,0.9c0.3,0.3,0.7,0.5,1.1,0.7l1,0.4c0.6,0.3,1.2,0.5,1.6,1c0.5,0.5,0.7,1.1,0.7,1.9c0,1.9-1.4,3.2-3.3,3.2
		c-0.7,0-1.5-0.1-2.3-0.8c-0.5-0.5-0.8-1.2-1-1.8l1.1-0.3c0.1,0.5,0.3,1,0.6,1.3c0.5,0.5,1,0.6,1.5,0.6c1.4,0,2.1-1,2.1-2
		c0-0.5-0.1-0.9-0.5-1.2c-0.3-0.3-0.7-0.5-1.2-0.7l-0.9-0.4c-0.4-0.2-0.9-0.4-1.4-0.9c-0.5-0.4-0.7-0.9-0.7-1.7
		c0-1.6,1.2-2.7,2.9-2.7c0.6,0,1.1,0.1,1.7,0.5c0.4,0.3,0.8,0.7,1,1.1L196.4,351.6z"/>
	<path fill="#FFFFFF" d="M204.6,355.3c-0.6-0.7-1.4-1-2-1c-1.2,0-2.3,0.8-2.3,2.4c0,1.6,1.1,2.4,2.3,2.4c0.7,0,1.5-0.3,2.1-1v1.3
		c-0.7,0.5-1.4,0.7-2.1,0.7c-2,0-3.4-1.4-3.4-3.4c0-2,1.5-3.4,3.4-3.4c1,0,1.7,0.4,2,0.6V355.3z"/>
	<path fill="#FFFFFF" d="M212,358.3c-0.2,0.4-0.5,0.7-0.8,1c-0.6,0.5-1.3,0.8-2.1,0.8c-1.6,0-3.2-1-3.2-3.4c0-1.9,1.2-3.4,3.1-3.4
		c1.3,0,2.1,0.6,2.4,1.2c0.4,0.6,0.6,1.6,0.6,2.4h-5c0,1.3,0.9,2.2,2.1,2.2c0.5,0,0.9-0.2,1.3-0.5c0.3-0.2,0.5-0.6,0.7-0.9
		L212,358.3z M210.9,356c-0.2-1-0.9-1.7-1.9-1.7c-0.9,0-1.7,0.7-1.9,1.7H210.9z"/>
	<path fill="#FFFFFF" d="M213.8,353.5h1.1v0.7c0.2-0.3,0.8-0.9,1.8-0.9c0.8,0,1.5,0.3,1.8,0.9c0.3,0.5,0.4,1,0.4,1.7v4h-1.1v-4
		c0-0.4,0-0.8-0.3-1.2c-0.2-0.3-0.6-0.5-1.1-0.5c-0.4,0-0.8,0.1-1.1,0.5c-0.4,0.5-0.5,1.3-0.5,1.7v3.4h-1.1V353.5z"/>
	<path fill="#FFFFFF" d="M226,353.5h1.1v6.4H226V359c-0.4,0.5-1.1,1.1-2.2,1.1c-1.6,0-3.1-1.1-3.1-3.4c0-2.2,1.5-3.4,3.1-3.4
		c1.2,0,1.9,0.7,2.2,1.1V353.5z M221.8,356.7c0,1.4,0.8,2.4,2.1,2.4c1.4,0,2.1-1.1,2.1-2.4c0-1.7-1.1-2.4-2.1-2.4
		C222.8,354.3,221.8,355.1,221.8,356.7z"/>
	<path fill="#FFFFFF" d="M229.3,353.5h1.1v0.7c0.1-0.2,0.6-0.9,1.5-0.9c0.3,0,0.7,0.1,1,0.3l-0.5,1c-0.2-0.2-0.5-0.2-0.7-0.2
		c-0.5,0-0.7,0.2-0.9,0.4c-0.2,0.2-0.4,0.7-0.4,1.7v3.4h-1.1V353.5z"/>
	<path fill="#FFFFFF" d="M234.4,350.2c0.4,0,0.8,0.4,0.8,0.8c0,0.4-0.4,0.8-0.8,0.8c-0.4,0-0.8-0.4-0.8-0.8
		C233.6,350.6,234,350.2,234.4,350.2z M235,353.5v6.4h-1.1v-6.4H235z"/>
	<path fill="#FFFFFF" d="M236.7,356.7c0-2,1.4-3.4,3.4-3.4c2,0,3.4,1.4,3.4,3.4s-1.5,3.4-3.4,3.4S236.7,358.7,236.7,356.7z
		 M237.8,356.7c0,1.6,1.1,2.4,2.3,2.4c1.2,0,2.3-0.8,2.3-2.4c0-1.6-1.1-2.4-2.3-2.4S237.8,355.1,237.8,356.7z"/>
	<path fill="#FFFFFF" d="M247.9,354.9c-0.2-0.4-0.5-0.7-0.9-0.7c-0.4,0-0.8,0.2-0.8,0.7c0,0.5,0.3,0.6,1,0.9c0.9,0.4,1.4,0.7,1.6,1
		c0.3,0.3,0.3,0.7,0.3,1c0,1.4-1,2.1-2.2,2.1c-0.3,0-1.7,0-2.3-1.6l1-0.4c0.1,0.3,0.5,1.1,1.3,1.1c0.7,0,1.1-0.5,1.1-1
		c0-0.6-0.4-0.8-1-1.1c-0.8-0.3-1.3-0.6-1.6-0.9c-0.2-0.3-0.3-0.6-0.3-0.9c0-1.1,0.8-1.8,1.9-1.8c0.3,0,1.3,0.1,1.8,1.2L247.9,354.9
		z"/>
	<path fill="#FFFFFF" d="M171.1,368.2l2.7,7.8l3.2-8.3l3.1,8.3l3-7.8h1.3l-4.3,10.9l-3-8.3l-3.3,8.3l-4-10.9H171.1z"/>
	<path fill="#FFFFFF" d="M186.2,368.9c0.4,0,0.8,0.4,0.8,0.8c0,0.4-0.4,0.8-0.8,0.8c-0.4,0-0.8-0.4-0.8-0.8
		C185.4,369.2,185.7,368.9,186.2,368.9z M186.7,372.1v6.4h-1.1v-6.4H186.7z"/>
	<path fill="#FFFFFF" d="M188.8,372.1h1.1v0.7c0.1-0.2,0.6-0.9,1.5-0.9c0.3,0,0.7,0.1,1,0.3l-0.5,1c-0.2-0.2-0.5-0.2-0.7-0.2
		c-0.5,0-0.7,0.2-0.9,0.4c-0.2,0.2-0.4,0.7-0.4,1.7v3.4h-1.1V372.1z"/>
	<path fill="#FFFFFF" d="M198.8,376.9c-0.2,0.4-0.5,0.7-0.8,1c-0.6,0.5-1.3,0.8-2.1,0.8c-1.6,0-3.2-1-3.2-3.4c0-1.9,1.2-3.4,3.1-3.4
		c1.3,0,2.1,0.6,2.4,1.2c0.4,0.6,0.6,1.6,0.6,2.4h-5c0,1.3,0.9,2.2,2.1,2.2c0.5,0,0.9-0.2,1.3-0.5c0.3-0.2,0.5-0.6,0.7-0.9
		L198.8,376.9z M197.7,374.6c-0.2-1-0.9-1.7-1.9-1.7c-0.9,0-1.7,0.7-1.9,1.7H197.7z"/>
	<path fill="#FFFFFF" d="M201.7,373.1v5.4h-1.1v-5.4h-0.6v-1h0.6v-2.8c0-0.6,0-1.3,0.6-1.8c0.3-0.3,0.8-0.4,1.3-0.4
		c0.4,0,0.7,0.1,0.8,0.1v1.1c-0.2-0.1-0.5-0.1-0.7-0.1c-0.2,0-0.5,0.1-0.7,0.3c-0.1,0.2-0.1,0.6-0.1,0.9v2.7h1.6v1H201.7z"/>
	<path fill="#FFFFFF" d="M204.3,372.1h1.1v0.7c0.1-0.2,0.6-0.9,1.5-0.9c0.3,0,0.7,0.1,1,0.3l-0.5,1c-0.2-0.2-0.5-0.2-0.7-0.2
		c-0.5,0-0.7,0.2-0.9,0.4c-0.2,0.2-0.4,0.7-0.4,1.7v3.4h-1.1V372.1z"/>
	<path fill="#FFFFFF" d="M213.5,372.1h1.1v6.4h-1.1v-0.9c-0.4,0.5-1.1,1.1-2.2,1.1c-1.6,0-3.1-1.1-3.1-3.4c0-2.2,1.5-3.4,3.1-3.4
		c1.2,0,1.9,0.7,2.2,1.1V372.1z M209.3,375.3c0,1.4,0.8,2.4,2.1,2.4c1.4,0,2.1-1.1,2.1-2.4c0-1.7-1.1-2.4-2.1-2.4
		C210.3,372.9,209.3,373.7,209.3,375.3z"/>
	<path fill="#FFFFFF" d="M216.7,372.1h1.1v0.7c0.4-0.5,0.9-0.8,1.6-0.8c1.2,0,1.6,0.8,1.8,1c0.6-1,1.5-1,1.9-1
		c1.9,0,2.1,1.6,2.1,2.5v4.1h-1.1v-3.9c0-0.7-0.1-1.7-1.1-1.7c-1.3,0-1.4,1.2-1.4,2v3.6h-1.1v-3.8c0-0.5,0-1.8-1.2-1.8
		c-1.3,0-1.4,1.3-1.4,2.1v3.5h-1.1V372.1z"/>
	<path fill="#FFFFFF" d="M233,376.9c-0.2,0.4-0.5,0.7-0.8,1c-0.6,0.5-1.3,0.8-2.1,0.8c-1.6,0-3.2-1-3.2-3.4c0-1.9,1.2-3.4,3.1-3.4
		c1.3,0,2.1,0.6,2.4,1.2c0.4,0.6,0.6,1.6,0.6,2.4h-5c0,1.3,0.9,2.2,2.1,2.2c0.5,0,0.9-0.2,1.3-0.5c0.3-0.2,0.5-0.6,0.7-0.9
		L233,376.9z M231.9,374.6c-0.2-1-0.9-1.7-1.9-1.7c-0.9,0-1.7,0.7-1.9,1.7H231.9z"/>
	<path fill="#FFFFFF" d="M237.5,373.6c-0.2-0.4-0.5-0.7-0.9-0.7c-0.4,0-0.8,0.2-0.8,0.7c0,0.5,0.3,0.6,1,0.9c0.9,0.4,1.4,0.7,1.6,1
		c0.3,0.3,0.3,0.7,0.3,1c0,1.4-1,2.1-2.2,2.1c-0.3,0-1.7,0-2.3-1.6l1-0.4c0.1,0.3,0.5,1.1,1.3,1.1c0.7,0,1.1-0.5,1.1-1
		c0-0.6-0.4-0.8-1-1.1c-0.8-0.3-1.3-0.6-1.6-0.9c-0.2-0.3-0.3-0.6-0.3-0.9c0-1.1,0.8-1.8,1.9-1.8c0.3,0,1.3,0.1,1.8,1.2L237.5,373.6
		z"/>
	<path fill="#FFFFFF" d="M176.2,386.8c1,0,1.9,0.1,2.6,0.7c0.8,0.7,0.9,1.6,0.9,2.2c0,1.5-0.9,2.9-3.3,2.9h-1v4.5h-1.1v-10.4H176.2z
		 M175.5,391.6h0.9c1.4,0,2.2-0.7,2.2-1.9c0-1.6-1.5-1.8-2.3-1.8h-0.9V391.6z"/>
	<path fill="#FFFFFF" d="M181.1,390.7h1.1v0.7c0.1-0.2,0.6-0.9,1.5-0.9c0.3,0,0.7,0.1,1,0.3l-0.5,1c-0.2-0.2-0.5-0.2-0.7-0.2
		c-0.5,0-0.7,0.2-0.9,0.4c-0.2,0.2-0.4,0.7-0.4,1.7v3.4h-1.1V390.7z"/>
	<path fill="#FFFFFF" d="M184.9,394c0-2,1.4-3.4,3.4-3.4s3.4,1.4,3.4,3.4c0,2-1.5,3.4-3.4,3.4C186.4,397.4,184.9,395.9,184.9,394z
		 M186.1,394c0,1.6,1.1,2.4,2.3,2.4c1.2,0,2.3-0.8,2.3-2.4c0-1.6-1.1-2.4-2.3-2.4S186.1,392.4,186.1,394z"/>
	<path fill="#FFFFFF" d="M194.6,391.7v5.4h-1.1v-5.4h-0.7v-1h0.7v-2.3h1.1v2.3h1.1v1H194.6z"/>
	<path fill="#FFFFFF" d="M196.4,394c0-2,1.4-3.4,3.4-3.4s3.4,1.4,3.4,3.4c0,2-1.5,3.4-3.4,3.4S196.4,395.9,196.4,394z M197.5,394
		c0,1.6,1.1,2.4,2.3,2.4c1.2,0,2.3-0.8,2.3-2.4c0-1.6-1.1-2.4-2.3-2.4S197.5,392.4,197.5,394z"/>
	<path fill="#FFFFFF" d="M206.1,391.7v5.4H205v-5.4h-0.7v-1h0.7v-2.3h1.1v2.3h1.1v1H206.1z"/>
	<path fill="#FFFFFF" d="M210.8,396.6l-3-5.8h1.3l2.3,4.6l2.1-4.6h1.2l-4.7,10h-1.2L210.8,396.6z"/>
	<path fill="#FFFFFF" d="M217,400.7h-1.1v-10h1.1v0.9c0.8-0.9,1.7-1.1,2.2-1.1c2,0,3.1,1.7,3.1,3.4c0,1.8-1.1,3.4-3.1,3.4
		c-1,0-1.8-0.5-2.3-1.1V400.7z M221.2,394c0-1.6-1.1-2.4-2.1-2.4c-1,0-2.1,0.9-2.1,2.4c0,1.3,0.8,2.4,2.2,2.4
		C220.4,396.4,221.2,395.3,221.2,394z"/>
	<path fill="#FFFFFF" d="M229.7,395.5c-0.2,0.4-0.5,0.7-0.8,1c-0.6,0.5-1.3,0.8-2.1,0.8c-1.6,0-3.2-1-3.2-3.4c0-1.9,1.2-3.4,3.1-3.4
		c1.3,0,2.1,0.6,2.4,1.2c0.4,0.6,0.6,1.6,0.6,2.4h-5c0,1.3,0.9,2.2,2.1,2.2c0.5,0,0.9-0.2,1.3-0.5c0.3-0.2,0.5-0.6,0.7-0.9
		L229.7,395.5z M228.6,393.2c-0.2-1-0.9-1.7-1.9-1.7c-0.9,0-1.7,0.7-1.9,1.7H228.6z"/>
	<path fill="#FFFFFF" d="M234.2,392.2c-0.2-0.4-0.5-0.7-0.9-0.7c-0.4,0-0.8,0.2-0.8,0.7c0,0.5,0.3,0.6,1,0.9c0.9,0.4,1.4,0.7,1.6,1
		c0.3,0.3,0.3,0.7,0.3,1c0,1.4-1,2.1-2.2,2.1c-0.3,0-1.7,0-2.3-1.6l1-0.4c0.1,0.3,0.5,1.1,1.3,1.1c0.7,0,1.1-0.5,1.1-1
		c0-0.6-0.4-0.8-1-1.1c-0.8-0.3-1.3-0.6-1.6-0.9c-0.2-0.3-0.3-0.6-0.3-0.9c0-1.1,0.8-1.8,1.9-1.8c0.3,0,1.3,0.1,1.8,1.2L234.2,392.2
		z"/>
</g>
<g>
	<rect x="123.2" y="460" fill="none" width="162.6" height="71.9"/>
	<path fill="#FFFFFF" d="M148.7,462v9.3h-1.1V462h-2.5V461h6.2v1.1H148.7z"/>
	<path fill="#FFFFFF" d="M156.9,469.7c-0.2,0.4-0.5,0.7-0.8,1c-0.6,0.5-1.3,0.8-2.1,0.8c-1.6,0-3.2-1-3.2-3.4c0-1.9,1.2-3.4,3.1-3.4
		c1.3,0,2.1,0.6,2.4,1.2c0.4,0.6,0.6,1.6,0.6,2.4h-5c0,1.3,0.9,2.2,2.1,2.2c0.5,0,0.9-0.2,1.3-0.5c0.3-0.2,0.5-0.6,0.7-0.9
		L156.9,469.7z M155.8,467.4c-0.2-1-0.9-1.7-1.9-1.7c-0.9,0-1.7,0.7-1.9,1.7H155.8z"/>
	<path fill="#FFFFFF" d="M161.4,466.4c-0.2-0.4-0.5-0.7-0.9-0.7c-0.4,0-0.8,0.2-0.8,0.7c0,0.5,0.3,0.6,1,0.9c0.9,0.4,1.4,0.7,1.6,1
		c0.3,0.3,0.3,0.7,0.3,1c0,1.4-1,2.1-2.2,2.1c-0.3,0-1.7,0-2.3-1.6l1-0.4c0.1,0.3,0.5,1.1,1.3,1.1c0.7,0,1.1-0.5,1.1-1
		c0-0.6-0.4-0.8-1-1.1c-0.8-0.3-1.3-0.6-1.6-0.9c-0.2-0.3-0.3-0.6-0.3-0.9c0-1.1,0.8-1.8,1.9-1.8c0.3,0,1.3,0.1,1.8,1.2L161.4,466.4
		z"/>
	<path fill="#FFFFFF" d="M165.3,465.9v5.4h-1.1v-5.4h-0.7v-1h0.7v-2.3h1.1v2.3h1.1v1H165.3z"/>
	<path fill="#FFFFFF" d="M172.3,465.9v5.4h-1.1v-5.4h-0.7v-1h0.7v-2.3h1.1v2.3h1.1v1H172.3z"/>
	<path fill="#FFFFFF" d="M179.4,464.9h1.1v6.4h-1.1v-0.9c-0.4,0.5-1.1,1.1-2.2,1.1c-1.6,0-3.1-1.1-3.1-3.4c0-2.2,1.5-3.4,3.1-3.4
		c1.2,0,1.9,0.7,2.2,1.1V464.9z M175.2,468.1c0,1.4,0.8,2.4,2.1,2.4c1.4,0,2.1-1.1,2.1-2.4c0-1.7-1.1-2.4-2.1-2.4
		C176.2,465.7,175.2,466.5,175.2,468.1z"/>
	<path fill="#FFFFFF" d="M182.6,464.9h1.1v0.7c0.1-0.2,0.6-0.9,1.5-0.9c0.3,0,0.7,0.1,1,0.3l-0.5,1c-0.2-0.2-0.5-0.2-0.7-0.2
		c-0.5,0-0.7,0.2-0.9,0.4c-0.2,0.2-0.4,0.7-0.4,1.7v3.4h-1.1V464.9z"/>
	<path fill="#FFFFFF" d="M191.8,464.9h1.1v6.3c0,0.7,0,1.7-0.6,2.5c-0.5,0.7-1.4,1.2-2.6,1.2c-1.1,0-1.9-0.4-2.3-0.9
		c-0.4-0.4-0.8-1.1-0.8-2.1h1.1c0,0.5,0.2,1,0.5,1.3c0.5,0.5,1.1,0.6,1.6,0.6c0.8,0,1.3-0.3,1.7-0.9c0.3-0.5,0.4-1.1,0.4-1.6v-0.9
		c-0.4,0.5-1.1,1.1-2.2,1.1c-0.9,0-1.7-0.4-2.2-0.9c-0.4-0.4-0.9-1.2-0.9-2.5c0-1.3,0.5-2,0.9-2.5c0.5-0.5,1.3-0.9,2.2-0.9
		c0.9,0,1.7,0.4,2.2,1.1V464.9z M188.2,466.3c-0.5,0.6-0.7,1.2-0.7,1.8c0,0.6,0.1,1.3,0.7,1.9c0.4,0.3,0.8,0.5,1.4,0.5
		s1.1-0.2,1.4-0.5c0.4-0.4,0.7-1.1,0.7-1.9c0-0.8-0.3-1.4-0.7-1.8c-0.4-0.4-0.9-0.6-1.5-0.6C189,465.7,188.5,466,188.2,466.3z"/>
	<path fill="#FFFFFF" d="M200.7,469.7c-0.2,0.4-0.5,0.7-0.8,1c-0.6,0.5-1.3,0.8-2.1,0.8c-1.6,0-3.2-1-3.2-3.4c0-1.9,1.2-3.4,3.1-3.4
		c1.3,0,2.1,0.6,2.4,1.2c0.4,0.6,0.6,1.6,0.6,2.4h-5c0,1.3,0.9,2.2,2.1,2.2c0.5,0,0.9-0.2,1.3-0.5c0.3-0.2,0.5-0.6,0.7-0.9
		L200.7,469.7z M199.6,467.4c-0.2-1-0.9-1.7-1.9-1.7c-0.9,0-1.7,0.7-1.9,1.7H199.6z"/>
	<path fill="#FFFFFF" d="M203.6,465.9v5.4h-1.1v-5.4h-0.7v-1h0.7v-2.3h1.1v2.3h1.1v1H203.6z"/>
	<path fill="#FFFFFF" d="M214.3,464.9h1.1v6.4h-1.1v-0.9c-0.4,0.5-1.1,1.1-2.2,1.1c-1.6,0-3.1-1.1-3.1-3.4c0-2.2,1.5-3.4,3.1-3.4
		c1.2,0,1.9,0.7,2.2,1.1V464.9z M210.1,468.1c0,1.4,0.8,2.4,2.1,2.4c1.4,0,2.1-1.1,2.1-2.4c0-1.7-1.1-2.4-2.1-2.4
		C211.1,465.7,210.1,466.5,210.1,468.1z"/>
	<path fill="#FFFFFF" d="M218.7,468.6c0,0.5,0,1,0.3,1.4c0.2,0.2,0.5,0.5,1.1,0.5c0.6,0,1-0.3,1.1-0.5c0.3-0.4,0.3-0.9,0.3-1.4v-3.8
		h1.1v3.9c0,0.8-0.1,1.4-0.6,1.9c-0.6,0.6-1.3,0.8-2,0.8c-0.6,0-1.4-0.2-2-0.8c-0.5-0.6-0.6-1.1-0.6-1.9v-3.9h1.1V468.6z"/>
	<path fill="#FFFFFF" d="M229.7,460h1.1v11.3h-1.1v-0.9c-0.4,0.5-1.1,1.1-2.2,1.1c-1.6,0-3.1-1.1-3.1-3.4c0-2.2,1.5-3.4,3.1-3.4
		c1.2,0,1.9,0.7,2.2,1.1V460z M225.5,468.1c0,1.4,0.8,2.4,2.1,2.4c1.4,0,2.1-1.1,2.1-2.4c0-1.7-1.1-2.4-2.1-2.4
		C226.6,465.7,225.5,466.5,225.5,468.1z"/>
	<path fill="#FFFFFF" d="M233.4,461.6c0.4,0,0.8,0.4,0.8,0.8c0,0.4-0.4,0.8-0.8,0.8c-0.4,0-0.8-0.4-0.8-0.8
		C232.6,462,232.9,461.6,233.4,461.6z M233.9,464.9v6.4h-1.1v-6.4H233.9z"/>
	<path fill="#FFFFFF" d="M241.8,469.7c-0.2,0.4-0.5,0.7-0.8,1c-0.6,0.5-1.3,0.8-2.1,0.8c-1.6,0-3.2-1-3.2-3.4c0-1.9,1.2-3.4,3.1-3.4
		c1.3,0,2.1,0.6,2.4,1.2c0.4,0.6,0.6,1.6,0.6,2.4h-5c0,1.3,0.9,2.2,2.1,2.2c0.5,0,0.9-0.2,1.3-0.5c0.3-0.2,0.5-0.6,0.7-0.9
		L241.8,469.7z M240.7,467.4c-0.2-1-0.9-1.7-1.9-1.7s-1.7,0.7-1.9,1.7H240.7z"/>
	<path fill="#FFFFFF" d="M243.5,464.9h1.1v0.7c0.2-0.3,0.8-0.9,1.8-0.9c0.8,0,1.5,0.3,1.8,0.9c0.3,0.5,0.4,1,0.4,1.7v4h-1.1v-4
		c0-0.4,0-0.8-0.3-1.2c-0.2-0.3-0.6-0.5-1.1-0.5c-0.4,0-0.8,0.1-1.1,0.5c-0.4,0.5-0.5,1.3-0.5,1.7v3.4h-1.1V464.9z"/>
	<path fill="#FFFFFF" d="M255.9,466.7c-0.6-0.7-1.4-1-2-1c-1.2,0-2.3,0.8-2.3,2.4c0,1.6,1.1,2.4,2.3,2.4c0.7,0,1.5-0.3,2.1-1v1.3
		c-0.7,0.5-1.4,0.7-2.1,0.7c-2,0-3.4-1.4-3.4-3.4c0-2,1.5-3.4,3.4-3.4c1,0,1.7,0.4,2,0.6V466.7z"/>
	<path fill="#FFFFFF" d="M263.3,469.7c-0.2,0.4-0.5,0.7-0.8,1c-0.6,0.5-1.3,0.8-2.1,0.8c-1.6,0-3.2-1-3.2-3.4c0-1.9,1.2-3.4,3.1-3.4
		c1.3,0,2.1,0.6,2.4,1.2c0.4,0.6,0.6,1.6,0.6,2.4h-5c0,1.3,0.9,2.2,2.1,2.2c0.5,0,0.9-0.2,1.3-0.5c0.3-0.2,0.5-0.6,0.7-0.9
		L263.3,469.7z M262.2,467.4c-0.2-1-0.9-1.7-1.9-1.7c-0.9,0-1.7,0.7-1.9,1.7H262.2z"/>
	<path fill="#FFFFFF" d="M181.1,480.7h-3.6v3.1h3.4v1.1h-3.4v5.1h-1.1v-10.4h4.7V480.7z"/>
	<path fill="#FFFFFF" d="M187.9,488.3c-0.2,0.4-0.5,0.7-0.8,1c-0.6,0.5-1.3,0.8-2.1,0.8c-1.6,0-3.2-1-3.2-3.4c0-1.9,1.2-3.4,3.1-3.4
		c1.3,0,2.1,0.6,2.4,1.2c0.4,0.6,0.6,1.6,0.6,2.4h-5c0,1.3,0.9,2.2,2.1,2.2c0.5,0,0.9-0.2,1.3-0.5c0.3-0.2,0.5-0.6,0.7-0.9
		L187.9,488.3z M186.8,486c-0.2-1-0.9-1.7-1.9-1.7c-0.9,0-1.7,0.7-1.9,1.7H186.8z"/>
	<path fill="#FFFFFF" d="M195.3,488.3c-0.2,0.4-0.5,0.7-0.8,1c-0.6,0.5-1.3,0.8-2.1,0.8c-1.6,0-3.2-1-3.2-3.4c0-1.9,1.2-3.4,3.1-3.4
		c1.3,0,2.1,0.6,2.4,1.2c0.4,0.6,0.6,1.6,0.6,2.4h-5c0,1.3,0.9,2.2,2.1,2.2c0.5,0,0.9-0.2,1.3-0.5c0.3-0.2,0.5-0.6,0.7-0.9
		L195.3,488.3z M194.2,486c-0.2-1-0.9-1.7-1.9-1.7c-0.9,0-1.7,0.7-1.9,1.7H194.2z"/>
	<path fill="#FFFFFF" d="M202,478.6h1.1V490H202v-0.9c-0.4,0.5-1.1,1.1-2.2,1.1c-1.6,0-3.1-1.1-3.1-3.4c0-2.2,1.5-3.4,3.1-3.4
		c1.2,0,1.9,0.7,2.2,1.1V478.6z M197.8,486.7c0,1.4,0.8,2.4,2.1,2.4c1.4,0,2.1-1.1,2.1-2.4c0-1.7-1.1-2.4-2.1-2.4
		C198.8,484.3,197.8,485.2,197.8,486.7z"/>
	<path fill="#FFFFFF" d="M206.4,490h-1.1v-11.3h1.1v5.8c0.8-0.9,1.7-1.1,2.2-1.1c2,0,3.1,1.7,3.1,3.4c0,1.8-1.1,3.4-3.1,3.4
		c-1,0-1.8-0.5-2.3-1.1V490z M210.6,486.8c0-1.6-1.1-2.4-2.1-2.4c-1,0-2.1,0.9-2.1,2.4c0,1.3,0.8,2.4,2.2,2.4
		C209.8,489.1,210.6,488.1,210.6,486.8z"/>
	<path fill="#FFFFFF" d="M218.4,483.5h1.1v6.4h-1.1v-0.9c-0.4,0.5-1.1,1.1-2.2,1.1c-1.6,0-3.1-1.1-3.1-3.4c0-2.2,1.5-3.4,3.1-3.4
		c1.2,0,1.9,0.7,2.2,1.1V483.5z M214.2,486.7c0,1.4,0.8,2.4,2.1,2.4c1.4,0,2.1-1.1,2.1-2.4c0-1.7-1.1-2.4-2.1-2.4
		C215.2,484.3,214.2,485.2,214.2,486.7z"/>
	<path fill="#FFFFFF" d="M226.6,485.3c-0.6-0.7-1.4-1-2-1c-1.2,0-2.3,0.8-2.3,2.4c0,1.6,1.1,2.4,2.3,2.4c0.7,0,1.5-0.3,2.1-1v1.3
		c-0.7,0.5-1.4,0.7-2.1,0.7c-2,0-3.4-1.4-3.4-3.4c0-2,1.5-3.4,3.4-3.4c1,0,1.7,0.4,2,0.6V485.3z"/>
	<path fill="#FFFFFF" d="M229.5,478.6v7.3l2.4-2.4h1.5l-2.8,2.8l3.3,3.7h-1.5l-2.6-2.9l-0.3,0.3v2.7h-1.1v-11.3H229.5z"/>
	<path fill="#FFFFFF" d="M186.7,505.7h-4.4l-1.2,2.9h-1.3l4.8-10.9l4.6,10.9H188L186.7,505.7z M186.3,504.6l-1.7-4.1l-1.8,4.1H186.3
		z"/>
	<path fill="#FFFFFF" d="M190.4,502.1h1.1v0.7c0.2-0.3,0.8-0.9,1.8-0.9c0.8,0,1.5,0.3,1.8,0.9c0.3,0.5,0.4,1,0.4,1.7v4h-1.1v-4
		c0-0.4,0-0.8-0.3-1.2c-0.2-0.3-0.6-0.5-1.1-0.5c-0.4,0-0.8,0.1-1.1,0.5c-0.4,0.5-0.5,1.3-0.5,1.7v3.4h-1.1V502.1z"/>
	<path fill="#FFFFFF" d="M202.6,502.1h1.1v6.4h-1.1v-0.9c-0.4,0.5-1.1,1.1-2.2,1.1c-1.6,0-3.1-1.1-3.1-3.4c0-2.2,1.5-3.4,3.1-3.4
		c1.2,0,1.9,0.7,2.2,1.1V502.1z M198.4,505.4c0,1.4,0.8,2.4,2.1,2.4c1.4,0,2.1-1.1,2.1-2.4c0-1.7-1.1-2.4-2.1-2.4
		C199.5,503,198.4,503.8,198.4,505.4z"/>
	<path fill="#FFFFFF" d="M207,497.3v11.3h-1.1v-11.3H207z"/>
	<path fill="#FFFFFF" d="M211.1,508l-3-5.8h1.3l2.3,4.6l2.1-4.6h1.2l-4.7,10h-1.2L211.1,508z"/>
	<path fill="#FFFFFF" d="M218.7,503.6c-0.2-0.4-0.5-0.7-0.9-0.7c-0.4,0-0.8,0.2-0.8,0.7c0,0.5,0.3,0.6,1,0.9c0.9,0.4,1.4,0.7,1.6,1
		c0.3,0.3,0.3,0.7,0.3,1c0,1.4-1,2.1-2.2,2.1c-0.3,0-1.7,0-2.3-1.6l1-0.4c0.1,0.3,0.5,1.1,1.3,1.1c0.7,0,1.1-0.5,1.1-1
		c0-0.6-0.4-0.8-1-1.1c-0.8-0.3-1.3-0.6-1.6-0.9c-0.2-0.3-0.3-0.6-0.3-0.9c0-1.1,0.8-1.8,1.9-1.8c0.3,0,1.3,0.1,1.8,1.2L218.7,503.6
		z"/>
	<path fill="#FFFFFF" d="M222.1,498.9c0.4,0,0.8,0.4,0.8,0.8c0,0.4-0.4,0.8-0.8,0.8c-0.4,0-0.8-0.4-0.8-0.8
		C221.3,499.3,221.7,498.9,222.1,498.9z M222.7,502.1v6.4h-1.1v-6.4H222.7z"/>
	<path fill="#FFFFFF" d="M227.4,503.6c-0.2-0.4-0.5-0.7-0.9-0.7c-0.4,0-0.8,0.2-0.8,0.7c0,0.5,0.3,0.6,1,0.9c0.9,0.4,1.4,0.7,1.6,1
		c0.3,0.3,0.3,0.7,0.3,1c0,1.4-1,2.1-2.2,2.1c-0.3,0-1.7,0-2.3-1.6l1-0.4c0.1,0.3,0.5,1.1,1.3,1.1c0.7,0,1.1-0.5,1.1-1
		c0-0.6-0.4-0.8-1-1.1c-0.8-0.3-1.3-0.6-1.6-0.9c-0.2-0.3-0.3-0.6-0.3-0.9c0-1.1,0.8-1.8,1.9-1.8c0.3,0,1.3,0.1,1.8,1.2L227.4,503.6
		z"/>
</g>
<g>
	<rect x="123.2" y="573.7" fill="none" width="162.6" height="71.9"/>
	<path fill="#FFFFFF" d="M183.4,585l1.7-10.9l4,8.7l4.1-8.8l1.6,11h-1.2l-1-7.2l-3.5,7.6l-3.5-7.6l-1,7.2H183.4z"/>
	<path fill="#FFFFFF" d="M196.5,581.8c0-2,1.4-3.4,3.4-3.4s3.4,1.4,3.4,3.4s-1.5,3.4-3.4,3.4C198,585.2,196.5,583.7,196.5,581.8z
		 M197.7,581.8c0,1.6,1.1,2.4,2.3,2.4c1.2,0,2.3-0.8,2.3-2.4c0-1.6-1.1-2.4-2.3-2.4S197.7,580.2,197.7,581.8z"/>
	<path fill="#FFFFFF" d="M210,573.7h1.1V585H210v-0.9c-0.4,0.5-1.1,1.1-2.2,1.1c-1.6,0-3.1-1.1-3.1-3.4c0-2.2,1.5-3.4,3.1-3.4
		c1.2,0,1.9,0.7,2.2,1.1V573.7z M205.8,581.8c0,1.4,0.8,2.4,2.1,2.4c1.4,0,2.1-1.1,2.1-2.4c0-1.7-1.1-2.4-2.1-2.4
		C206.8,579.4,205.8,580.2,205.8,581.8z"/>
	<path fill="#FFFFFF" d="M213.6,575.3c0.4,0,0.8,0.4,0.8,0.8c0,0.4-0.4,0.8-0.8,0.8c-0.4,0-0.8-0.4-0.8-0.8
		C212.8,575.7,213.2,575.3,213.6,575.3z M214.2,578.5v6.4h-1.1v-6.4H214.2z"/>
	<path fill="#FFFFFF" d="M217.4,579.6v5.4h-1.1v-5.4h-0.6v-1h0.6v-2.8c0-0.6,0-1.3,0.6-1.8c0.3-0.3,0.8-0.4,1.3-0.4
		c0.4,0,0.7,0.1,0.8,0.1v1.1c-0.2-0.1-0.5-0.1-0.7-0.1c-0.2,0-0.5,0.1-0.7,0.3c-0.1,0.2-0.1,0.6-0.1,0.9v2.7h1.6v1H217.4z"/>
	<path fill="#FFFFFF" d="M222.4,584.4l-3-5.8h1.3l2.3,4.6l2.1-4.6h1.2l-4.7,10h-1.2L222.4,584.4z"/>
	<path fill="#FFFFFF" d="M177.5,598.5c0-3.1,2.4-5.4,5.4-5.4s5.4,2.3,5.4,5.4c0,3.1-2.4,5.4-5.4,5.4
		C179.9,603.8,177.5,601.5,177.5,598.5z M178.7,598.5c0,2.4,1.9,4.3,4.2,4.3c2.3,0,4.2-1.9,4.2-4.3c0-2.4-1.9-4.3-4.2-4.3
		C180.6,594.2,178.7,596.1,178.7,598.5z"/>
	<path fill="#FFFFFF" d="M191.3,607.2h-1.1v-10h1.1v0.9c0.8-0.9,1.7-1.1,2.2-1.1c2,0,3.1,1.7,3.1,3.4c0,1.8-1.1,3.4-3.1,3.4
		c-1,0-1.8-0.5-2.3-1.1V607.2z M195.5,600.4c0-1.6-1.1-2.4-2.1-2.4c-1,0-2.1,0.9-2.1,2.4c0,1.3,0.8,2.4,2.2,2.4
		C194.7,602.8,195.5,601.7,195.5,600.4z"/>
	<path fill="#FFFFFF" d="M199.5,598.2v5.4h-1.1v-5.4h-0.7v-1h0.7v-2.3h1.1v2.3h1.1v1H199.5z"/>
	<path fill="#FFFFFF" d="M202.2,593.9c0.4,0,0.8,0.4,0.8,0.8c0,0.4-0.4,0.8-0.8,0.8c-0.4,0-0.8-0.4-0.8-0.8
		C201.4,594.3,201.8,593.9,202.2,593.9z M202.7,597.2v6.4h-1.1v-6.4H202.7z"/>
	<path fill="#FFFFFF" d="M204.9,597.2h1.1v0.7c0.4-0.5,0.9-0.8,1.6-0.8c1.2,0,1.6,0.8,1.8,1c0.6-1,1.5-1,1.9-1
		c1.9,0,2.1,1.6,2.1,2.5v4.1h-1.1v-3.9c0-0.7-0.1-1.7-1.1-1.7c-1.3,0-1.4,1.2-1.4,2v3.6h-1.1v-3.8c0-0.5,0-1.8-1.2-1.8
		c-1.3,0-1.4,1.3-1.4,2.1v3.5h-1.1V597.2z"/>
	<path fill="#FFFFFF" d="M216.1,593.9c0.4,0,0.8,0.4,0.8,0.8c0,0.4-0.4,0.8-0.8,0.8c-0.4,0-0.8-0.4-0.8-0.8
		C215.3,594.3,215.6,593.9,216.1,593.9z M216.6,597.2v6.4h-1.1v-6.4H216.6z"/>
	<path fill="#FFFFFF" d="M220,602.6h4.5v1h-6.7l4.7-5.4h-3.8v-1h6L220,602.6z"/>
	<path fill="#FFFFFF" d="M231.4,602c-0.2,0.4-0.5,0.7-0.8,1c-0.6,0.5-1.3,0.8-2.1,0.8c-1.6,0-3.2-1-3.2-3.4c0-1.9,1.2-3.4,3.1-3.4
		c1.3,0,2.1,0.6,2.4,1.2c0.4,0.6,0.6,1.6,0.6,2.4h-5c0,1.3,0.9,2.2,2.1,2.2c0.5,0,0.9-0.2,1.3-0.5c0.3-0.2,0.5-0.6,0.7-0.9
		L231.4,602z M230.3,599.7c-0.2-1-0.9-1.7-1.9-1.7c-0.9,0-1.7,0.7-1.9,1.7H230.3z"/>
	<path fill="#FFFFFF" d="M183.8,611.9h2.1c1,0,2.5,0.1,3.8,1.2c0.9,0.8,1.8,2.1,1.8,4c0,2.2-1.1,3.3-1.8,4c-0.9,0.8-1.9,1.2-3.8,1.2
		h-2.1V611.9z M184.9,621.2h1c0.8,0,2-0.1,3-0.9c0.8-0.7,1.4-1.7,1.4-3.2c0-2.5-1.7-4.1-4.4-4.1h-1V621.2z"/>
	<path fill="#FFFFFF" d="M199,620.6c-0.2,0.4-0.5,0.7-0.8,1c-0.6,0.5-1.3,0.8-2.1,0.8c-1.6,0-3.2-1-3.2-3.4c0-1.9,1.2-3.4,3.1-3.4
		c1.3,0,2.1,0.6,2.4,1.2c0.4,0.6,0.6,1.6,0.6,2.4h-5c0,1.3,0.9,2.2,2.1,2.2c0.5,0,0.9-0.2,1.3-0.5c0.3-0.2,0.5-0.6,0.7-0.9
		L199,620.6z M197.9,618.3c-0.2-1-0.9-1.7-1.9-1.7c-0.9,0-1.7,0.7-1.9,1.7H197.9z"/>
	<path fill="#FFFFFF" d="M201.9,625.8h-1.1v-10h1.1v0.9c0.8-0.9,1.7-1.1,2.2-1.1c2,0,3.1,1.7,3.1,3.4c0,1.8-1.1,3.4-3.1,3.4
		c-1,0-1.8-0.5-2.3-1.1V625.8z M206.1,619.1c0-1.6-1.1-2.4-2.1-2.4c-1,0-2.1,0.9-2.1,2.4c0,1.3,0.8,2.4,2.2,2.4
		C205.3,621.5,206.1,620.4,206.1,619.1z"/>
	<path fill="#FFFFFF" d="M210.1,610.9v11.3H209v-11.3H210.1z"/>
	<path fill="#FFFFFF" d="M211.8,619.1c0-2,1.4-3.4,3.4-3.4s3.4,1.4,3.4,3.4c0,2-1.5,3.4-3.4,3.4C213.3,622.4,211.8,621,211.8,619.1z
		 M212.9,619.1c0,1.6,1.1,2.4,2.3,2.4c1.2,0,2.3-0.8,2.3-2.4c0-1.6-1.1-2.4-2.3-2.4S212.9,617.5,212.9,619.1z"/>
	<path fill="#FFFFFF" d="M222.4,621.7l-3-5.8h1.3l2.3,4.6l2.1-4.6h1.2l-4.7,10h-1.2L222.4,621.7z"/>
</g>
<g>
	<g>
		<g>
			<line fill="none" stroke="#FFFFFF" stroke-miterlimit="10" x1="50.3" y1="83" x2="50.3" y2="89"/>
			
				<line fill="none" stroke="#FFFFFF" stroke-miterlimit="10" stroke-dasharray="11.8157,11.8157" x1="50.3" y1="100.8" x2="50.3" y2="614.8"/>
			<line fill="none" stroke="#FFFFFF" stroke-miterlimit="10" x1="50.3" y1="620.7" x2="50.3" y2="626.7"/>
		</g>
	</g>
	<circle fill="#0D8E9B" cx="50.3" cy="220.5" r="31.9"/>
	<circle fill="#D3B311" cx="50.3" cy="342" r="31.9"/>
	<circle fill="#9E0A0A" cx="50.3" cy="470.4" r="31.9"/>
	<circle fill="#0D8E9B" cx="50.3" cy="599.4" r="31.9"/>
	<circle fill="#9E0A0A" cx="50.3" cy="97.7" r="31.9"/>
	<path opacity="0.45" fill="#2B2A27" d="M50.3,64.9c18.1,0,32.8,14.7,32.8,32.8s-14.7,32.8-32.8,32.8"/>
	<circle fill="#9E0A0A" cx="50.3" cy="97.7" r="20.4"/>
	<path opacity="0.45" fill="#2B2A27" d="M50.3,187.7c18.1,0,32.8,14.7,32.8,32.8s-14.7,32.8-32.8,32.8"/>
	<circle fill="#0D8E9B" cx="50.3" cy="220.5" r="20.4"/>
	<path opacity="0.45" fill="#2B2A27" d="M50.3,309.1c18.1,0,32.8,14.7,32.8,32.8c0,18.1-14.7,32.8-32.8,32.8"/>
	<circle fill="#D3B311" cx="50.3" cy="342" r="20.4"/>
	<path opacity="0.45" fill="#2B2A27" d="M50.3,437.2c18.1,0,32.8,14.7,32.8,32.8c0,18.1-14.7,32.8-32.8,32.8"/>
	<circle fill="#9E0A0A" cx="50.3" cy="470.4" r="20.4"/>
	<path opacity="0.45" fill="#2B2A27" d="M50.3,566.6c18.1,0,32.8,14.7,32.8,32.8s-14.7,32.8-32.8,32.8"/>
	<circle fill="#0D8E9B" cx="50.3" cy="599.4" r="20.4"/>
	<g>
		<rect x="41.8" y="88.4" fill="none" width="28.9" height="34.2"/>
		<path fill="#FFFFFF" d="M49.5,92.2h-3.2l1.1-2h4.3v19.3h-2.1V92.2z"/>
	</g>
	<g>
		<rect x="42.5" y="210.2" fill="none" width="28.9" height="34.2"/>
		<path fill="#FFFFFF" d="M44,231.3l7-8.1c0.5-0.6,1.8-2.1,2.3-2.8c0.9-1.2,1.1-2.2,1.1-3c0-2.2-1.6-3.8-3.9-3.8
			c-1.4,0-2.5,0.6-3.2,1.7c-0.4,0.6-0.6,1.3-0.6,2.3h-2.1c0.1-1.9,0.7-3.1,1.4-4c0.8-0.9,2.2-2,4.6-2c3.4,0,6,2.4,6,5.8
			c0,1.3-0.4,2.5-1.5,4.1c-0.8,1.1-1.9,2.3-2.6,3.2l-4,4.5h8.2v2H44z"/>
	</g>
	<g>
		<rect x="42.5" y="332.2" fill="none" width="28.9" height="34.2"/>
		<path fill="#FFFFFF" d="M45,338.8c0.1-1.1,0.4-2.1,0.9-2.8c1.3-2,3.3-2.3,4.5-2.3c3.6,0,5.4,2.5,5.4,5.2c0,1.4-0.5,3.3-2.5,4.3
			c0.7,0.3,2.8,1.3,2.8,4.7c0,3.6-2.6,5.8-5.9,5.8c-2,0-4.3-0.8-5.4-3.3c-0.3-0.7-0.4-1.3-0.4-2h2.1c0.1,0.7,0.3,1.4,0.7,1.9
			c0.6,0.9,1.8,1.4,3,1.4c2.1,0,3.8-1.8,3.8-3.9c0-1.1-0.4-2.6-1.9-3.2c-0.6-0.3-1.4-0.4-2.2-0.4v-1.9c0.8,0.1,1.6-0.1,2.2-0.4
			s1.6-1.1,1.6-2.9c0-1.7-0.9-3.3-3.3-3.3c-0.8,0-1.7,0.1-2.5,1.1c-0.4,0.5-0.7,1.2-0.8,2H45z"/>
	</g>
	<g>
		<rect x="40.4" y="459.3" fill="none" width="28.9" height="34.2"/>
		<path fill="#FFFFFF" d="M53,474.8h2.4v2H53v3.6h-2.1v-3.6H41L53,460V474.8z M50.9,474.8v-8.5l-6.1,8.5H50.9z"/>
	</g>
	<g>
		<rect x="43.2" y="589.7" fill="none" width="28.9" height="34.2"/>
		<path fill="#FFFFFF" d="M57.1,593.4h-6.2l-1.2,4.2c0.4-0.1,0.8-0.1,1.2-0.1c3.9,0,6.4,2.9,6.4,6.7c0,4.3-3.2,6.9-7,6.9
			c-1.6,0-3-0.4-4.3-1.5c-0.6-0.5-1.2-1.2-1.7-2l1.7-1.2c0.3,0.6,0.7,1.1,1.3,1.6c0.8,0.7,1.8,1.2,3.1,1.2c2.7,0,4.7-2.2,4.7-4.9
			c0-2.8-2-4.7-4.7-4.7c-0.7,0-2,0.1-3.7,1.3l2.8-9.3h7.7V593.4z"/>
	</g>
</g>
<g>
</g>
<g>
</g>
<g>
</g>
<g>
</g>
<g>
</g>
<g>
</g>
</svg>
