<?xml version="1.0" encoding="utf-8"?>
<!-- Generator: Adobe Illustrator 18.1.1, SVG Export Plug-In . SVG Version: 6.00 Build 0)  -->
<!DOCTYPE svg PUBLIC "-//W3C//DTD SVG 1.1//EN" "http://www.w3.org/Graphics/SVG/1.1/DTD/svg11.dtd">
<svg version="1.1" id="Layer_1" xmlns="http://www.w3.org/2000/svg" xmlns:xlink="http://www.w3.org/1999/xlink" x="0px" y="0px"
	 viewBox="0 0 1600 1250" enable-background="new 0 0 1600 1250" xml:space="preserve">
<g>
	<rect x="349.2" y="739.1" fill="none" width="101.9" height="417.7"/>
	<path fill="#9E0A0A" d="M404.7,1152.3v-8h-52.1v8h-3.4v-24.5c0-5.1,0.3-8.7,1.6-12.7c3.7-11,13.8-17.7,27.9-17.7
		c14.7,0,24.6,7.2,28.1,19.2c1,3.5,1.3,7.1,1.3,11.2v24.5H404.7z M404.7,1128.4c0-4-0.3-7.5-1.3-10.8c-3-10-11.8-16.4-24.7-16.4
		c-12.4,0-21.3,5.9-24.6,15.5c-1.3,3.7-1.4,7.2-1.4,11.7v12.3h52.1V1128.4z"/>
	<path fill="#9E0A0A" d="M404.7,1088.2v-8h-52.1v8h-3.4v-40.6h10.9v3.5h-7.6v25.5h24.1v-23.4h3.4v23.4h24.6v-27.1h-8.1v-3.5H408
		v42.3H404.7z"/>
	<path fill="#9E0A0A" d="M392.7,1032h4.3c5.4,0,8.6-6.7,8.6-14c0-8.4-4.4-14.4-12.1-14.4c-8.6,0-11.5,7.2-14.5,15.2
		c-2.9,7.6-5.7,15.8-15.9,15.8c-9.6,0-14.9-7.6-14.9-17.1c0-8,3.1-16.2,8.7-16.2h5.6v3.7H358c-4.1,0-6.4,6.8-6.4,12.5
		c0,7.5,3.9,13.3,11,13.3c7.9,0,10.2-6.7,13.2-14.3c3.3-8.4,6.4-16.7,17.1-16.7c9.6,0,16,7.5,16,18.2c0,7.8-3.5,17.7-11.2,17.7h-5.1
		V1032z"/>
	<path fill="#9E0A0A" d="M404.7,990v-8h-52.1v8h-3.4v-19.6h3.4v8h52.1v-8h3.4V990H404.7z"/>
	<path fill="#9E0A0A" d="M348.2,931.2c0-10,4.2-21.8,11.6-21.8h5.6v3.7H361c-6.2,0-9.3,10.2-9.3,18.2c0,16,11.8,26.4,27,26.4
		c15.4,0,26.9-10.7,26.9-26.1c0-6.3-2.1-19.9-9.7-19.9h-10.5v13h-3.4v-16.6h14.3c9.2,0,12.7,14.2,12.7,23.2
		c0,18.1-13.2,30.2-30.4,30.2C361.5,961.6,348.2,949.6,348.2,931.2z"/>
	<path fill="#9E0A0A" d="M404.7,897.8v-8h-52.1v8h-3.4v-11.3l50.2-36.6c1.1-0.8,3-1.6,3-1.6v-0.2c0,0-2.2,0.3-3.4,0.3h-46.5v8h-3.4
		v-19.6h3.4v8H408v3.4l-50.3,36.5c-1.1,0.8-3,1.6-3,1.6v0.2c0,0,2.2-0.3,3.4-0.3h46.5v-8h3.4v19.6H404.7z"/>
</g>
<line fill="none" stroke="#9E0A0A" stroke-width="5" stroke-miterlimit="10" x1="408.1" y1="826.7" x2="408.1" y2="1166.8"/>
<g>
	<rect x="768.1" y="304.8" fill="none" width="101.9" height="417.7"/>
	<path fill="#0D8E9B" d="M771.5,711.5v8h-3.4v-19.6h3.4v8h33.9c4.7,0,8.8-0.9,11.8-2.9c4.7-3,7.3-8.6,7.3-15.5
		c0-7-2.8-12.8-7.6-15.6c-3-1.8-7.1-2.8-11.7-2.8h-33.7v8h-3.4v-19.6h3.4v8h34c5.3,0,10,1.2,13.5,3.4c5.7,3.7,8.9,10.3,8.9,18.5
		c0,8.2-3.3,15.1-9.1,18.8c-3.6,2.3-8.1,3.2-13.4,3.2H771.5z"/>
	<path fill="#0D8E9B" d="M823.6,654.5v-6.1l-26.2-15.5l-25.9,15.6v5.8h-3.4v-17.1h3.4v7.1l21.2-12.9c1.2-0.8,2.1-1.2,2.1-1.2V630
		c0,0-1-0.4-2.1-1.1l-21.2-12.4v6.9h-3.4v-17.1h3.4v6.1l26.5,15.8l25.6-15.6v-6.1h3.4v17.1h-3.4v-6.8l-21,12.7
		c-1.2,0.8-2.1,1.2-2.1,1.2v0.2c0,0,1,0.4,2.1,1.1l21,12.3v-6.9h3.4v17.1H823.6z"/>
	<path fill="#0D8E9B" d="M764.8,578.8v-3.7l65.7,21.3v3.7L764.8,578.8z"/>
	<path fill="#0D8E9B" d="M771.5,560v8h-3.4v-19.6h3.4v8h33.9c4.7,0,8.8-0.9,11.8-2.9c4.7-3,7.3-8.6,7.3-15.5c0-7-2.8-12.8-7.6-15.6
		c-3-1.8-7.1-2.8-11.7-2.8h-33.7v8h-3.4v-19.6h3.4v8h34c5.3,0,10,1.2,13.5,3.4c5.7,3.7,8.9,10.3,8.9,18.5c0,8.2-3.3,15.1-9.1,18.8
		c-3.6,2.3-8.1,3.2-13.4,3.2H771.5z"/>
	<path fill="#0D8E9B" d="M823.6,500.7v-8h-52.1v8h-3.4v-19.6h3.4v8h52.1v-8h3.4v19.6H823.6z"/>
</g>
<g>
	<line fill="none" x1="827" y1="392.4" x2="827" y2="732.5"/>
</g>
<line fill="none" stroke="#0D8E9B" stroke-width="5" stroke-miterlimit="10" x1="827" y1="443" x2="827" y2="732.5"/>
<g>
	<rect x="1195.1" y="16.7" fill="none" width="101.9" height="417.7"/>
	<path fill="#D3B311" d="M1195.1,432.9v-17.1h3.4v7.1L1246,411c1.5-0.3,3.2-0.6,3.2-0.6v-0.3c0,0-1.7-0.3-3.2-0.8l-51-14.6v-3.9
		l51-14.6c1.5-0.4,3.2-0.8,3.2-0.8v-0.3c0,0-1.7-0.3-3.2-0.6l-47.6-11.8v7.1h-3.4v-17.1h3.4v6.2l55.4,14.2v4.5l-50.3,14.4
		c-1.5,0.4-3.2,0.6-3.2,0.6v0.3c0,0,1.7,0.2,3.2,0.6l50.3,14.4v4.5l-55.4,14.2v6.2H1195.1z"/>
	<path fill="#D3B311" d="M1250.5,346.8v-8h-52.1v8h-3.4v-40.6h10.9v3.5h-7.6v25.5h24.1v-23.4h3.4v23.4h24.6v-27.1h-8.1v-3.5h11.4
		v42.3H1250.5z"/>
	<path fill="#D3B311" d="M1250.5,295.1v-8h-52.1v8h-3.4v-26.2c0-3.9,0.7-7.3,2.2-10c2-3.6,6.7-6.4,12.6-6.4c6.2,0,10.6,3.1,12.8,7.6
		h0.2c1.6-5.8,7.3-10,14.7-10c6.9,0,12.8,3.7,15,9.2c1.1,2.6,1.3,5.6,1.3,8.8v27H1250.5z M1221.3,267.4c0-6.6-4.5-11.2-11.5-11.2
		c-4.3,0-7.7,1.8-9.6,4.7c-1.3,2-1.8,4.7-1.8,7.9v14.6h22.8V267.4z M1250.5,268.1c0-2.1-0.2-4.9-1.1-7.1c-1.8-4.4-6.1-7.1-11.8-7.1
		c-8,0-13,5.5-13,13v16.5h25.9V268.1z"/>
	<path fill="#D3B311" d="M1250.5,218.6v-8h-52.1v8h-3.4v-24.5c0-5.1,0.3-8.7,1.6-12.7c3.7-11,13.8-17.7,27.9-17.7
		c14.7,0,24.6,7.2,28.1,19.2c1,3.5,1.3,7.1,1.3,11.2v24.5H1250.5z M1250.5,194.7c0-4-0.3-7.5-1.3-10.8c-3-10-11.8-16.4-24.7-16.4
		c-12.4,0-21.3,5.9-24.6,15.5c-1.3,3.7-1.4,7.2-1.4,11.7V207h52.1V194.7z"/>
	<path fill="#D3B311" d="M1250.5,154.5v-8h-52.1v8h-3.4V114h10.9v3.5h-7.6V143h24.1v-23.4h3.4V143h24.6v-27.1h-8.1v-3.5h11.4v42.3
		H1250.5z"/>
	<path fill="#D3B311" d="M1198.4,99.9v6.3h-3.4V89h3.4v7l48.1-17.1c1.5-0.5,3.2-0.8,3.2-0.8v-0.3c0,0-1.7-0.3-3.2-0.8l-48.1-17.1v7
		h-3.4V49.5h3.4v6.4l55.4,19.9V80L1198.4,99.9z"/>
</g>
<g>
	<line fill="none" x1="1253.9" y1="104.2" x2="1253.9" y2="444.4"/>
</g>
<line fill="none" stroke="#D3B311" stroke-width="5" stroke-miterlimit="10" x1="1253.9" y1="37.6" x2="1253.9" y2="453.4"/>
<g>
</g>
<g>
</g>
<g>
</g>
<g>
</g>
<g>
</g>
<g>
</g>
</svg>
