<?xml version="1.0" encoding="utf-8"?>
<!-- Generator: Adobe Illustrator 18.1.1, SVG Export Plug-In . SVG Version: 6.00 Build 0)  -->
<!DOCTYPE svg PUBLIC "-//W3C//DTD SVG 1.1//EN" "http://www.w3.org/Graphics/SVG/1.1/DTD/svg11.dtd">
<svg version="1.1" id="Layer_1" xmlns="http://www.w3.org/2000/svg" xmlns:xlink="http://www.w3.org/1999/xlink" x="0px" y="0px"
	 width="461.7px" height="444px" viewBox="0 0 461.7 444" enable-background="new 0 0 461.7 444" xml:space="preserve">
<g>
	<path fill="#0D8E9B" d="M221.8,247.1L129.6,261l-13.7-134.8c0,0,0-22.6,12.1-45.5l35.3-64.3l33.2,122.4L221.8,247.1z"/>
	<path fill="#9E0A0A" d="M238.9,227.7l-4.8,95.7l-133.9-20.9c0,0-21.8-5.7-41-23.2L6,228.7l126.8-1.1H238.9z"/>
	<path fill="#D3B311" d="M238.9,215.8l85,32.3l-59.7,121.6c0,0-11.9,19.2-34.4,32.2l-64,35.9l36.6-121.4L238.9,215.8z"/>
	<path fill="#0D8E9B" d="M229.4,203.9l61.3-65.2L381.8,239c0,0,13.4,18.1,17.3,43.8l9.7,72.7l-99.3-78.8L229.4,203.9z"/>
	<path fill="#9E0A0A" d="M221.8,227.7l-50.7-80.8l121.5-60.1c0,0,21.1-7.9,46.9-4.6l72.6,10.6l-103,73.9L221.8,227.7z"/>
	<path fill="#840808" d="M244.8,195.4l54.6-110.6l-123.6,59.8c-2.5,1.2-3.4,4.3-1.9,6.7l35.6,56.7L244.8,195.4z"/>
	<polygon fill="#840808" points="210.9,227.7 97.1,301.5 201.8,318.3 228.8,243.4 	"/>
	<polygon fill="#087A7F" points="255.5,227.7 381.8,239 313.4,163.7 255.5,204.1 	"/>
	<polygon fill="#087A7F" points="209.5,208 115.9,126.2 126.2,227.7 210.9,227.7 	"/>
	<polygon fill="#C19F10" points="233.7,243.9 264.1,369.7 309.5,276.8 255.5,227.7 	"/>
	<radialGradient id="SVGID_1_" cx="233.7486" cy="219.6674" r="24.2299" gradientUnits="userSpaceOnUse">
		<stop  offset="0" style="stop-color:#FFFFFF"/>
		<stop  offset="1" style="stop-color:#9D9D9D"/>
	</radialGradient>
	<circle fill="url(#SVGID_1_)" cx="233.7" cy="219.7" r="24.2"/>
</g>
</svg>
