<?xml version="1.0" encoding="utf-8"?>
<!-- Generator: Adobe Illustrator 18.1.1, SVG Export Plug-In . SVG Version: 6.00 Build 0)  -->
<!DOCTYPE svg PUBLIC "-//W3C//DTD SVG 1.1//EN" "http://www.w3.org/Graphics/SVG/1.1/DTD/svg11.dtd">
<svg version="1.1" id="Layer_1" xmlns="http://www.w3.org/2000/svg" xmlns:xlink="http://www.w3.org/1999/xlink" x="0px" y="0px"
	 viewBox="0 0 700 450" enable-background="new 0 0 700 450" xml:space="preserve"  onload="init(evt)">
   <script type="text/ecmascript"><![CDATA[
  var svgNS = "http://www.w3.org/2000/svg";

  function init(evt)
  {
    if ( window.svgDocument == null )
    {
      svgDoc = evt.target.ownerDocument;
    }

    addRotateTransform('gear-1', 12, 1);
    addRotateTransform('gear-2', 16, -1);
  }

  function addRotateTransform(target_id, dur, dir)
  {
   var my_element = svgDoc.getElementById(target_id);
  var a = svgDoc.createElementNS(svgNS, "animateTransform");

  var bb = my_element.getBBox();
  var cx = bb.x + bb.width/2;
  var cy = bb.y + bb.height/2;

  a.setAttributeNS(null, "attributeName", "transform");
  a.setAttributeNS(null, "attributeType", "XML");
  a.setAttributeNS(null, "type", "rotate");
  a.setAttributeNS(null, "dur", dur + "s");
  a.setAttributeNS(null, "repeatCount", "indefinite");
  a.setAttributeNS(null, "from", "0 "+cx+" "+cy);
  a.setAttributeNS(null, "to", 360*dir+" "+cx+" "+cy);

  my_element.appendChild(a);
  a.beginElement();
  }
]]></script>
<rect x="-7" fill="#0F0E0F" width="707" height="450"/>
<g>
	<path fill="none" stroke="#FFFFFF" stroke-miterlimit="10" id="gear-1" d="M483.4,167.4l-8.3-22.2l30.8-18.5l14,17.9c0,0,10.2-4.2,19.3-3.1
		l8.8-21.9l36.7,8.8l-1.7,23.4c0,0,9.7,5.7,15.1,11.1l22.5-8.5l18.5,31.1l-14,12.8c0,0,3.1,11.1,2.3,18.8l21.9,9.1l-8,36.4
		l-23.6-1.4c0,0-4.2,9.7-11.1,16.2l8.5,20.5L582.8,318L568,300.9c0,0-9.4,2.5-19.3,2.8l-9.1,21l-37.3-8.8l1.1-23.4
		c0,0-10.8-4.9-16-10.5l-21.3,8.8l-18.8-31.6l17.1-13.7c0,0-3.7-7.7-3.1-19.1l-20.5-8.8l8.5-37l23.1,2
		C472.4,182.8,473.8,175.9,483.4,167.4z"/>
	<circle fill="none" stroke="#FFFFFF" stroke-miterlimit="10" cx="542.9" cy="222.9" r="39.3"/>
</g>
<g>
	<path fill="none" stroke="#FFFFFF" stroke-miterlimit="10" id="gear-2" d="M336.3,191.2l0.9-18.1l27.5-3.4l4.4,16.9c0,0,8.6,0.2,14.7,3.8
		l13-12.6l23.4,17.6l-8.4,15.8c0,0,5.1,7,7.3,12.4l18.6,1l3.6,27.4l-13.8,4.6c0,0-1.2,8.7-4.1,13.9l12.8,13.2l-16.8,23l-16.3-8.3
		c0,0-6,5.4-12.8,7.9l-0.2,17l-29.2,4.1l-5.3-16.5c0,0-7.5-1.1-14.6-4l-12.9,11.9L304.1,301l8-16c0,0-6.2-6.7-8.1-12.3l-17.9-0.5
		l-3.7-27.9l16.3-4.2c0,0-0.3-6.5,3.6-14.3l-11.9-12.6l17.4-23.2l15.8,8.5C323.7,198.5,326.8,194.1,336.3,191.2z">
		
		</path>
	
		<ellipse transform="matrix(0.4007 -0.9162 0.9162 0.4007 -11.027 480.1181)" fill="none" stroke="#FFFFFF" stroke-miterlimit="10" cx="361.5" cy="248.5" rx="30" ry="30.4"/>
</g>

</svg>
