<?xml version="1.0" encoding="utf-8"?>
<!-- Generator: Adobe Illustrator 18.1.1, SVG Export Plug-In . SVG Version: 6.00 Build 0)  -->
<!DOCTYPE svg PUBLIC "-//W3C//DTD SVG 1.1//EN" "http://www.w3.org/Graphics/SVG/1.1/DTD/svg11.dtd">
<svg version="1.1" id="Layer_1" xmlns="http://www.w3.org/2000/svg" xmlns:xlink="http://www.w3.org/1999/xlink" x="0px" y="0px"
	 viewBox="0 0 1280 1060" enable-background="new 0 0 1280 1060" xml:space="preserve">
<rect x="-8.9" fill="#0F0E0F" width="1288.9" height="1075.1"/>
<g>
	<path fill="none" stroke="#FFFFFF" stroke-width="2" stroke-miterlimit="10" d="M890.3,505.8l-16.6-44.6l61.8-37.2l28,36
		c0,0,20.6-8.6,38.9-6.3l17.7-44l73.8,17.7l-3.4,46.9c0,0,19.4,11.4,30.3,22.3l45.2-17.2l37.2,62.3l-28,25.7c0,0,6.3,22.3,4.6,37.7
		l44,18.3l-16,73.2l-47.5-2.9c0,0-8.6,19.4-22.3,32.6l17.2,41.2l-65.2,40.6l-29.7-34.3c0,0-18.9,5.1-38.9,5.7L1003,822l-74.9-17.7
		l2.3-46.9c0,0-21.7-9.7-32-21.2L855.4,754l-37.7-63.5l34.3-27.4c0,0-7.4-15.4-6.3-38.3L804.5,607l17.2-74.3l46.3,4
		C868,536.7,870.9,523,890.3,505.8z"/>
	<circle fill="none" stroke="#FFFFFF" stroke-width="2" stroke-miterlimit="10" cx="1009.8" cy="617.3" r="78.9"/>
</g>
<g>
	<path fill="none" stroke="#FFFFFF" stroke-width="2" stroke-miterlimit="10" d="M594.6,553.6l1.9-36.3l55.2-6.8l8.9,33.9
		c0,0,17.2,0.4,29.5,7.7l26.1-25.3l47,35.3l-16.8,31.7c0,0,10.3,14,14.7,25l37.3,2l7.3,55.1l-27.8,9.3c0,0-2.4,17.5-8.3,27.8
		l25.7,26.5l-33.8,46.2L728.7,769c0,0-12,10.9-25.8,15.9l-0.4,34.1l-58.7,8.2l-10.6-33.2c0,0-15-2.3-29.4-8.1l-25.9,23.9l-47.8-35.7
		l16-32.1c0,0-12.5-13.5-16.3-24.7l-35.9-0.9l-7.4-56.1l32.8-8.5c0,0-0.6-13.1,7.3-28.7l-23.8-25.2l34.9-46.7l31.7,17.2
		C569.3,568.3,575.5,559.6,594.6,553.6z"/>
	
		<ellipse transform="matrix(0.9162 0.4007 -0.4007 0.9162 322.0309 -202.559)" fill="none" stroke="#FFFFFF" stroke-width="2" stroke-miterlimit="10" cx="645.3" cy="668.7" rx="61.2" ry="60.2"/>
</g>
</svg>
