<?xml version="1.0" encoding="utf-8"?>
<!-- Generator: Adobe Illustrator 18.1.1, SVG Export Plug-In . SVG Version: 6.00 Build 0)  -->
<!DOCTYPE svg PUBLIC "-//W3C//DTD SVG 1.1//EN" "http://www.w3.org/Graphics/SVG/1.1/DTD/svg11.dtd">
<svg version="1.1" id="Layer_1" xmlns="http://www.w3.org/2000/svg" xmlns:xlink="http://www.w3.org/1999/xlink" x="0px" y="0px"
	 viewBox="0 84.5 1000 1092.5" enable-background="new 0 84.5 1000 1092.5" xml:space="preserve">
<rect x="-7" y="76.9" fill="#0F0E0F" width="1007" height="1100.1"/>
<g>
	<path fill="none" stroke="#FFFFFF" stroke-width="2" stroke-miterlimit="10" d="M694.2,724l-13-34.8l48.3-29.1l21.9,28.1
		c0,0,16.1-6.7,30.4-4.9l13.8-34.4l57.7,13.8l-2.7,36.6c0,0,15.2,8.9,23.7,17.4l35.3-13.4l29.1,48.7l-21.9,20.1
		c0,0,4.9,17.4,3.6,29.5l34.4,14.3L942.3,873l-37.1-2.3c0,0-6.7,15.2-17.4,25.5l13.4,32.2l-50.9,31.7L827,933.3c0,0-14.8,4-30.4,4.5
		L782.3,971l-58.5-13.8l1.8-36.6c0,0-17-7.6-25-16.6L667,917.9l-29.5-49.6l26.8-21.4c0,0-5.8-12-4.9-29.9L627.2,803l13.4-58
		l36.2,3.1C676.8,748.1,679.1,737.4,694.2,724z"/>
	<circle fill="none" stroke="#FFFFFF" stroke-width="2" stroke-miterlimit="10" cx="787.6" cy="811.1" r="61.6"/>
</g>
<g>
	<path fill="none" stroke="#FFFFFF" stroke-width="2" stroke-miterlimit="10" d="M489.3,878.9l1.5-29l44.1-5.4l7.1,27.1
		c0,0,13.7,0.3,23.6,6.2l20.9-20.2l37.6,28.2L610.6,911c0,0,8.2,11.2,11.7,20l29.8,1.6l5.8,44l-22.2,7.4c0,0-1.9,14-6.6,22.2
		l20.5,21.2l-27,36.9l-26.2-13.3c0,0-9.6,8.7-20.6,12.7l-0.3,27.2l-46.9,6.6l-8.5-26.5c0,0-12-1.8-23.5-6.5l-20.7,19.1l-38.2-28.5
		l12.8-25.6c0,0-10-10.8-13-19.7l-28.7-0.7l-5.9-44.8l26.2-6.8c0,0-0.5-10.5,5.8-22.9l-19-20.1l27.9-37.3l25.3,13.7
		C469.1,890.7,474,883.7,489.3,878.9z"/>
	
		<ellipse transform="matrix(0.4007 -0.9162 0.9162 0.4007 -572.0173 1067.2284)" fill="none" stroke="#FFFFFF" stroke-width="2" stroke-miterlimit="10" cx="529.8" cy="970.9" rx="48.1" ry="48.9"/>
</g>
</svg>
