<?xml version="1.0" encoding="utf-8"?>
<!-- Generator: Adobe Illustrator 18.1.1, SVG Export Plug-In . SVG Version: 6.00 Build 0)  -->
<!DOCTYPE svg PUBLIC "-//W3C//DTD SVG 1.1//EN" "http://www.w3.org/Graphics/SVG/1.1/DTD/svg11.dtd">
<svg version="1.1" id="Layer_1" xmlns="http://www.w3.org/2000/svg" xmlns:xlink="http://www.w3.org/1999/xlink" x="0px" y="0px"
	 viewBox="0 0 1280 800" enable-background="new 0 0 1280 800" xml:space="preserve">
<rect x="-8.9" fill="#0F0E0F" width="1288.9" height="800"/>
<g>
	<path fill="none" stroke="#FFFFFF" stroke-miterlimit="10" d="M879.2,338.7l-13.7-36.9l51-30.7l23.2,29.8c0,0,17-7.1,32.1-5.2
		l14.7-36.4l61,14.7l-2.8,38.8c0,0,16.1,9.5,25,18.4L1107,317l30.7,51.5l-23.2,21.3c0,0,5.2,18.4,3.8,31.2l36.4,15.1l-13.2,60.5
		l-39.2-2.4c0,0-7.1,16.1-18.4,26.9l14.2,34l-53.9,33.6l-24.6-28.4c0,0-15.6,4.3-32.1,4.7l-15.1,35l-61.9-14.7l1.9-38.8
		c0,0-18-8-26.5-17.5l-35.4,14.7l-31.2-52.5l28.4-22.7c0,0-6.1-12.8-5.2-31.7l-34-14.7l14.2-61.4l38.3,3.3
		C860.7,364.2,863.1,352.9,879.2,338.7z"/>
	<circle fill="none" stroke="#FFFFFF" stroke-miterlimit="10" cx="978" cy="430.9" r="65.2"/>
</g>
<g>
	<path fill="none" stroke="#FFFFFF" stroke-miterlimit="10" d="M634.8,378.2l1.5-30l45.6-5.6l7.3,28c0,0,14.2,0.3,24.4,6.3
		l21.5-20.9l38.8,29.2l-13.9,26.2c0,0,8.5,11.6,12.1,20.7l30.8,1.7l6.1,45.6l-22.9,7.7c0,0-1.9,14.5-6.9,23l21.2,21.9l-27.9,38.2
		l-27.1-13.8c0,0-9.9,9-21.3,13.1l-0.3,28.2l-48.5,6.7l-8.8-27.5c0,0-12.4-1.9-24.3-6.7L621,589.9l-39.5-29.5l13.2-26.5
		c0,0-10.3-11.2-13.4-20.4l-29.6-0.8l-6.1-46.4l27.1-7.1c0,0-0.5-10.8,6-23.8l-19.7-20.8l28.9-38.6l26.2,14.2
		C613.9,390.4,619,383.2,634.8,378.2z"/>
	
		<ellipse transform="matrix(0.9162 0.4007 -0.4007 0.9162 246.3792 -231.5063)" fill="none" stroke="#FFFFFF" stroke-miterlimit="10" cx="676.7" cy="473.4" rx="50.5" ry="49.8"/>
</g>
</svg>
